<svg viewBox="0 0 24 24" fill="currentColor" xmlns="http://www.w3.org/2000/svg">
<path fill-rule="evenodd" clip-rule="evenodd" d="M11.9999 3.19727C12.3796 3.19727 12.6934 3.47942 12.7431 3.8455L12.7499 3.94727V11.2489L20.0525 11.2499C20.4667 11.2499 20.8025 11.5857 20.8025 11.9999C20.8025 12.3796 20.5204 12.6934 20.1543 12.7431L20.0525 12.7499L12.7499 12.7489V20.0525C12.7499 20.4667 12.4141 20.8025 11.9999 20.8025C11.6202 20.8025 11.3064 20.5204 11.2567 20.1543L11.2499 20.0525V12.7489L3.94727 12.7499C3.53305 12.7499 3.19727 12.4141 3.19727 11.9999C3.19727 11.6202 3.47942 11.3064 3.8455 11.2567L3.94727 11.2499L11.2499 11.2489V3.94727C11.2499 3.53305 11.5857 3.19727 11.9999 3.19727Z" fill="currentColor"/>
</svg>
