<svg viewBox="0 0 24 24" fill="currentColor" xmlns="http://www.w3.org/2000/svg">
<path fill-rule="evenodd" clip-rule="evenodd" d="M8.1 12.8C8.1 14.6225 6.62254 16.1 4.8 16.1C2.97746 16.1 1.5 14.6225 1.5 12.8C1.5 10.9775 2.97746 9.5 4.8 9.5C6.62254 9.5 8.1 10.9775 8.1 12.8ZM4.8 14.6C5.79411 14.6 6.6 13.7941 6.6 12.8C6.6 11.8059 5.79411 11 4.8 11C3.80589 11 3 11.8059 3 12.8C3 13.7941 3.80589 14.6 4.8 14.6Z" fill="currentColor"/>
<path fill-rule="evenodd" clip-rule="evenodd" d="M15.3002 8.3C15.3002 10.1225 13.8227 11.6 12.0002 11.6C10.1777 11.6 8.7002 10.1225 8.7002 8.3C8.7002 6.47746 10.1777 5 12.0002 5C13.8227 5 15.3002 6.47746 15.3002 8.3ZM12.0002 10.1C12.9943 10.1 13.8002 9.29411 13.8002 8.3C13.8002 7.30589 12.9943 6.5 12.0002 6.5C11.0061 6.5 10.2002 7.30589 10.2002 8.3C10.2002 9.29411 11.0061 10.1 12.0002 10.1Z" fill="currentColor"/>
<path fill-rule="evenodd" clip-rule="evenodd" d="M22.4999 3.8C22.4999 5.62254 21.0224 7.1 19.1999 7.1C17.3774 7.1 15.8999 5.62254 15.8999 3.8C15.8999 1.97746 17.3774 0.5 19.1999 0.5C21.0224 0.5 22.4999 1.97746 22.4999 3.8ZM19.1999 5.6C20.194 5.6 20.9999 4.79411 20.9999 3.8C20.9999 2.80589 20.194 2 19.1999 2C18.2058 2 17.3999 2.80589 17.3999 3.8C17.3999 4.79411 18.2058 5.6 19.1999 5.6Z" fill="currentColor"/>
<path fill-rule="evenodd" clip-rule="evenodd" d="M8.1 18.1999V21.0551C8.1 22.2949 7.09496 23.2999 5.85517 23.2999H3.74483C2.50504 23.2999 1.5 22.2949 1.5 21.0551V18.1999C1.5 16.3774 2.97746 14.8999 4.8 14.8999C6.62254 14.8999 8.1 16.3774 8.1 18.1999ZM4.8 16.3999C3.80589 16.3999 3 17.2058 3 18.1999V21.0551C3 21.4664 3.33347 21.7999 3.74483 21.7999H5.85517C6.26653 21.7999 6.6 21.4664 6.6 21.0551V18.1999C6.6 17.2058 5.79411 16.3999 4.8 16.3999Z" fill="currentColor"/>
<path fill-rule="evenodd" clip-rule="evenodd" d="M15.3002 13.6999V21.0666C15.3002 22.3 14.3003 23.2999 13.0669 23.2999H10.9335C9.70009 23.2999 8.7002 22.3 8.7002 21.0666V13.6999C8.7002 11.8774 10.1777 10.3999 12.0002 10.3999C13.8227 10.3999 15.3002 11.8774 15.3002 13.6999ZM12.0002 11.8999C11.0061 11.8999 10.2002 12.7058 10.2002 13.6999V21.0666C10.2002 21.4716 10.5285 21.7999 10.9335 21.7999H13.0669C13.4719 21.7999 13.8002 21.4716 13.8002 21.0666V13.6999C13.8002 12.7058 12.9943 11.8999 12.0002 11.8999Z" fill="currentColor"/>
<path fill-rule="evenodd" clip-rule="evenodd" d="M22.4999 9.1999V21.2461C22.4999 22.3804 21.5804 23.2999 20.4461 23.2999H17.9537C16.8194 23.2999 15.8999 22.3804 15.8999 21.2461V9.1999C15.8999 7.37736 17.3774 5.8999 19.1999 5.8999C21.0224 5.8999 22.4999 7.37736 22.4999 9.1999ZM19.1999 7.3999C18.2058 7.3999 17.3999 8.20579 17.3999 9.1999V21.2461C17.3999 21.5519 17.6479 21.7999 17.9537 21.7999H20.4461C20.7519 21.7999 20.9999 21.5519 20.9999 21.2461V9.1999C20.9999 8.20579 20.194 7.3999 19.1999 7.3999Z" fill="currentColor"/>
</svg>
