<svg viewBox="0 0 28 29" fill="currentColor" xmlns="http://www.w3.org/2000/svg">
<g id="Icon&#239;&#189;&#156;System, Social">
<rect id="Rectangle" opacity="0.01" y="0.333984" width="28" height="28" fill="currentColor"/>
<path id="Combined Shape" fill-rule="evenodd" clip-rule="evenodd" d="M25.6663 14.3346C25.6663 7.89131 20.443 2.66797 13.9997 2.66797C7.55635 2.66797 2.33301 7.89131 2.33301 14.3346C2.33301 20.778 7.55635 26.0013 13.9997 26.0013C20.443 26.0013 25.6663 20.778 25.6663 14.3346ZM4.08301 14.3346C4.08301 8.85781 8.52285 4.41797 13.9997 4.41797C19.4765 4.41797 23.9163 8.85781 23.9163 14.3346C23.9163 19.8115 19.4765 24.2513 13.9997 24.2513C8.52285 24.2513 4.08301 19.8115 4.08301 14.3346ZM13.9997 18.1263C14.4427 18.1263 14.8087 18.4555 14.8667 18.8826L14.8747 19.0013V20.168C14.8747 20.6512 14.4829 21.043 13.9997 21.043C13.5567 21.043 13.1906 20.7138 13.1327 20.2867L13.1247 20.168V19.0013C13.1247 18.5181 13.5164 18.1263 13.9997 18.1263ZM14.8667 8.38257C14.8087 7.95548 14.4427 7.6263 13.9997 7.6263C13.5164 7.6263 13.1247 8.01805 13.1247 8.5013V15.5013L13.1327 15.62C13.1906 16.0471 13.5567 16.3763 13.9997 16.3763C14.4829 16.3763 14.8747 15.9846 14.8747 15.5013V8.5013L14.8667 8.38257Z" fill="currentColor"/>
</g>
</svg>
