<svg width="24" height="24" viewBox="0 0 24 24" fill="none" xmlns="http://www.w3.org/2000/svg">
    <path fill-rule="evenodd" clip-rule="evenodd" d="M17.9578 15.853C17.6648 16.1904 17.1611 16.2712 16.7732 16.0236L16.6644 15.9423C16.327 15.6493 16.2461 15.1456 16.4938 14.7577L17.9106 12.5381L4.91654 12.5381L4.79216 12.5297C4.34473 12.469 3.99988 12.0855 3.99988 11.6214C3.99988 11.1152 4.41028 10.7048 4.91654 10.7048L17.928 10.7048L16.4892 8.40288L16.4258 8.28276C16.247 7.87327 16.3901 7.38367 16.7804 7.13963C17.2096 6.87118 17.7752 7.00152 18.0436 7.43075L20.3578 11.1311C20.423 11.2337 20.4682 11.3502 20.4883 11.4752C20.5038 11.5716 20.5039 11.67 20.4885 11.7665C20.4681 11.8943 20.4214 12.0134 20.354 12.1178L18.0391 15.7442L17.9578 15.853Z" fill="currentColor"/>
</svg>
