<svg xmlns="http://www.w3.org/2000/svg" width="20" height="20" viewBox="0 0 20 20">
    <g fill="none" fill-rule="evenodd">
        <path fill="#252729" d="M13.766 4.897c.281.244.348.664.142.987l-.068.09c-.244.282-.664.349-.987.143l-1.849-1.182v10.83l-.007.103c-.051.373-.37.66-.757.66-.422 0-.764-.342-.764-.764V4.92l-1.918 1.2-.1.053c-.342.15-.75.03-.953-.295-.224-.358-.115-.83.242-1.053l3.088-1.93c.024-.016.043-.026.062-.036l.034-.016c.106-.047.22-.068.333-.064.063.002.124.011.183.028.07.02.14.05.204.091l-.047-.028.028.017.019.011 3.024 1.93z" fill="currentColor"/>
    </g>
</svg>
