<svg xmlns="http://www.w3.org/2000/svg" width="20" height="20" viewBox="0 0 20 20" fill="none">
  <path
    fill-rule="evenodd"
    clip-rule="evenodd"
    d="M4.16683 7.04167C4.16683 4.3953 6.31213 2.25 8.9585 2.25C10.2293 2.25 11.4481 2.75483 12.3467 3.65345C13.2453 4.55206 13.7502 5.77084 13.7502 7.04167C13.7502 8.64469 12.963 10.0639 11.7541 10.9337C11.9107 10.9744 12.0651 11.0185 12.2171 11.0657C12.9549 10.4031 13.9305 10 15.0002 10C17.3013 10 19.1668 11.8655 19.1668 14.1667C19.1668 16.4679 17.3013 18.3334 15.0002 18.3334C14.1664 18.3334 13.3898 18.0885 12.7384 17.6667H2.396C1.57171 17.6667 0.833496 17.1563 0.833496 16.3935C0.833496 13.8448 3.06895 11.738 6.16289 10.9337C4.954 10.0639 4.16683 8.64469 4.16683 7.04167ZM9.19717 11.8361C9.96072 11.8535 10.6903 11.9542 11.3676 12.1242C11.0275 12.7277 10.8335 13.4246 10.8335 14.1667C10.8335 14.9955 11.0755 15.7677 11.4926 16.4167H2.396C2.29 16.4167 2.21169 16.399 2.15998 16.3874L2.15996 16.3874L2.15995 16.3874L2.15994 16.3874C2.12334 16.3791 2.10006 16.3739 2.08972 16.38L2.0835 16.3925C2.0835 13.9346 5.12288 11.8333 8.9585 11.8333L9.19717 11.8361ZM11.4628 4.53733C12.127 5.20152 12.5002 6.10236 12.5002 7.04167C12.5002 8.99767 10.9145 10.5833 8.9585 10.5833C7.00249 10.5833 5.41683 8.99767 5.41683 7.04167C5.41683 5.08566 7.00249 3.5 8.9585 3.5C9.89781 3.5 10.7986 3.87314 11.4628 4.53733ZM15.0002 17.197C16.6738 17.197 18.0305 15.8403 18.0305 14.1667C18.0305 12.4931 16.6738 11.1364 15.0002 11.1364C13.3266 11.1364 11.9699 12.4931 11.9699 14.1667C11.9699 15.8403 13.3266 17.197 15.0002 17.197ZM16.7918 12.8017C16.6197 12.6223 16.3359 12.6217 16.1633 12.8012L14.4891 14.5651L13.8495 13.8422C13.6852 13.6565 13.4018 13.6435 13.2216 13.8159C13.0471 13.983 13.037 14.2607 13.1963 14.4407L14.1501 15.5188C14.2301 15.6093 14.3443 15.664 14.4673 15.6667L14.473 15.6668H14.4768C14.5963 15.6668 14.709 15.6174 14.7905 15.5328L16.7918 13.4265C16.9584 13.2528 16.9583 12.9754 16.7918 12.8017Z"
    fill="currentColor"
  />
</svg>
