<svg width="24" height="24" viewBox="0 0 24 24" fill="none" xmlns="http://www.w3.org/2000/svg">
<rect opacity="0.01" width="24" height="24" fill="#D8D8D8"/>
<path fill-rule="evenodd" clip-rule="evenodd" d="M10.8476 1.4329L0.945693 10.0958C0.626936 10.3746 0.444092 10.7775 0.444092 11.2011C0.444092 12.0122 1.1016 12.6697 1.91268 12.6697H2.82539C2.96347 12.6697 3.07539 12.7816 3.07539 12.9197V21.4213C3.07539 22.3878 3.8589 23.1713 4.82539 23.1713H19.2764C20.2429 23.1713 21.0264 22.3878 21.0264 21.4213V12.9213C21.0264 12.7832 21.1383 12.6713 21.2764 12.6713H22.1382C22.5562 12.6713 22.9538 12.4908 23.2291 12.1763C23.7562 11.5738 23.6952 10.658 23.0927 10.1308L13.1523 1.43299C12.4925 0.855703 11.5074 0.855666 10.8476 1.4329ZM12.1645 2.56186L22.003 11.1713H21.2764C20.3099 11.1713 19.5264 11.9548 19.5264 12.9213V21.4213C19.5264 21.5593 19.4145 21.6713 19.2764 21.6713H4.82539C4.68732 21.6713 4.57539 21.5593 4.57539 21.4213V12.9197L4.56959 12.7761C4.49659 11.8768 3.74357 11.1697 2.82539 11.1697L1.99597 11.1693L11.8353 2.56184C11.9296 2.47938 12.0703 2.47939 12.1645 2.56186ZM12.0003 9.42128C10.591 9.42128 9.44846 10.5406 9.44846 11.9213C9.44846 12.8498 9.96516 13.6601 10.7322 14.0913C9.07419 14.4364 7.85137 15.4953 7.12327 17.2233C6.78103 18.0355 7.17567 18.9657 8.0047 19.3009C8.2012 19.3804 8.41172 19.4213 8.62431 19.4213H15.3761C16.2729 19.4213 17 18.709 17 17.8304C17 17.6221 16.9582 17.4159 16.8771 17.2234C16.149 15.4953 14.9263 14.4364 13.2683 14.0913C14.0354 13.6601 14.5521 12.8498 14.5521 11.9213C14.5521 10.5406 13.4096 9.42128 12.0003 9.42128ZM12.0003 10.7849C12.6409 10.7849 13.1602 11.2937 13.1602 11.9213C13.1602 12.5489 12.6409 13.0576 12.0003 13.0576C11.3597 13.0576 10.8404 12.5489 10.8404 11.9213C10.8404 11.2937 11.3597 10.7849 12.0003 10.7849ZM12.0002 15.3304C13.7417 15.3304 14.9007 16.1064 15.5905 17.7436C15.6021 17.7712 15.6081 17.8006 15.6081 17.8304C15.6081 17.9559 15.5042 18.0576 15.3761 18.0576H8.62431C8.59394 18.0576 8.56386 18.0518 8.53579 18.0404C8.41735 17.9925 8.36098 17.8597 8.40986 17.7437C9.09969 16.1064 10.2587 15.3304 12.0002 15.3304Z" fill="currentColor"/>
</svg>
