<svg viewBox="0 0 24 24" fill="currentColor" xmlns="http://www.w3.org/2000/svg">
<path fill-rule="evenodd" clip-rule="evenodd" d="M16.75 3H6.75C5.7835 3 5 3.7835 5 4.75V19.75C5 20.1286 5.12281 20.4971 5.35 20.8C5.9299 21.5732 7.0268 21.7299 7.8 21.15L11.6 18.3C11.6889 18.2333 11.8111 18.2333 11.9 18.3L15.7 21.15C16.0029 21.3772 16.3714 21.5 16.75 21.5C17.7165 21.5 18.5 20.7165 18.5 19.75V4.75C18.5 3.7835 17.7165 3 16.75 3ZM6.75 4.5H16.75C16.8881 4.5 17 4.61193 17 4.75V19.75C17 19.8881 16.8881 20 16.75 20C16.6959 20 16.6433 19.9825 16.6 19.95L12.8 17.1C12.1778 16.6333 11.3222 16.6333 10.7 17.1L6.9 19.95C6.78954 20.0328 6.63284 20.0105 6.55 19.9C6.51754 19.8567 6.5 19.8041 6.5 19.75V4.75C6.5 4.61193 6.61193 4.5 6.75 4.5Z" fill="currentColor"/>
</svg>
