<svg viewBox="0 0 24 24" fill="currentColor" xmlns="http://www.w3.org/2000/svg">
<path fill-rule="evenodd" clip-rule="evenodd" d="M17.5 2C17.8797 2 18.1935 2.28215 18.2432 2.64823L18.25 2.75V4H21C21.5523 4 22 4.44772 22 5V21C22 21.5523 21.5523 22 21 22H3C2.44772 22 2 21.5523 2 21V5C2 4.44772 2.44772 4 3 4H5.75V2.64286C5.75 2.28782 6.08579 2 6.5 2C6.8797 2 7.19349 2.24185 7.24315 2.55563L7.25 2.64286V4H16.75V2.75C16.75 2.33579 17.0858 2 17.5 2ZM20.5 8.5H3.5V20.5H20.5V8.5ZM16 13.75C16.4142 13.75 16.75 14.0858 16.75 14.5C16.75 14.8797 16.4678 15.1935 16.1018 15.2432L16 15.25H8C7.58579 15.25 7.25 14.9142 7.25 14.5C7.25 14.1203 7.53215 13.8065 7.89823 13.7568L8 13.75H16ZM20.5 5.5H3.5V7H20.5V5.5Z" fill="currentColor"/>
</svg>
