<svg viewBox="0 0 32 32" fill="none" xmlns="http://www.w3.org/2000/svg">
<path d="M25.7854 5.29004C27.074 5.29004 28.1192 6.33453 28.1194 7.62305V22.3027C28.1192 23.5911 27.0747 24.6355 25.7864 24.6357H12.4094C12.3498 24.6358 12.2908 24.6523 12.2395 24.6826L7.54419 27.4648C7.1843 27.6781 6.77305 27.7909 6.35474 27.791C5.06618 27.791 4.02093 26.7465 4.02075 25.458V7.62305C4.02091 6.46345 4.86734 5.50119 5.97583 5.32031L6.16235 5.29785L6.29614 5.29199L25.7854 5.29004ZM6.27759 7.29883C6.13058 7.33341 6.02098 7.46554 6.02075 7.62305V25.458C6.02084 25.6419 6.16988 25.7908 6.35376 25.791C6.41349 25.791 6.47228 25.7746 6.52368 25.7441L11.22 22.9619C11.5799 22.7486 11.991 22.6368 12.4094 22.6367H25.7854C25.9695 22.6367 26.1193 22.4868 26.1194 22.3027L26.1184 7.62305C26.1182 7.43929 25.9701 7.29029 25.7864 7.29004L6.41138 7.28809L6.27759 7.29883ZM10.6663 13.333C11.4026 13.333 12.0002 13.9306 12.0002 14.667C12 15.4032 11.4025 16 10.6663 16C9.93019 15.9998 9.33349 15.403 9.33325 14.667C9.33325 13.9307 9.93004 13.3332 10.6663 13.333ZM16.0002 13.333C16.7365 13.3332 17.3333 13.9307 17.3333 14.667C17.333 15.4031 16.7363 15.9998 16.0002 16C15.264 16 14.6665 15.4032 14.6663 14.667C14.6663 13.9306 15.2639 13.333 16.0002 13.333ZM21.3333 13.333C22.0696 13.333 22.6663 13.9306 22.6663 14.667C22.666 15.4032 22.0695 16 21.3333 16C20.597 16 20.0005 15.4032 20.0002 14.667C20.0002 13.9306 20.5969 13.333 21.3333 13.333Z" fill="currentColor"/>
</svg>
