<svg width="24" height="24" viewBox="0 0 24 24" xmlns="http://www.w3.org/2000/svg">
  <path fill-rule="evenodd" clip-rule="evenodd"
    d="M20 5.6C20 4.71634 19.2837 4 18.4 4H5.6C4.71634 4 4 4.71634 4 5.6V18.4C4 19.2837 4.71634 20 5.6 20H18.4C19.2837 20 20 19.2837 20 18.4V5.6ZM5.60014 5.20014H18.4001L18.472 5.20658C18.6586 5.24045 18.8001 5.40377 18.8001 5.60014V18.4001L18.7937 18.472C18.7598 18.6586 18.5965 18.8001 18.4001 18.8001H5.60014L5.52824 18.7937C5.34164 18.7598 5.20014 18.5965 5.20014 18.4001V5.60014L5.20658 5.52824C5.24045 5.34164 5.40377 5.20014 5.60014 5.20014Z"
    fill="currentColor" />
</svg>
