<svg width="24" height="24" viewBox="0 0 24 24" xmlns="http://www.w3.org/2000/svg">
  <path fill-rule="evenodd" clip-rule="evenodd"
    d="M6 4C4.89543 4 4 4.89543 4 6V18C4 19.1046 4.89543 20 6 20H18C19.1046 20 20 19.1046 20 18V6C20 4.89543 19.1046 4 18 4H6ZM17.3387 9.37794C17.6423 9.09607 17.6598 8.62152 17.3779 8.318C17.0961 8.01448 16.6215 7.99694 16.318 8.27881L10.257 13.9075L8.21712 11.8C7.92904 11.5024 7.45423 11.4947 7.1566 11.7828C6.85898 12.0708 6.85124 12.5457 7.13932 12.8433L9.34956 15.1267C9.8227 15.6155 10.5999 15.6362 11.0983 15.1733L17.3387 9.37794Z"
    fill="#FF5537" />
</svg>
