<svg xmlns="http://www.w3.org/2000/svg" width="24" height="24" viewBox="0 0 24 24">
    <g fill="none" fill-rule="evenodd">
        <path fill="currentColor" d="M3.4 8.55c.226-.301.635-.384.956-.21l.094.06 7.4 5.55c.071.053.164.064.243.032l.057-.032 7.4-5.55c.331-.249.802-.181 1.05.15.226.301.191.717-.066.977l-.084.073-7.4 5.55c-.578.433-1.357.464-1.963.093l-.137-.093-7.4-5.55c-.331-.249-.399-.719-.15-1.05z" transform="translate(-811 -200) translate(629 64) translate(0 130.022) translate(182 6.165) matrix(0 1 1 0 .125 -.125)"/>
    </g>
</svg>
