<svg width="40" height="40" viewBox="0 0 40 40" fill="none" xmlns="http://www.w3.org/2000/svg">
<g id="Icon&#239;&#189;&#156;System, Social">
<g id="Combined Shape">
<path d="M21.9945 9H24.8117C25.468 9 26 9.53396 26 10.1928C26 10.8516 25.468 11.3855 24.8116 11.3855H21.9945C20.9994 11.3855 20.1898 12.1981 20.1898 13.1968V16.3776H24.2503C24.9068 16.3776 25.4388 16.9115 25.4388 17.5703C25.4388 18.2291 24.9068 18.7631 24.2503 18.7631H20.1898V29.8072C20.1898 30.466 19.6578 31 19.0014 31C18.345 31 17.8129 30.466 17.8129 29.8072V18.7631H15.1884C14.532 18.7631 14 18.2291 14 17.5703C14 16.9115 14.532 16.3776 15.1884 16.3776H17.8129V13.1968C17.8129 10.8827 19.6888 9 21.9945 9Z" fill="currentColor"/>
<path fill-rule="evenodd" clip-rule="evenodd" d="M20 0C31.0457 0 40 8.9543 40 20C40 31.0457 31.0457 40 20 40C8.9543 40 0 31.0457 0 20C0 8.9543 8.9543 0 20 0ZM20 2.5C10.335 2.5 2.5 10.335 2.5 20C2.5 29.665 10.335 37.5 20 37.5C29.665 37.5 37.5 29.665 37.5 20C37.5 10.335 29.665 2.5 20 2.5Z" fill="currentColor"/>
</g>
</g>
</svg>
