<svg viewBox="0 0 24 24" fill="currentColor" xmlns="http://www.w3.org/2000/svg">
<path fill-rule="evenodd" clip-rule="evenodd" d="M12 22.5C17.799 22.5 22.5 17.799 22.5 12C22.5 6.20101 17.799 1.5 12 1.5C6.20101 1.5 1.5 6.20101 1.5 12C1.5 17.799 6.20101 22.5 12 22.5ZM12 24C18.6274 24 24 18.6274 24 12C24 5.37258 18.6274 0 12 0C5.37258 0 0 5.37258 0 12C0 18.6274 5.37258 24 12 24Z" fill="currentColor"/>
<path fill-rule="evenodd" clip-rule="evenodd" d="M12 5.55005C9.1005 5.55005 6.75 7.90055 6.75 10.8C6.75 11.7575 7.00564 12.6531 7.4519 13.4245C7.62715 13.7275 7.83191 14.0114 8.0623 14.2725C8.3364 14.583 8.30685 15.057 7.9963 15.3311C7.68575 15.6052 7.21179 15.5756 6.9377 15.2651C6.64194 14.93 6.37886 14.5652 6.15349 14.1756C5.57872 13.182 5.25 12.0283 5.25 10.8C5.25 7.07213 8.27208 4.05005 12 4.05005C15.7279 4.05005 18.75 7.07213 18.75 10.8C18.75 12.0283 18.4213 13.182 17.8465 14.1756C17.6211 14.5652 17.3581 14.93 17.0623 15.2651C16.7882 15.5756 16.3143 15.6052 16.0037 15.3311C15.6931 15.057 15.6636 14.583 15.9377 14.2725C16.1681 14.0114 16.3729 13.7275 16.5481 13.4245C16.9944 12.6531 17.25 11.7575 17.25 10.8C17.25 7.90055 14.8995 5.55005 12 5.55005Z" fill="currentColor"/>
<path fill-rule="evenodd" clip-rule="evenodd" d="M15.2002 10.75C15.2002 12.5449 13.7451 14 11.9502 14C10.1553 14 8.7002 12.5449 8.7002 10.75C8.7002 8.95507 10.1553 7.5 11.9502 7.5C13.7451 7.5 15.2002 8.95507 15.2002 10.75ZM11.9502 12.2721C12.7909 12.2721 13.4723 11.5907 13.4723 10.75C13.4723 9.90934 12.7909 9.22786 11.9502 9.22786C11.1095 9.22786 10.4281 9.90934 10.4281 10.75C10.4281 11.5907 11.1095 12.2721 11.9502 12.2721Z" fill="currentColor"/>
<path fill-rule="evenodd" clip-rule="evenodd" d="M13.1587 18.7144V15.8572C13.1587 15.226 12.647 14.7144 12.0159 14.7144C11.3847 14.7144 10.873 15.226 10.873 15.8572V18.7144H13.1587ZM12.0159 13.2144C10.5563 13.2144 9.37305 14.3976 9.37305 15.8572V19.4144C9.37305 19.8562 9.73122 20.2144 10.173 20.2144H13.8587C14.3005 20.2144 14.6587 19.8562 14.6587 19.4144V15.8572C14.6587 14.3976 13.4755 13.2144 12.0159 13.2144Z" fill="currentColor"/>
</svg>
