<svg width="16" height="16" viewBox="0 0 16 16" fill="none" xmlns="http://www.w3.org/2000/svg">
<path d="M5.28926 10.0034C5.094 10.1986 5.094 10.5152 5.28926 10.7105C5.46825 10.8895 5.74918 10.9044 5.94517 10.7552L5.99637 10.7105L7.99984 8.70703L10.0033 10.7105C10.1986 10.9058 10.5152 10.9058 10.7104 10.7105C10.8894 10.5315 10.9043 10.2506 10.7552 10.0546L10.7104 10.0034L8.70694 7.99992L10.7104 5.99645C10.9057 5.80119 10.9057 5.4846 10.7104 5.28934C10.5314 5.11035 10.2505 5.09544 10.0545 5.2446L10.0033 5.28934L7.99984 7.29281L5.99637 5.28934C5.80111 5.09408 5.48452 5.09408 5.28926 5.28934C5.11027 5.46833 5.09536 5.74927 5.24451 5.94525L5.28926 5.99645L7.29273 7.99992L5.28926 10.0034Z" fill="currentColor"/>
<path fill-rule="evenodd" clip-rule="evenodd" d="M3.28579 12.714C0.682297 10.1105 0.682296 5.88937 3.28579 3.28587C5.88929 0.682378 10.1104 0.682378 12.7139 3.28587C15.3174 5.88937 15.3174 10.1105 12.7139 12.714C10.1104 15.3175 5.88929 15.3175 3.28579 12.714ZM12.0068 3.99298C9.7938 1.78001 6.20587 1.78001 3.9929 3.99298C1.77993 6.20595 1.77993 9.79389 3.9929 12.0069C6.20587 14.2198 9.7938 14.2198 12.0068 12.0069C14.2197 9.79389 14.2197 6.20595 12.0068 3.99298Z" fill="currentColor"/>
</svg>
