<svg viewBox="0 0 24 24" fill="currentColor" xmlns="http://www.w3.org/2000/svg">
<path d="M19.25 12.5C19.25 12.0858 18.9142 11.75 18.5 11.75H15L14.8982 11.7568C14.5322 11.8065 14.25 12.1203 14.25 12.5C14.25 12.9142 14.5858 13.25 15 13.25H18.5L18.6018 13.2432C18.9678 13.1935 19.25 12.8797 19.25 12.5Z" fill="currentColor"/>
<path fill-rule="evenodd" clip-rule="evenodd" d="M22 5.5C22 4.94772 21.5523 4.5 21 4.5H3C2.44772 4.5 2 4.94772 2 5.5V18.5C2 19.0523 2.44772 19.5 3 19.5H21C21.5523 19.5 22 19.0523 22 18.5V5.5ZM3.5 6H20.5V8.75H3.5V6ZM3.5 10.25H20.5V18H3.5V10.25Z" fill="currentColor"/>
</svg>
