<svg width="25" height="24" viewBox="0 0 25 24" fill="currentColor" xmlns="http://www.w3.org/2000/svg">
<g id="Icon/facility icon">
<path id="Union" fill-rule="evenodd" clip-rule="evenodd" d="M13.7099 1C13.3701 1 13.087 1.26045 13.0587 1.59908L12.413 9.33175C12.4114 9.34984 12.4107 9.36799 12.4107 9.38614C12.4107 10.3755 12.7081 11.6031 13.573 12.5932C14.3154 13.4432 15.4279 14.0631 16.9853 14.2374V18.7525H16.5495C16.5421 18.7525 16.5348 18.7526 16.5275 18.7529C15.9894 18.1542 15.4385 17.5467 14.9041 16.9653C14.1119 16.1035 13.3526 15.2953 12.7235 14.657C12.1152 14.0397 11.577 13.5268 11.2486 13.3079C10.0471 12.5069 8.39947 12.3269 7.72772 12.3269H3.15347C2.79257 12.3269 2.5 12.6194 2.5 12.9803V19.7328C2.5 20.9619 2.79159 21.8553 3.4612 22.4032C4.10128 22.9269 4.93644 23.0001 5.65842 23.0001H18.8366C19.0928 23.0001 19.3253 22.8505 19.4314 22.6173C19.5375 22.3841 19.4976 22.1105 19.3293 21.9174C18.8718 21.3924 18.309 20.7519 17.6943 20.0594H21.2327C21.5936 20.0594 21.8861 19.7669 21.8861 19.406C21.8861 19.0451 21.5936 18.7525 21.2327 18.7525H18.2923V14.2781C20.1423 14.1897 21.3216 13.4605 22.0182 12.4534C22.7316 11.4221 22.8661 10.2021 22.8661 9.38614C22.8661 9.36799 22.8654 9.34984 22.8639 9.33175L22.2181 1.59908C22.1898 1.26045 21.9067 1 21.5669 1H13.7099ZM14.1292 4.48533L14.3111 2.30693H20.9657L21.1476 4.48533H14.1292ZM14.02 5.79226L13.7177 9.41227C13.723 10.16 13.9546 11.0436 14.5573 11.7335C15.1503 12.4125 16.169 12.9802 17.9075 12.9802C19.623 12.9802 20.4817 12.3773 20.9434 11.7099C21.4293 11.0075 21.5561 10.1174 21.5591 9.41268L21.2568 5.79226H14.02ZM3.80693 14.4487V19.7328C3.80693 20.7909 4.0599 21.2044 4.2888 21.3917C4.54723 21.6031 4.96455 21.6932 5.65842 21.6932H11.0514L3.80693 14.4487ZM4.84028 13.6338L10.2469 19.0404C10.3157 18.6901 10.6245 18.4259 10.995 18.4259C11.416 18.4259 11.7573 18.7672 11.7573 19.1883C11.7573 19.5587 11.4931 19.8675 11.1428 19.9363L12.8997 21.6932H14.1612C14.1561 21.6575 14.1535 21.6211 14.1535 21.584C14.1535 21.163 14.4948 20.8216 14.9159 20.8216C15.3369 20.8216 15.6782 21.163 15.6782 21.584C15.6782 21.6211 15.6756 21.6575 15.6705 21.6932H17.3947C16.3734 20.5347 15.1167 19.1278 13.9419 17.8498C13.547 17.4201 13.1621 17.0059 12.7991 16.6212C12.6915 16.9117 12.412 17.1188 12.084 17.1188C11.663 17.1188 11.3216 16.7775 11.3216 16.3564C11.3216 16.0176 11.5427 15.7303 11.8485 15.6311L11.7926 15.5743C11.1582 14.9306 10.718 14.5249 10.5237 14.3953C9.63406 13.8023 8.2903 13.6338 7.72772 13.6338H4.84028ZM9.57898 15.485C9.57898 15.9061 9.23765 16.2474 8.8166 16.2474C8.39555 16.2474 8.05422 15.9061 8.05422 15.485C8.05422 15.064 8.39555 14.7226 8.8166 14.7226C9.23765 14.7226 9.57898 15.064 9.57898 15.485Z" fill="currentColor"/>
</g>
</svg>
