<svg viewBox="0 0 24 24" fill="currentColor" xmlns="http://www.w3.org/2000/svg">
<path fill-rule="evenodd" clip-rule="evenodd" d="M15.4002 11.905C15.0002 11.905 14.6742 12.229 14.6742 12.63V20.229H12.5242V9.929C12.5232 9.529 12.2002 9.206 11.7992 9.205C11.3992 9.206 11.0752 9.529 11.0752 9.929V20.229H8.9242V12.63C8.9232 12.229 8.6002 11.906 8.2002 11.905C7.7992 11.906 7.47519 12.229 7.47519 12.63V20.229H5.7742V6.38H17.8252V20.229H16.1252V12.63C16.1252 12.229 15.7992 11.905 15.4002 11.905ZM12.0252 3.455C13.2142 3.456 14.2322 3.881 14.7602 4.929H9.2892C9.8172 3.877 10.8362 3.456 12.0252 3.455ZM20.1252 4.929H16.2952C15.6132 3.166 13.9192 2 12.0252 2C10.1312 2 8.4362 3.166 7.7542 4.929H3.9242C3.5242 4.929 3.2002 5.254 3.2002 5.655C3.2002 6.054 3.5242 6.38 3.9242 6.38H4.3252V20.279C4.3252 21.052 4.9522 21.679 5.7242 21.679H17.8752C18.6472 21.679 19.2742 21.052 19.2742 20.279V6.38H20.1252C20.5252 6.38 20.8492 6.054 20.8492 5.655C20.8492 5.254 20.5252 4.929 20.1252 4.929Z" fill="currentColor"/>
</svg>
