<svg width="16" height="16" viewBox="0 0 16 16" fill="none" xmlns="http://www.w3.org/2000/svg">
<path fill-rule="evenodd" clip-rule="evenodd" d="M8.26662 14.1712L8.31211 14.1262L14.2587 7.65115C14.4357 7.45845 14.4836 7.18004 14.3812 6.93928L12.7365 3.07248C12.6319 2.82646 12.3904 2.66675 12.123 2.66675H3.53753C3.26453 2.66675 3.01911 2.8332 2.91814 3.08685L1.38066 6.94906C1.28695 7.18448 1.33479 7.45267 1.50412 7.64116L7.32516 14.1208C7.57122 14.3947 7.99273 14.4172 8.26662 14.1712ZM2.56562 6.67524H4.96071L3.52116 4.276L2.56562 6.67524ZM5.83946 6.19618L7.35712 3.66675H4.3218L5.83946 6.19618ZM6.71821 6.67524H9.09404L7.90613 4.69539L6.71821 6.67524ZM9.90613 6.08507L11.3571 3.66675H8.45514L9.90613 6.08507ZM10.7182 6.67524H13.1816L12.1596 4.27287L10.7182 6.67524ZM12.8788 7.67524L9.24572 11.6311L10.4325 7.67524H12.8788ZM7.9938 12.3241L9.38845 7.67524H6.59915L7.9938 12.3241ZM6.89738 12.1494L5.55512 7.67524H2.87848L6.89738 12.1494Z" fill="currentColor"/>
</svg>
