<svg viewBox="0 0 27 27" fill="none" xmlns="http://www.w3.org/2000/svg">
<path d="M12.8542 22.3542H10.9504C10.0165 19.9236 10.0165 17.4931 10.9504 15.0625H12.8542C12.1194 17.4931 12.1194 19.9236 12.8542 22.3542Z" fill="white" stroke="#3A3A3A" stroke-width="0.5" stroke-miterlimit="10" stroke-linecap="round" stroke-linejoin="round"/>
<path d="M8.36985 11.2166L7.1381 12.5354C4.94132 11.6811 3.34894 10.1796 2.36096 8.03074L3.59271 6.71199C4.70993 8.7233 6.30231 10.2248 8.36985 11.2166Z" fill="white" stroke="#3A3A3A" stroke-width="0.5" stroke-miterlimit="10" stroke-linecap="round" stroke-linejoin="round"/>
<path d="M17.0192 22.3542H15.1154C14.1816 19.9236 14.1816 17.4931 15.1154 15.0625H17.0192C16.2845 17.4931 16.2845 19.9236 17.0192 22.3542Z" fill="white" stroke="#3A3A3A" stroke-width="0.5" stroke-miterlimit="10" stroke-linecap="round" stroke-linejoin="round"/>
<path d="M22.2212 10.6113C22.1464 11.2434 21.3932 11.7082 21.1888 12.2845C20.9769 12.8788 21.2617 13.7131 20.9305 14.2327C20.5937 14.7608 19.7127 14.8544 19.2709 15.2899C18.8271 15.7274 18.7211 16.6041 18.1912 16.9329C17.6642 17.2598 16.8306 16.966 16.2373 17.1701C15.6535 17.3703 15.1785 18.1158 14.5502 18.1829C13.9418 18.2471 13.3211 17.6217 12.688 17.5461C12.055 17.4714 11.3047 17.9344 10.7284 17.7294C10.1333 17.5177 9.84656 16.6816 9.32614 16.3509C8.79721 16.0146 7.91817 16.1053 7.48197 15.6641C7.04387 15.2209 7.14701 14.3432 6.81772 13.8141C6.49033 13.2879 5.65672 12.9903 5.45234 12.3988C5.25174 11.8159 5.7239 11.0714 5.65766 10.4441C5.59332 9.83656 4.97071 9.20827 5.04641 8.5762C5.12116 7.94414 5.87435 7.4793 6.07873 6.90297C6.29068 6.3087 6.00587 5.47444 6.33705 4.95481C6.6739 4.42667 7.55483 4.33313 7.99671 3.89758C8.44048 3.46014 8.54646 2.58337 9.07634 2.25458C9.60338 1.92769 10.437 2.22152 11.0303 2.01744C11.6141 1.81715 12.0891 1.0717 12.7174 1.00462C13.3258 0.940376 13.9465 1.56583 14.5795 1.64141C15.2125 1.71605 15.9629 1.2531 16.5391 1.45812C17.1343 1.66976 17.421 2.5059 17.9414 2.83658C18.4704 3.17292 19.3494 3.08222 19.7856 3.52344C20.2237 3.96655 20.1206 4.84427 20.4498 5.37335C20.7772 5.8996 21.6109 6.19721 21.8152 6.78865C22.0158 7.37159 21.5437 8.11609 21.6099 8.74343C21.6742 9.35093 22.2969 9.97922 22.2212 10.6113Z" fill="#F48120" stroke="#3A3A3A" stroke-width="0.5" stroke-miterlimit="10" stroke-linecap="round" stroke-linejoin="round"/>
<path d="M13.1607 9.39748C13.4662 9.39748 13.7139 9.14979 13.7139 8.84425C13.7139 8.53871 13.4662 8.29102 13.1607 8.29102C12.8551 8.29102 12.6074 8.53871 12.6074 8.84425C12.6074 9.14979 12.8551 9.39748 13.1607 9.39748Z" fill="white" stroke="#3A3A3A" stroke-width="0.5" stroke-miterlimit="10" stroke-linecap="round" stroke-linejoin="round"/>
<path d="M15.4141 8.28125L14.6543 8.70178L15.3281 9.12231" stroke="#3A3A3A" stroke-width="0.5" stroke-miterlimit="10" stroke-linecap="round" stroke-linejoin="round"/>
<path d="M10.917 8.28125L11.6768 8.70178L11.003 9.12231" stroke="#3A3A3A" stroke-width="0.5" stroke-miterlimit="10" stroke-linecap="round" stroke-linejoin="round"/>
<path d="M12.6407 22.5967H10.8508C10.8218 22.5967 10.7927 22.5994 10.7637 22.6013C10.5086 22.4457 10.2127 22.3545 9.89595 22.3545C8.94018 22.3545 8.16504 23.1676 8.16504 24.1705C8.16504 24.6816 8.38651 25.1798 8.75684 25.5251C9.21974 25.9561 9.9014 25.9994 10.4977 26.0003C11.2121 26.0012 11.9264 25.9865 12.6407 25.9865C13.3333 25.9865 13.8942 25.4174 13.8942 24.7147V23.8675C13.8942 23.1658 13.3333 22.5967 12.6407 22.5967Z" fill="#F22735" stroke="#3A3A3A" stroke-width="0.5" stroke-miterlimit="10" stroke-linecap="round" stroke-linejoin="round"/>
<path d="M16.8077 22.5967H15.0178C14.9888 22.5967 14.9597 22.5994 14.9307 22.6013C14.6756 22.4457 14.3797 22.3545 14.0629 22.3545C13.1072 22.3545 12.332 23.1676 12.332 24.1705C12.332 24.6816 12.5535 25.1798 12.9238 25.5251C13.3867 25.9561 14.0684 25.9994 14.6647 26.0003C15.3791 26.0012 16.0934 25.9865 16.8077 25.9865C17.5003 25.9865 18.0612 25.4174 18.0612 24.7147V23.8675C18.0612 23.1658 17.5003 22.5967 16.8077 22.5967Z" fill="#F22735" stroke="#3A3A3A" stroke-width="0.5" stroke-miterlimit="10" stroke-linecap="round" stroke-linejoin="round"/>
<path d="M10.25 19.75H12.3333" stroke="#3A3A3A" stroke-width="0.5" stroke-miterlimit="10" stroke-linecap="round" stroke-linejoin="round"/>
<path d="M14.415 19.75H15.9775" stroke="#3A3A3A" stroke-width="0.5" stroke-miterlimit="10" stroke-linecap="round" stroke-linejoin="round"/>
<path d="M0.809773 7.66082C0.89401 7.51559 1.04045 7.45686 1.17905 7.36694C1.03882 7.21282 0.893445 7.08893 0.834403 6.87869C0.773101 6.66154 0.848258 6.43875 1.07437 6.36412C1.23239 6.31192 1.40254 6.34473 1.56235 6.38808C1.47357 6.36436 1.31836 5.98995 1.29799 5.90712C1.24904 5.70569 1.30002 5.50929 1.50819 5.43261C1.76847 5.33709 2.04829 5.56356 2.25205 5.75732C2.10415 5.61659 2.07602 5.25423 2.11806 5.06279C2.16009 4.87135 2.32667 4.71307 2.52536 4.68872C2.76799 4.65967 3.00833 4.82545 3.13658 5.03569C3.26484 5.24592 3.30234 5.49405 3.32877 5.73489C3.4602 5.49382 3.73627 5.3295 4.02171 5.34056C4.09696 5.34344 4.17356 5.35807 4.23888 5.39672C4.36874 5.47351 4.43132 5.63184 4.43007 5.77854C4.42643 6.18399 4.19069 6.68182 4.0322 7.04501C3.85344 7.45452 3.61634 7.84407 3.27641 8.13991C2.82074 8.53746 2.27007 8.65013 1.67024 8.46686C1.41803 8.38981 1.12326 8.34983 0.904818 8.1887C0.708837 8.04345 0.711472 7.83258 0.809773 7.66082Z" fill="white" stroke="#3A3A3A" stroke-width="0.5" stroke-miterlimit="10" stroke-linecap="round" stroke-linejoin="round"/>
<path d="M11.8125 9.85449C11.8125 11.2434 14.4167 11.2434 14.4167 9.85449" stroke="#3A3A3A" stroke-width="0.5" stroke-miterlimit="10" stroke-linecap="round" stroke-linejoin="round"/>
<path d="M19.0614 11.5764C19.33 11.8002 19.742 11.8208 20.0834 11.6313C21.7174 10.7235 22.9566 9.48635 23.8004 7.91893C23.9769 7.59156 23.9171 7.21827 23.6494 6.99404C23.2602 6.66951 22.6055 6.78704 22.3 7.23886C21.4844 8.44796 20.4541 9.47715 19.2075 10.3273C18.7416 10.6458 18.6725 11.2527 19.0614 11.5764Z" fill="white" stroke="#3A3A3A" stroke-width="0.5" stroke-miterlimit="10" stroke-linecap="round" stroke-linejoin="round"/>
<path d="M26.1587 7.6366C26.0589 7.48981 25.9055 7.43598 25.7568 7.34898C25.8799 7.18308 26.013 7.04858 26.0498 6.82842C26.088 6.60018 25.9889 6.37316 25.754 6.30532C25.5893 6.25804 25.4237 6.29952 25.2674 6.35147C25.354 6.3225 25.4695 5.92806 25.4807 5.8417C25.5087 5.63113 25.4351 5.42908 25.2192 5.35959C24.9479 5.27204 24.6919 5.51909 24.509 5.72872C24.6417 5.5763 24.6313 5.2 24.5686 5.00335C24.5058 4.8067 24.3217 4.65051 24.1199 4.63388C23.874 4.61399 23.65 4.79655 23.5447 5.02095C23.439 5.24449 23.4281 5.50329 23.4276 5.75383C23.2694 5.50952 22.9757 5.35183 22.6906 5.37534C22.6159 5.38156 22.5398 5.40012 22.4788 5.44339C22.3564 5.52907 22.3113 5.69567 22.3284 5.8472C22.3752 6.26667 22.6661 6.773 22.8637 7.14209C23.0865 7.55877 23.3668 7.95086 23.7393 8.24414C24.2391 8.63583 24.8034 8.72908 25.3838 8.51202C25.628 8.42089 25.919 8.3668 26.1207 8.18966C26.3005 8.02732 26.2761 7.80902 26.1587 7.6366Z" fill="white" stroke="#3A3A3A" stroke-width="0.5" stroke-miterlimit="10" stroke-linecap="round" stroke-linejoin="round"/>
</svg>
