<svg width="25" height="24" viewBox="0 0 25 24" fill="none" xmlns="http://www.w3.org/2000/svg">
<g id="Icon&#239;&#189;&#156;System, Social">
<rect id="Rectangle" opacity="0.01" x="0.5" width="24" height="24" fill="#252729"/>
<path id="Combined Shape" fill-rule="evenodd" clip-rule="evenodd" d="M6.31289 8.51455C7.31547 5.87552 9.86811 4 12.8588 4C16.189 4 18.976 6.32549 19.6846 9.44116C21.2162 9.78148 22.4681 11.0114 22.7575 12.6527C23.1411 14.8283 21.6885 16.9029 19.5129 17.2865L19.5117 17.2798C19.4559 17.293 19.3977 17.3 19.3379 17.3C18.9237 17.3 18.5879 16.9642 18.5879 16.55C18.5879 16.1496 18.9016 15.8225 19.2966 15.8011C20.6318 15.5413 21.5175 14.2581 21.2803 12.9132C21.0406 11.5534 19.7439 10.6455 18.3842 10.8853L18.1237 9.40807L18.1248 9.40787C17.4421 7.14663 15.3427 5.5 12.8588 5.5C10.1627 5.5 7.91975 7.43988 7.44949 10H6.96167L6.96135 10.0185C6.19849 9.93891 5.40526 10.15 4.76209 10.6709C3.47447 11.7136 3.27592 13.6026 4.31861 14.8903C4.95784 15.6796 5.91518 16.0597 6.85702 15.9954L6.85692 16.0012C6.87114 16.0004 6.88548 16 6.8999 16C7.31412 16 7.6499 16.3358 7.6499 16.75C7.6499 17.1642 7.31412 17.5 6.8999 17.5C6.87661 17.5 6.85356 17.4989 6.83081 17.4969L6.83078 17.4989C5.46032 17.553 4.0824 16.9821 3.15289 15.8342C1.58886 13.9028 1.88668 11.0692 3.81811 9.50515C4.558 8.906 5.43029 8.58007 6.31289 8.51455ZM12.3935 21.5102L12.5252 21.5174L12.6066 21.5102L12.7096 21.488L12.8074 21.452L12.8731 21.4186L12.9477 21.3695L12.9966 21.3297L14.9966 19.562L15.0743 19.4825C15.3098 19.2028 15.3112 18.7854 15.0619 18.5033C14.7875 18.1929 14.3136 18.1637 14.0032 18.438L13.2499 19.103V15L13.2431 14.8982C13.1934 14.5322 12.8796 14.25 12.4999 14.25C12.0857 14.25 11.7499 14.5858 11.7499 15V19.104L10.9966 18.438L10.9082 18.3707C10.6017 18.1714 10.1873 18.2212 9.93795 18.5033C9.66363 18.8137 9.69285 19.2876 10.0032 19.562L12.0032 21.3297L12.0916 21.397L12.1924 21.452L12.259 21.4782L12.3258 21.4973L12.3935 21.5102Z" fill="currentColor"/>
</g>
</svg>
