<svg width="24" height="24" viewBox="0 0 24 24" fill="none" xmlns="http://www.w3.org/2000/svg">
  <circle cx="12" cy="12.0001" r="11.5" fill="white" stroke="#C1C1C2" />
  <circle cx="12" cy="12.0001" r="12" fill="#FEF1F1" />
  <path
    d="M7.91615 11.6377C8.74504 10.0204 10.3624 8.86803 12.2425 8.64564C12.8086 8.42326 13.2129 7.87741 13.2129 7.23048C13.2129 6.4016 12.5458 5.71423 11.6967 5.71423C11.6562 5.71423 11.6158 5.71423 11.5754 5.71423C11.3732 4.96621 10.6656 4.40015 9.85696 4.40015C9.02808 4.40015 8.34071 4.96621 8.13854 5.71423C8.05768 5.69401 7.99702 5.69401 7.91615 5.69401C7.08727 5.69401 6.3999 6.36116 6.3999 7.21026C6.3999 8.03915 7.06705 8.72651 7.91615 8.72651V11.6377Z"
    fill="#FFA400" />
  <path
    d="M16.4275 10.9099C15.5784 9.83841 14.325 9.27234 12.7885 9.27234C10.0188 9.27234 7.93652 11.476 7.93652 14.3872V14.4276C7.93652 17.359 10.0997 19.502 13.0513 19.502C14.7293 19.502 15.9423 18.8753 16.9127 17.6623L17.034 17.5005L15.2145 16.0247L14.9113 16.328C14.2037 16.9749 13.7387 17.0962 12.9098 17.0962C11.9799 17.0962 10.8073 16.4088 10.5243 15.4991H17.5394L17.5597 15.2969C17.5799 15.0543 17.6001 14.7915 17.6001 14.5893C17.5799 13.1539 17.1755 11.8399 16.4275 10.9099ZM10.5243 13.4572L10.5849 13.2348C10.8275 12.224 11.7373 11.577 12.8087 11.577C13.9004 11.577 14.8304 12.224 15.0124 13.2348L15.0528 13.437H10.5243V13.4572Z"
    fill="#F32735" />
</svg>
