<svg viewBox="0 0 24 24" fill="currentColor" xmlns="http://www.w3.org/2000/svg">
<path d="M11.0938 6H6C5.44772 6 5 6.44772 5 7V18C5 18.5523 5.44772 19 6 19H17C17.5523 19 18 18.5523 18 18V12.5" stroke="currentColor" stroke-width="1.5" stroke-linecap="round"/>
<path fill-rule="evenodd" clip-rule="evenodd" d="M15.8179 3.00314L15.9186 3.01932L19.4023 3.82217L19.505 3.85369C19.7037 3.93068 19.8605 4.08899 19.9357 4.28841L19.9662 4.39135L20.7256 7.83161L20.7416 7.94158C20.7647 8.26982 20.5689 8.57657 20.2614 8.69381L20.1549 8.72564L20.045 8.74159C19.7167 8.76467 19.41 8.56885 19.2927 8.2614L19.2609 8.15493L18.7974 6.05143L16.3453 8.50272C16.0524 8.79562 15.5776 8.79562 15.2847 8.50272C15.0184 8.23646 14.9942 7.81979 15.2121 7.52618L15.2847 7.44206L17.7474 4.98043L15.5817 4.48101L15.4756 4.4482C15.1352 4.31478 14.9348 3.94868 15.0193 3.58174C15.1046 3.21174 15.45 2.96932 15.8179 3.00314Z" fill="currentColor"/>
<path d="M18 5.80005L12 11.8" stroke="currentColor" stroke-width="1.5" stroke-linecap="round" stroke-linejoin="round"/>
</svg>
