<svg viewBox="0 0 24 24" fill="currentColor" xmlns="http://www.w3.org/2000/svg">
<path fill-rule="evenodd" clip-rule="evenodd" d="M4.94638 3.89705C4.65277 3.6792 4.23611 3.7034 3.96984 3.96967C3.67695 4.26256 3.67695 4.73744 3.96984 5.03033L5.77635 6.83684C4.14552 7.79946 2.51469 9.14043 0.883855 10.8598L0.547015 11.2203L0.465609 11.321C0.21895 11.67 0.219651 12.1443 0.480671 12.4948C3.71018 16.8316 7.42893 19 11.6369 19C13.4032 19 15.122 18.6179 16.7934 17.8538L18.9698 20.0303L19.054 20.1029C19.3476 20.3208 19.7642 20.2966 20.0305 20.0303C20.3234 19.7374 20.3234 19.2626 20.0305 18.9697L18.1841 17.1233C19.8863 16.1114 21.5377 14.6903 23.1382 12.86L23.4443 12.5041L23.5188 12.4041C23.7663 12.0253 23.7298 11.5195 23.4157 11.1794C19.6105 7.05981 15.8053 5 12.0002 5C10.3895 5 8.77876 5.36907 7.16805 6.10722L5.0305 3.96967L4.94638 3.89705ZM6.87475 7.93524C5.37015 8.76951 3.84598 9.97112 2.30188 11.5495L1.93517 11.93L1.94615 11.9448C4.75432 15.5773 7.85614 17.3886 11.3119 17.495L11.6369 17.5C12.9991 17.5 14.3366 17.2392 15.6515 16.712L14.2484 15.3089C13.6077 15.745 12.8337 16 12.0002 16C9.79103 16 8.00017 14.2091 8.00017 12C8.00017 11.1665 8.25512 10.3925 8.69129 9.75178L6.87475 7.93524ZM9.75196 8.69112L8.30926 7.24843C9.55303 6.74765 10.7833 6.5 12.0002 6.5L12.3035 6.50513C15.441 6.61109 18.6681 8.36115 21.9919 11.8538L22.0082 11.871L21.7001 12.2201C20.1919 13.887 18.6552 15.1522 17.0865 16.0256L15.309 14.2482C15.7452 13.6075 16.0002 12.8335 16.0002 12C16.0002 9.79086 14.2093 8 12.0002 8C11.1666 8 10.3927 8.25495 9.75196 8.69112ZM9.78312 10.8436C9.60238 11.1894 9.50017 11.5828 9.50017 12C9.50017 13.3807 10.6195 14.5 12.0002 14.5C12.4174 14.5 12.8108 14.3978 13.1566 14.2171L9.78312 10.8436ZM14.2172 13.1564L10.8438 9.78295C11.1896 9.60221 11.5829 9.5 12.0002 9.5C13.3809 9.5 14.5002 10.6193 14.5002 12C14.5002 12.4172 14.398 12.8106 14.2172 13.1564Z" fill="currentColor"/>
</svg>
