<svg viewBox="0 0 24 24" fill="currentColor" xmlns="http://www.w3.org/2000/svg">
<path fill-rule="evenodd" clip-rule="evenodd" d="M12.0002 8C14.2093 8 16.0002 9.79086 16.0002 12C16.0002 14.2091 14.2093 16 12.0002 16C9.79103 16 8.00017 14.2091 8.00017 12C8.00017 9.79086 9.79103 8 12.0002 8ZM12.0002 9.5C10.6195 9.5 9.50017 10.6193 9.50017 12C9.50017 13.3807 10.6195 14.5 12.0002 14.5C13.3809 14.5 14.5002 13.3807 14.5002 12C14.5002 10.6193 13.3809 9.5 12.0002 9.5Z" fill="currentColor"/>
<path fill-rule="evenodd" clip-rule="evenodd" d="M12.0002 5C15.8053 5 19.6105 7.05981 23.4157 11.1794C23.7298 11.5195 23.7663 12.0253 23.5188 12.4041L23.4443 12.5041L23.1382 12.86C19.5589 16.9533 15.7251 19 11.6369 19C7.42893 19 3.71018 16.8316 0.480671 12.4948C0.219651 12.1443 0.21895 11.67 0.465609 11.321L0.547015 11.2203L0.883855 10.8598C4.58929 6.95325 8.29473 5 12.0002 5ZM12.0002 6.5C8.85747 6.5 5.62583 8.15173 2.30188 11.5495L1.93517 11.93L1.94615 11.9448C4.75432 15.5773 7.85614 17.3886 11.3119 17.495L11.6369 17.5C15.1433 17.5 18.4864 15.772 21.7001 12.2201L22.0082 11.871L21.9919 11.8538C18.6681 8.36115 15.441 6.61109 12.3035 6.50513L12.0002 6.5Z" fill="currentColor"/>
</svg>
