<svg viewBox="0 0 24 24" fill="currentColor" xmlns="http://www.w3.org/2000/svg">
<path fill-rule="evenodd" clip-rule="evenodd" d="M9.81562 7.60495C9.9847 6.9002 10.2766 6.28039 10.691 5.74521C11.1053 5.21029 11.6635 4.78571 12.3655 4.47136C13.0675 4.15734 13.9432 4 14.9932 4C15.3488 4 15.7001 4.0214 16.0475 4.06385C16.3945 4.1063 16.712 4.17018 17 4.25508L16.7206 7.56972C16.5682 7.51901 16.3903 7.47659 16.187 7.44267C15.9838 7.40877 15.7806 7.39163 15.5773 7.39163C15.1879 7.39163 14.8744 7.45978 14.6373 7.59538C14.4002 7.73099 14.2147 7.91393 14.0784 8.14244C13.8468 8.53095 13.7534 9.06905 13.7229 9.77071H16.6827V13.0714H13.7229V20.7115H9.56215V13.0714H8V9.77071H9.56215C9.58833 8.44735 9.81562 7.60495 9.81562 7.60495Z" fill="currentColor"/>
</svg>
