<svg xmlns="http://www.w3.org/2000/svg" width="16" height="16" viewBox="0 0 16 16">
    <g fill="none" fill-rule="evenodd">
        <path fill="currentColor" d="M12.667 1.667c.368 0 .666.298.666.666v11.334c0 .368-.298.666-.666.666H3.333c-.368 0-.666-.298-.666-.666V4.585c0-.199.074-.39.208-.538L4.84 1.885c.126-.14.305-.218.493-.218h7.333zm-.334 1H5.481L3.667 4.66v8.672h8.666V2.667zm-2.087 7.266c.232 0 .42.224.42.5 0 .253-.158.463-.363.496l-.057.004H5.754c-.232 0-.42-.224-.42-.5 0-.253.158-.462.363-.495l.057-.005h4.492zm0-2.466c.232 0 .42.224.42.5 0 .253-.158.462-.363.495l-.057.005H5.754c-.232 0-.42-.224-.42-.5 0-.253.158-.463.363-.496l.057-.004h4.492zm0-2.467c.232 0 .42.224.42.5 0 .253-.158.462-.363.495L10.246 6H5.754c-.232 0-.42-.224-.42-.5 0-.253.158-.462.363-.495L5.754 5h4.492z"/>
    </g>
</svg>
