<svg width="24" height="24" viewBox="0 0 24 24" fill="none" xmlns="http://www.w3.org/2000/svg">
<path fill-rule="evenodd" clip-rule="evenodd" d="M6.8753 4.65198C7.4413 4.65298 7.8993 5.11098 7.9003 5.67698C7.8993 6.24298 7.4413 6.70098 6.8753 6.70198C6.3093 6.70098 5.8513 6.24298 5.8503 5.67698C5.8513 5.11098 6.3093 4.65298 6.8753 4.65198ZM3.2753 6.45198H4.4253C4.7613 7.51998 5.7473 8.25398 6.8733 8.25398C7.9983 8.25398 8.9843 7.51998 9.3203 6.45198H20.8253C21.2533 6.45198 21.5993 6.10498 21.5993 5.67698C21.5993 5.24898 21.2533 4.90198 20.8253 4.90198H9.3243C8.9893 3.83498 8.0023 3.09998 6.8773 3.09998C5.7523 3.09998 4.7653 3.83498 4.4303 4.90198H3.2753C2.8473 4.90198 2.5003 5.24898 2.5003 5.67698C2.5003 6.10498 2.8473 6.45198 3.2753 6.45198ZM13.075 12.2019C13.074 12.7679 12.617 13.2259 12.05 13.2269C11.484 13.2259 11.026 12.7679 11.025 12.2019C11.026 11.6359 11.484 11.1779 12.05 11.1769C12.617 11.1779 13.074 11.6359 13.075 12.2019ZM20.825 11.2019H14.417C14.017 10.2489 13.088 9.62288 12.05 9.62288C11.012 9.62288 10.083 10.2489 9.683 11.2019H3.275C2.847 11.2019 2.5 11.5489 2.5 11.9769C2.5 12.4049 2.847 12.7519 3.275 12.7519H9.545C9.806 13.9259 10.843 14.7679 12.053 14.7679C13.262 14.7679 14.299 13.9259 14.56 12.7519H20.825C21.254 12.7519 21.599 12.4049 21.599 11.9769C21.599 11.5489 21.254 11.2019 20.825 11.2019ZM16.2004 18.2775C16.2014 18.8425 16.6604 19.3015 17.2254 19.3025C17.7904 19.3015 18.2494 18.8425 18.2504 18.2775C18.2494 17.7115 17.7904 17.2525 17.2254 17.2515C16.6604 17.2525 16.2014 17.7115 16.2004 18.2775ZM19.6744 17.5025H20.8254C21.2524 17.5025 21.5994 17.8495 21.5994 18.2775C21.5994 18.7055 21.2524 19.0515 20.8254 19.0515H19.6704C19.3344 20.1195 18.3484 20.8535 17.2224 20.8535C16.0974 20.8535 15.1114 20.1195 14.7754 19.0515H3.2754C2.8474 19.0515 2.5014 18.7055 2.5004 18.2775C2.5014 17.8495 2.8474 17.5025 3.2754 17.5025H14.7804C15.1164 16.4345 16.1024 15.7005 17.2274 15.7005C18.3524 15.7005 19.3394 16.4345 19.6744 17.5025Z" fill="currentColor"/>
</svg>
