<svg width="12" height="12" viewBox="0 0 12 12" fill="none" xmlns="http://www.w3.org/2000/svg">
<path fill-rule="evenodd" clip-rule="evenodd" d="M6.615 1.16565C6.991 0.940145 7.479 0.929145 7.896 1.23065C9.226 2.19265 10.75 3.90815 10.75 6.34115C10.75 8.24465 9.9325 9.46815 8.891 10.2031C8.2515 10.6546 7.5365 10.9161 6.8915 11.0481C6.68233 11.1205 6.46282 11.1585 6.2415 11.1606C6.19017 11.1606 6.13567 11.1585 6.078 11.1541C5.99924 11.1584 5.92038 11.1606 5.8415 11.1606C5.1115 11.1606 4.0315 10.9186 3.127 10.1886C2.2065 9.44565 1.5 8.22415 1.5 6.34115C1.5 4.80265 2.3125 3.76815 3.0775 3.18465C3.2177 3.07345 3.38772 3.00631 3.56607 2.99171C3.74441 2.97712 3.92309 3.01572 4.0795 3.10265C4.3715 3.26215 4.576 3.56965 4.613 3.93065L4.656 4.34915C4.6725 4.51015 4.755 4.64415 4.841 4.70915C4.86806 4.73175 4.90103 4.74615 4.936 4.75065C4.954 4.75215 4.983 4.74965 5.0255 4.72215C5.352 4.50965 5.6 4.12815 5.7665 3.67915C5.9315 3.23415 6 2.76915 6 2.45215V2.29065C6 1.80415 6.247 1.38715 6.615 1.16565ZM6.6905 10.3241C6.49161 10.3625 6.29057 10.3887 6.0885 10.4026C5.8465 10.3776 5.542 10.2956 5.287 10.1206C4.9945 9.92065 4.75 9.58865 4.75 9.00765C4.75 8.30665 5.184 7.77415 5.645 7.43315L5.647 7.45215V7.45765C5.647 7.57165 5.647 7.74415 5.6685 7.92315C5.69 8.10165 5.7355 8.32065 5.8485 8.51315C5.9275 8.64765 6.0485 8.76115 6.213 8.80965C6.3745 8.85715 6.528 8.82715 6.648 8.77065C6.8765 8.66315 7.0395 8.43815 7.108 8.20065C7.314 8.36865 7.5 8.63065 7.5 9.00815C7.5 9.60964 7.2765 9.94314 7.031 10.1351C6.924 10.2191 6.806 10.2806 6.691 10.3241M8.1345 9.79665C8.24483 9.73365 8.35317 9.66498 8.4595 9.59065C9.307 8.99215 10.0005 7.99365 10.0005 6.34115C10.0005 4.24765 8.6895 2.72965 7.457 1.83815C7.2945 1.72115 7.132 1.73065 7.002 1.80865C6.864 1.89165 6.7505 2.06215 6.7505 2.29065V2.45215C6.7505 2.85665 6.667 3.41015 6.4705 3.94015C6.275 4.46615 5.9505 5.01565 5.4345 5.35115C5.0675 5.58965 4.6715 5.52115 4.389 5.30715C4.122 5.10565 3.946 4.77515 3.9105 4.42565L3.8675 4.00665C3.8545 3.88065 3.7865 3.79665 3.7205 3.76115C3.6645 3.73065 3.6035 3.72715 3.533 3.78115C2.8995 4.26465 2.2505 5.09815 2.2505 6.34115C2.2505 8.01365 2.8665 9.01415 3.5985 9.60515C3.797 9.76515 4.007 9.89715 4.219 10.0051C4.0825 9.73015 4.0005 9.40015 4.0005 9.00815C4.0005 7.95615 4.6605 7.22165 5.2245 6.81165C5.33882 6.72618 5.47611 6.67689 5.61868 6.67012C5.76125 6.66335 5.90259 6.6994 6.0245 6.77365C6.2515 6.91065 6.3975 7.16515 6.3975 7.45215C6.3975 7.56965 6.3975 7.70215 6.4135 7.83415C6.41617 7.85548 6.41917 7.87615 6.4225 7.89615C6.5025 7.71165 6.6495 7.56915 6.824 7.49315C7.033 7.40315 7.299 7.40465 7.521 7.57165C7.871 7.83465 8.2505 8.30665 8.2505 9.00815C8.2505 9.30465 8.2085 9.56715 8.1345 9.79715" fill="currentColor"/>
</svg>
