<svg width="40" height="40" viewBox="0 0 40 40" fill="none" xmlns="http://www.w3.org/2000/svg">
<g id="Icon&#239;&#189;&#156;System, Social">
<g id="Combined Shape">
<path fill-rule="evenodd" clip-rule="evenodd" d="M26.9136 20C26.9136 16.1817 23.8183 13.0864 20 13.0864C16.1817 13.0864 13.0864 16.1817 13.0864 20C13.0864 23.8183 16.1817 26.9136 20 26.9136C23.8183 26.9136 26.9136 23.8183 26.9136 20ZM15.679 20C15.679 17.6136 17.6136 15.679 20 15.679C22.3864 15.679 24.321 17.6136 24.321 20C24.321 22.3864 22.3864 24.321 20 24.321C17.6136 24.321 15.679 22.3864 15.679 20Z" fill="currentColor"/>
<path d="M26.4815 14.8148C27.1974 14.8148 27.7778 14.2344 27.7778 13.5185C27.7778 12.8026 27.1974 12.2222 26.4815 12.2222C25.7656 12.2222 25.1852 12.8026 25.1852 13.5185C25.1852 14.2344 25.7656 14.8148 26.4815 14.8148Z" fill="currentColor"/>
<path fill-rule="evenodd" clip-rule="evenodd" d="M31.6667 11.358C31.6667 9.68753 30.3125 8.33333 28.642 8.33333H11.358C9.68753 8.33333 8.33333 9.68753 8.33333 11.358V28.642C8.33333 30.3125 9.68753 31.6667 11.358 31.6667H28.642C30.3125 31.6667 31.6667 30.3125 31.6667 28.642V11.358ZM10.9259 11.358C10.9259 11.1194 11.1194 10.9259 11.358 10.9259H28.642C28.8806 10.9259 29.0741 11.1194 29.0741 11.358V28.642C29.0741 28.8806 28.8806 29.0741 28.642 29.0741H11.358C11.1194 29.0741 10.9259 28.8806 10.9259 28.642V11.358Z" fill="currentColor"/>
<path fill-rule="evenodd" clip-rule="evenodd" d="M20 0C31.0457 0 40 8.9543 40 20C40 31.0457 31.0457 40 20 40C8.9543 40 0 31.0457 0 20C0 8.9543 8.9543 0 20 0ZM20 2.5C10.335 2.5 2.5 10.335 2.5 20C2.5 29.665 10.335 37.5 20 37.5C29.665 37.5 37.5 29.665 37.5 20C37.5 10.335 29.665 2.5 20 2.5Z" fill="currentColor"/>
</g>
</g>
</svg>
