<svg width="40" height="40" viewBox="0 0 40 40" fill="none" xmlns="http://www.w3.org/2000/svg">
<g id="Icon/system icon">
<path id="Vector" d="M9.88558 4L12.2528 12.5495V16.651H14.3022V12.5495L16.7007 4H14.6356L13.7762 7.89062C13.5349 9.02663 13.3807 9.83377 13.3101 10.3151H13.2476C13.1476 9.64177 12.9921 8.82833 12.7814 7.875L11.9533 4H9.88558ZM19.0913 7.22656C18.3966 7.22656 17.8357 7.36329 17.409 7.64062C16.981 7.91663 16.6676 8.35827 16.4663 8.96094C16.2663 9.56494 16.1642 10.3621 16.1642 11.3568V12.6979C16.1642 13.6819 16.2539 14.4718 16.4299 15.0651C16.6059 15.6584 16.9005 16.0963 17.3179 16.3776C17.7352 16.6589 18.3111 16.8007 19.0444 16.8021C19.7578 16.8021 20.3264 16.6628 20.7424 16.3854C21.1584 16.1081 21.4607 15.6742 21.646 15.0755C21.8313 14.4769 21.9246 13.6859 21.9246 12.7005V11.3568C21.9246 10.3621 21.8289 9.56742 21.6382 8.96875C21.4475 8.37142 21.1479 7.92977 20.7345 7.64844C20.3225 7.3671 19.774 7.22656 19.0913 7.22656ZM23.0028 7.40885V14.3125C23.0028 15.1672 23.1496 15.7966 23.4403 16.1979C23.7323 16.5992 24.1837 16.7995 24.797 16.7995C25.681 16.7995 26.3453 16.3729 26.7866 15.5182H26.8309L27.0132 16.6484H28.6408V7.40885H26.5627V14.7474C26.4827 14.9194 26.3595 15.0612 26.1929 15.1719C26.0262 15.2839 25.8534 15.3385 25.672 15.3385C25.46 15.3385 25.3096 15.2489 25.2189 15.0729C25.1282 14.8969 25.0835 14.606 25.0835 14.1927V7.40885H23.0028ZM19.0444 8.65885C19.3351 8.65885 19.5417 8.81313 19.6564 9.11979C19.7724 9.42513 19.8283 9.90892 19.8283 10.5729V13.4531C19.8283 14.1371 19.7711 14.6284 19.6564 14.9297C19.5417 15.231 19.3364 15.3815 19.047 15.3828C18.7564 15.3828 18.5535 15.231 18.4429 14.9297C18.3309 14.6284 18.2762 14.1358 18.2762 13.4531V10.5729C18.2762 9.91025 18.336 9.42646 18.4507 9.11979C18.5654 8.81446 18.7631 8.65885 19.0444 8.65885ZM8.66683 18.5339C6.8255 18.5339 5.3335 20.0259 5.3335 21.8672V32.5339C5.3335 34.3752 6.8255 35.8672 8.66683 35.8672H31.3335C33.1748 35.8672 34.6668 34.3752 34.6668 32.5339V21.8672C34.6668 20.0259 33.1748 18.5339 31.3335 18.5339H8.66683ZM20.0783 21.599H21.771V25.7109H21.784C21.936 25.4136 22.1525 25.1749 22.4325 24.9922C22.7125 24.8095 23.016 24.7188 23.3387 24.7188C23.7547 24.7188 24.0793 24.8295 24.3153 25.0495C24.5513 25.2695 24.7256 25.6278 24.8309 26.1198C24.9362 26.6131 24.9897 27.2959 24.9897 28.1693V29.401C24.9897 30.5637 24.8505 31.4181 24.5705 31.9661C24.2905 32.5141 23.8513 32.7891 23.258 32.7891C22.9273 32.7891 22.6263 32.7119 22.3543 32.5599C22.0823 32.4079 21.881 32.1989 21.745 31.9349H21.7059L21.5288 32.6719H20.0783V21.599ZM9.57829 21.9948H14.784V23.4089H13.0392V32.6719H11.3205V23.4089H9.57829V21.9948ZM28.1564 24.724C28.7577 24.724 29.2218 24.8321 29.5444 25.0521C29.8658 25.2734 30.0947 25.618 30.2267 26.0833C30.3574 26.55 30.422 27.1956 30.422 28.0182V29.3568H27.4845V29.7526C27.4845 30.2539 27.4981 30.6283 27.5288 30.8776C27.5595 31.1269 27.6204 31.3111 27.7137 31.4245C27.807 31.5391 27.9513 31.5964 28.146 31.5964C28.4087 31.5964 28.589 31.4943 28.6877 31.2917C28.785 31.089 28.8385 30.7481 28.8465 30.2734L30.3595 30.362C30.3675 30.4286 30.3726 30.5246 30.3726 30.6432C30.3726 31.3646 30.1761 31.9031 29.7814 32.2578C29.3867 32.6151 28.8283 32.7943 28.1069 32.7943C27.2416 32.7943 26.636 32.5218 26.2866 31.9792C25.9373 31.4365 25.7658 30.5957 25.7658 29.4583V28.0964C25.7658 26.9257 25.9475 26.0713 26.3075 25.5312C26.6675 24.9912 27.2831 24.724 28.1564 24.724ZM17.2658 24.8672H19.0236V32.6693H19.0184V32.6719H17.6434L17.4924 31.7161H17.4533C17.08 32.4388 16.5203 32.7995 15.7736 32.7995C15.2549 32.7995 14.8744 32.6317 14.6278 32.2917C14.3811 31.953 14.258 31.4205 14.258 30.7005V24.8698H16.0184V30.599C16.0184 30.9456 16.057 31.1971 16.133 31.3438C16.2103 31.4931 16.3358 31.5651 16.5158 31.5651C16.6678 31.5651 16.8133 31.5191 16.9533 31.4245C17.0946 31.3311 17.1965 31.2117 17.2658 31.0677V24.8672ZM28.12 25.9089C27.9333 25.9089 27.7926 25.9636 27.7033 26.0729C27.614 26.1836 27.5542 26.3639 27.5262 26.6146C27.4955 26.8639 27.4819 27.2446 27.4819 27.7526V28.3125H28.7658V27.7526C28.7658 27.2513 28.7496 26.8732 28.7163 26.6146C28.683 26.3546 28.6234 26.1744 28.534 26.0677C28.4447 25.9624 28.308 25.9089 28.12 25.9089ZM22.547 25.9661C22.3777 25.9661 22.2197 26.0333 22.0757 26.1693C21.9317 26.3053 21.8297 26.4794 21.771 26.6901V31.1198C21.8483 31.2558 21.9478 31.3565 22.0705 31.4245C22.1931 31.4911 22.3262 31.5286 22.4715 31.5286C22.6582 31.5286 22.8062 31.4615 22.9168 31.3255C23.0275 31.1895 23.1059 30.9607 23.1512 30.638C23.1979 30.3167 23.2215 29.8701 23.2215 29.3021V28.2969C23.2215 27.6862 23.2029 27.2148 23.1642 26.8828C23.1269 26.5521 23.0571 26.3158 22.9611 26.1771C22.8638 26.0384 22.727 25.9661 22.547 25.9661Z" fill="white"/>
</g>
</svg>
