<svg width="100%" height="100%" viewBox="0 0 12 12" fill="none" xmlns="http://www.w3.org/2000/svg">
<circle cx="50%" cy="50%" r="5.5" fill="white"/>
<path fill-rule="evenodd" clip-rule="evenodd" d="M10.5 6C10.5 8.48528 8.48528 10.5 6 10.5C3.51472 10.5 1.5 8.48528 1.5 6C1.5 3.51472 3.51472 1.5 6 1.5C8.48528 1.5 10.5 3.51472 10.5 6ZM2.8621 7.82449C2.89073 7.87358 2.93982 7.90222 2.993 7.90222L2.98891 7.90629C3.01755 7.90629 3.0421 7.89811 3.06664 7.88584C3.14028 7.84493 3.16482 7.75084 3.12391 7.6772C2.62891 6.81811 2.53891 5.79947 2.87437 4.86675C3.20982 3.93402 3.93801 3.20993 4.87073 2.87448C4.95255 2.84584 4.99346 2.75585 4.96482 2.67812C4.93619 2.5963 4.84619 2.5554 4.76846 2.58404C3.75392 2.94813 2.95619 3.74176 2.58801 4.75631C2.21982 5.77085 2.31801 6.88767 2.8621 7.82449ZM8.26212 8.79002C8.21712 8.79002 8.17621 8.77366 8.14349 8.73684C8.0903 8.67139 8.09848 8.57728 8.15985 8.52001C8.59348 8.15183 8.92485 7.67322 9.12121 7.13731C9.31757 6.6014 9.37075 6.02047 9.27666 5.46002C9.26439 5.3782 9.31758 5.29639 9.40348 5.28411C9.4853 5.27593 9.56712 5.32502 9.57939 5.41093C9.68166 6.02457 9.62439 6.65865 9.41166 7.24774C9.19894 7.83684 8.83485 8.36048 8.3603 8.76139C8.33167 8.78593 8.29485 8.79821 8.26212 8.79821V8.79002ZM7.41147 5.03052V4.26143V4.25734H5.4601C5.2351 4.25734 5.05101 4.44143 5.05101 4.66643V7.73461H6.01647V6.37642H7.05556V5.64826H6.01647V5.03052H7.41147Z" fill="#FFB107"/>
</svg>
