<svg viewBox="0 0 41 40" fill="none" xmlns="http://www.w3.org/2000/svg">
<path d="M20.5002 36.6654C29.7049 36.6654 37.1668 29.2034 37.1668 19.9987C37.1668 10.794 29.7049 3.33203 20.5002 3.33203C11.2954 3.33203 3.8335 10.794 3.8335 19.9987C3.8335 29.2034 11.2954 36.6654 20.5002 36.6654Z" fill="#FFB007"/>
<path d="M9.36388 27.0432C9.16691 27.0432 8.98511 26.9372 8.87904 26.7553C6.86389 23.2856 6.50026 19.1493 7.8639 15.3917C9.22753 11.6341 12.1821 8.69473 15.9397 7.34625C16.2275 7.24019 16.5609 7.39167 16.6669 7.6947C16.773 7.98258 16.6215 8.31589 16.3184 8.42195C12.8639 9.66437 10.1669 12.3462 8.9245 15.8007C7.68207 19.2553 8.01541 23.028 9.84874 26.2098C10.0003 26.4825 9.90935 26.831 9.63662 26.9826C9.54571 27.028 9.4548 27.0583 9.34874 27.0583L9.36388 27.0432Z" fill="white"/>
<path d="M28.8791 30.3319C28.7124 30.3319 28.5609 30.2713 28.4397 30.1349C28.2427 29.8925 28.273 29.544 28.5003 29.3318C30.1064 27.9682 31.3336 26.1956 32.0609 24.2107C32.7882 22.2259 32.9851 20.0743 32.6366 17.9985C32.5912 17.6955 32.7882 17.3925 33.1064 17.347C33.4094 17.3167 33.7124 17.4985 33.7579 17.8167C34.1367 20.0894 33.9245 22.4379 33.1367 24.6197C32.3488 26.8016 31.0003 28.741 29.2427 30.2258C29.1367 30.3167 29.0003 30.3622 28.8791 30.3622V30.3319Z" fill="white"/>
<path d="M25.7273 13.5581V16.4066H20.5606V18.6945H24.4091V21.3914H20.5606V26.4218H16.9849V15.0581C16.9849 14.2248 17.6667 13.543 18.5 13.543H25.7273V13.5581Z" fill="white"/>
</svg>
