<svg width="24" height="24" viewBox="0 0 24 24" fill="none" xmlns="http://www.w3.org/2000/svg">
  <rect x="0.5" y="0.5" width="23" height="23" rx="11.5" fill="white" />
  <rect x="0.5" y="0.5" width="23" height="23" rx="11.5" stroke="#FFAD9E" />
  <path
    d="M12 19.5C10.9625 19.5 9.9875 19.3031 9.075 18.9094C8.1625 18.5156 7.36875 17.9812 6.69375 17.3062C6.01875 16.6312 5.48437 15.8375 5.09062 14.925C4.69687 14.0125 4.5 13.0375 4.5 12C4.5 10.9625 4.69687 9.9875 5.09062 9.075C5.48437 8.1625 6.01875 7.36875 6.69375 6.69375C7.36875 6.01875 8.1625 5.48437 9.075 5.09062C9.9875 4.69687 10.9625 4.5 12 4.5C13.0375 4.5 14.0125 4.69687 14.925 5.09062C15.8375 5.48437 16.6312 6.01875 17.3062 6.69375C17.9812 7.36875 18.5156 8.1625 18.9094 9.075C19.3031 9.9875 19.5 10.9625 19.5 12C19.5 13.0375 19.3031 14.0125 18.9094 14.925C18.5156 15.8375 17.9812 16.6312 17.3062 17.3062C16.6312 17.9812 15.8375 18.5156 14.925 18.9094C14.0125 19.3031 13.0375 19.5 12 19.5ZM12 18C13.675 18 15.0937 17.4187 16.2562 16.2562C17.4187 15.0937 18 13.675 18 12C18 11.9125 17.9969 11.8219 17.9906 11.7281C17.9844 11.6344 17.9812 11.5562 17.9812 11.4937C17.9187 11.8562 17.75 12.1562 17.475 12.3937C17.2 12.6312 16.875 12.75 16.5 12.75H15C14.5875 12.75 14.2344 12.6031 13.9406 12.3094C13.6469 12.0156 13.5 11.6625 13.5 11.25V10.5H10.5V9C10.5 8.5875 10.6469 8.23437 10.9406 7.94062C11.2344 7.64687 11.5875 7.5 12 7.5H12.75C12.75 7.2125 12.8281 6.95937 12.9844 6.74062C13.1406 6.52187 13.3312 6.34375 13.5562 6.20625C13.3062 6.14375 13.0531 6.09375 12.7969 6.05625C12.5406 6.01875 12.275 6 12 6C10.325 6 8.90625 6.58125 7.74375 7.74375C6.58125 8.90625 6 10.325 6 12H9.75C10.575 12 11.2812 12.2937 11.8687 12.8812C12.4562 13.4687 12.75 14.175 12.75 15V15.75H10.5V17.8125C10.75 17.875 10.9969 17.9219 11.2406 17.9531C11.4844 17.9844 11.7375 18 12 18Z"
    fill="#FF5537" />
</svg>
