<svg width="60" height="60" viewBox="0 0 60 60" fill="none" xmlns="http://www.w3.org/2000/svg">
<rect x="0.5" y="0.5" width="59" height="59" rx="29.5" stroke="currentColor"/>
<path fill-rule="evenodd" clip-rule="evenodd" d="M28.6132 14.3102C27.1854 14.3102 26.028 15.5169 26.028 17.0054C26.028 18.4939 27.1854 19.7006 28.6132 19.7006C30.0409 19.7006 31.1983 18.4939 31.1983 17.0054C31.1983 15.5169 30.0409 14.3102 28.6132 14.3102ZM23.8122 17.0054C23.8122 14.241 25.9616 12 28.6132 12C31.2647 12 33.4142 14.241 33.4142 17.0054C33.4142 19.4885 31.6799 21.5493 29.4052 21.9429L33.6881 25.7906C34.1574 26.2121 34.7562 26.444 35.3757 26.444H37.2955C38.7891 26.444 40 27.7064 40 29.2637C40 30.492 39.2373 31.579 38.1145 31.951L34.8452 33.034C34.5381 33.1357 34.2244 33.2042 33.9087 33.2399L35.7277 35.3492C36.5201 36.2681 36.9585 37.4601 36.9585 38.6957V44.9198C36.9585 46.6209 35.6357 48 34.004 48H33.3266C31.5497 48 30.1747 46.3764 30.3949 44.5381L30.7753 41.3623C30.8966 40.3494 30.4587 39.352 29.6441 38.7858L29.2895 38.5394L28.7136 40.9402C28.6287 41.2941 28.5069 41.6374 28.3504 41.9637L26.588 45.6395C25.8584 47.1612 24.0837 47.7781 22.6242 47.0174L22.1015 46.745C20.727 46.0286 20.1087 44.3334 20.6795 42.8459L21.7688 40.0066C21.8275 39.8535 21.8727 39.6951 21.9036 39.5334L22.7589 35.0678C22.8191 34.7535 22.9964 34.4947 23.2339 34.3308C23.1742 34.2892 23.1174 34.2409 23.0646 34.1858L21.4063 32.4569C19.3644 30.3281 19.574 26.8152 21.8534 24.9667L26.2118 21.4321L26.2348 21.3544C24.7876 20.4922 23.8122 18.8676 23.8122 17.0054ZM25.0762 25.2798L23.2138 26.7902C21.9865 27.7855 21.8736 29.6771 22.9731 30.8234L23.4084 31.2772C23.4391 30.9455 23.5021 30.6135 23.5988 30.2857L25.0762 25.2798ZM24.9435 35.448C25.1231 35.6195 25.317 35.7783 25.5244 35.9225L27.3318 37.1787L26.5639 40.3796C26.5182 40.5702 26.4526 40.7551 26.3684 40.9308L24.606 44.6066C24.4236 44.987 23.9799 45.1412 23.615 44.9511L23.1196 45.9842L23.615 44.951L23.0923 44.6786C22.7487 44.4995 22.5941 44.0757 22.7368 43.7039L23.8262 40.8646L22.8033 40.438L23.8262 40.8646C23.9352 40.5803 24.0191 40.2861 24.0766 39.9858L24.9319 35.5202C24.9365 35.4961 24.9404 35.472 24.9435 35.448ZM27.883 23.6249L25.7167 30.9651C25.3804 32.1046 25.8021 33.339 26.7536 34.0003L30.8732 36.8636C32.3861 37.9152 33.1994 39.7675 32.9741 41.6486L32.5937 44.8244C32.5386 45.2839 32.8824 45.6898 33.3266 45.6898H34.004C34.4119 45.6898 34.7426 45.3451 34.7426 44.9198V38.6957C34.7426 38.0304 34.5066 37.3885 34.0799 36.8938L30.4112 32.6395C30.2935 32.503 30.2127 32.3453 30.1683 32.1797L28.8922 31.5145C28.3449 31.2292 28.1231 30.5354 28.3967 29.9648C28.6704 29.3942 29.3359 29.1629 29.8831 29.4482L32.2352 30.6743C32.8371 30.9881 33.5328 31.0448 34.1742 30.8323L37.4435 29.7493C37.6463 29.682 37.7841 29.4856 37.7841 29.2637C37.7841 28.9823 37.5654 28.7542 37.2955 28.7542H35.3757C34.2253 28.7542 33.1132 28.3236 32.2417 27.5407L27.883 23.6249Z" fill="currentColor"/>
</svg>
