<svg width="60" height="60" viewBox="0 0 60 60" fill="none" xmlns="http://www.w3.org/2000/svg">
<rect x="0.5" y="0.5" width="59" height="59" rx="29.5" stroke="currentColor"/>
<path fill-rule="evenodd" clip-rule="evenodd" d="M42.7725 39.4326L42.315 39.8886L37.71 35.2836L38.1675 34.8291C38.2935 34.7031 38.457 34.6401 38.622 34.6401C38.79 34.6401 38.952 34.7031 39.078 34.8291L42.771 38.5206C42.8985 38.6466 42.96 38.8101 42.96 38.9766C42.96 39.1431 42.8985 39.3066 42.7725 39.4326ZM36.156 42.9696C34.2585 42.9696 32.364 42.2436 30.894 40.7766L19.368 29.2446C17.907 27.7821 17.178 25.8816 17.178 23.9796C17.178 22.3701 17.7165 20.7696 18.759 19.4256L23.34 24.0066C22.776 24.7206 22.482 25.5771 22.482 26.4396C22.482 27.4476 22.866 28.4571 23.6355 29.2266L30.9105 36.5061C31.68 37.2771 32.691 37.6626 33.699 37.6611C34.56 37.6626 35.418 37.3671 36.132 36.8031L40.713 41.3841C39.3675 42.4281 37.767 42.9696 36.156 42.9696ZM20.709 17.3796L20.7105 17.3781C20.8365 17.2521 21 17.1891 21.1665 17.1891C21.333 17.1891 21.4965 17.2521 21.6225 17.3796L25.3155 21.0591C25.443 21.1851 25.503 21.3486 25.503 21.5151C25.503 21.6816 25.4415 21.8451 25.314 21.9711L24.8595 22.4271L20.2575 17.8266L20.709 17.3796ZM44.3205 36.9711L40.626 33.2796C40.074 32.7276 39.348 32.4501 38.622 32.4516C37.8975 32.4501 37.17 32.7276 36.6165 33.2796L34.938 34.9581C34.5975 35.2986 34.1505 35.4696 33.7005 35.4696C33.2505 35.4696 32.8035 35.2986 32.4615 34.9581L25.1865 27.6786C24.843 27.3351 24.6735 26.8866 24.6735 26.4381C24.6735 25.9896 24.843 25.5426 25.1865 25.1991C25.4565 24.9291 26.2335 24.1521 26.865 23.5206C27.417 22.9686 27.6945 22.2411 27.6945 21.5136C27.6945 20.7906 27.42 20.0646 26.865 19.5096L23.169 15.8256L23.172 15.8286C22.6185 15.2766 21.891 14.9991 21.1665 14.9991C20.4405 14.9991 19.716 15.2751 19.1655 15.8271C18.405 16.5801 18.1605 16.8216 17.82 17.1606H17.8185C15.939 19.0401 15 21.5106 15 23.9796C15 26.4456 15.939 28.9146 17.817 30.7926L29.3445 42.3246C31.2285 44.2086 33.6945 45.1506 36.1605 45.1506C38.6265 45.1506 41.094 44.2086 42.978 42.3246H42.9765L44.3205 40.9821C44.8725 40.4301 45.15 39.7026 45.15 38.9766C45.15 38.2521 44.8725 37.5246 44.3205 36.9711Z" fill="currentColor"/>
</svg>
