<svg width="100%" height="100%" viewBox="0 0 24 24" fill="none" xmlns="http://www.w3.org/2000/svg">
<g id="Icon">
<path id="Vector" d="M22.75 12C22.75 8.55065 21.8875 5.82615 20.0307 3.9693C18.1739 2.11246 15.4493 1.25 12 1.25C8.55065 1.25 5.82615 2.11246 3.9693 3.9693C2.11246 5.82615 1.25 8.55065 1.25 12C1.25 15.4493 2.11246 18.1739 3.9693 20.0307C5.82615 21.8875 8.55065 22.75 12 22.75C15.4493 22.75 18.1739 21.8875 20.0307 20.0307C21.8875 18.1739 22.75 15.4493 22.75 12Z" stroke="currentColor" stroke-width="1.5"/>
<path id="Vector_2" d="M5.88086 15.465C5.88086 11.4166 8.59097 7.03148 13.814 6.18593C13.814 6.18593 15.3781 5.90653 16.1327 6.2021C16.4159 6.29033 16.7999 6.6212 16.8711 7.02119C17.0445 7.71234 16.3937 8.27702 16.3551 8.30937C16.3922 8.32261 16.9496 8.52554 17.0579 9.02552C17.1557 9.47992 16.8414 9.84608 16.2825 10.0372C17.2106 10.8725 17.0149 12.543 16.1446 13.3312C17.3781 13.4709 18.3343 14.268 18.3343 15.465C18.3343 16.3149 16.2588 16.6546 12.1061 16.6546C7.95348 16.6546 5.88086 16.3149 5.88086 15.465Z" stroke="currentColor" stroke-width="1.5" stroke-linejoin="round"/>
</g>
</svg>
