<svg width="100%" height="100%" viewBox="0 0 24 24" fill="none" xmlns="http://www.w3.org/2000/svg">
<rect opacity="0.01" width="24" height="24" fill="currentColor"/>
<path d="M12 4.83008C12.5523 4.83008 13 4.38236 13 3.83008C13 3.27779 12.5523 2.83008 12 2.83008C11.4477 2.83008 11 3.27779 11 3.83008C11 4.38236 11.4477 4.83008 12 4.83008Z" fill="currentColor"/>
<path d="M2 8.58008C2.55228 8.58008 3 8.13236 3 7.58008C3 7.02779 2.55228 6.58008 2 6.58008C1.44772 6.58008 1 7.02779 1 7.58008C1 8.13236 1.44772 8.58008 2 8.58008Z" fill="currentColor"/>
<path d="M22 8.58008C22.5523 8.58008 23 8.13236 23 7.58008C23 7.02779 22.5523 6.58008 22 6.58008C21.4477 6.58008 21 7.02779 21 7.58008C21 8.13236 21.4477 8.58008 22 8.58008Z" fill="currentColor"/>
<path d="M20.96 10.64C20.53 10.36 19.98 10.37 19.57 10.67L16.25 12.99L13.09 7.46C12.65 6.68 11.36 6.68 10.92 7.46L7.76003 12.99L4.44002 10.67C4.02002 10.38 3.48001 10.37 3.05001 10.64C2.62001 10.92 2.41002 11.42 2.50002 11.92L4.11001 20.4C4.27001 21.22 4.99004 21.82 5.83004 21.82H18.18C19.02 21.82 19.74 21.22 19.9 20.4L21.52 11.92C21.62 11.42 21.4 10.91 20.97 10.64H20.96ZM7.57003 14.69C7.74003 14.81 7.95999 14.86 8.15999 14.81C8.36999 14.76 8.54005 14.63 8.65005 14.45L12 8.59L15.35 14.45C15.45 14.63 15.63 14.76 15.84 14.81C16.05 14.86 16.26 14.81 16.43 14.69L19.92 12.25L18.95 17.33H5.05001L4.08004 12.25L7.57003 14.69ZM18.17 20.33H5.82003C5.70003 20.33 5.60003 20.24 5.57003 20.13L5.32003 18.83H18.65L18.4 20.13C18.38 20.25 18.27 20.33 18.15 20.33H18.17Z" fill="currentColor"/>
</svg>
