<svg width="60" height="60" viewBox="0 0 60 60" fill="none" xmlns="http://www.w3.org/2000/svg">
  <circle cx="30" cy="30" r="30" fill="#FFEEEB" />
  <path fill-rule="evenodd" clip-rule="evenodd"
    d="M25.0949 21.8068C25.4142 20.4761 25.9654 19.3058 26.7477 18.2952C27.5302 17.2852 28.5841 16.4835 29.9096 15.89C31.235 15.2971 32.8884 15 34.8711 15C35.5425 15 36.2058 15.0404 36.8618 15.1206C37.5171 15.2007 38.1165 15.3213 38.6603 15.4816L38.1327 21.7402C37.845 21.6445 37.509 21.5644 37.1253 21.5003C36.7415 21.4363 36.3578 21.404 35.974 21.404C35.2387 21.404 34.6467 21.5326 34.199 21.7887C33.7514 22.0447 33.4012 22.3902 33.1439 22.8216C32.7066 23.5552 32.5302 24.5712 32.4725 25.8961H38.0611V32.1283H32.4725V46.5542H24.6163V32.1283H21.6667V25.8961H24.6163C24.6658 23.3973 25.0949 21.8068 25.0949 21.8068Z"
    fill="#FF5537" />
</svg>
