<svg width="24" height="24" viewBox="0 0 24 24" fill="none" xmlns="http://www.w3.org/2000/svg">
<path fill-rule="evenodd" clip-rule="evenodd" d="M9.99771 2.58891C9.62088 2.21023 9.11691 2 8.58512 2C8.05238 2 7.54833 2.21006 7.17159 2.58866C6.39299 3.37283 6.39299 4.64578 7.17103 5.42939C7.23399 5.49279 7.30507 5.5574 7.38299 5.6225H2.95C2.42533 5.6225 2 6.04783 2 6.5725V9.4225C2 9.94717 2.42533 10.3725 2.95 10.3725V19.9975C2.95 20.5222 3.37533 20.9475 3.9 20.9475H20.1C20.6247 20.9475 21.05 20.5222 21.05 19.9975L21.05 10.3725C21.5747 10.3725 22 9.94717 22 9.4225V6.5725C22 6.04783 21.5747 5.6225 21.05 5.6225H16.701C16.7852 5.5529 16.8617 5.48382 16.9289 5.41611C17.6661 4.67369 17.7049 3.49214 17.0444 2.70254L16.9278 2.57471L16.8029 2.46012C16.0288 1.81079 14.8276 1.84848 14.1032 2.57471C13.4141 3.26782 12.7366 4.6089 12.5767 5.6225H11.4961C11.349 4.59364 10.6791 3.2743 9.99771 2.58891ZM8.58512 3.425C8.432 3.425 8.29133 3.48363 8.18224 3.59325C7.95592 3.82119 7.95592 4.19742 8.1822 4.42531C8.49254 4.73782 9.22289 5.15377 9.83649 5.39635L10.026 5.4665L9.97273 5.31628L9.90575 5.14451C9.6464 4.50626 9.28614 3.89437 8.98736 3.59381C8.87776 3.48367 8.73711 3.425 8.58512 3.425ZM15.1129 3.58022C15.2967 3.39592 15.6266 3.37558 15.8434 3.51945L15.9178 3.57991L15.9848 3.66098C16.1413 3.88964 16.1189 4.20941 15.9178 4.41203L15.8126 4.5086L15.6701 4.62116C15.2579 4.92678 14.6034 5.26797 14.0835 5.45031L14.073 5.4525L14.1595 5.21802L14.2841 4.91986C14.5329 4.36071 14.8471 3.84758 15.1129 3.58022ZM12.6125 8.9475H20.1L20.575 8.9475V7.0475H12.6125V8.9475ZM11.1875 8.9475V7.0475H3.425V8.9475L3.9 8.9475H11.1875ZM11.1875 10.3725V19.5225H4.375V10.3725H11.1875ZM12.6125 19.5225V10.3725H19.625V19.5225H12.6125Z" fill="currentColor"/>
</svg>
