<svg viewBox="0 0 24 24" fill="none" xmlns="http://www.w3.org/2000/svg">
<g clip-path="url(#clip0_8931_23535)">
<path d="M22.0006 12.2292C22.0006 11.5495 21.9444 10.866 21.8244 10.1973H12.2012V14.0481H17.712C17.4833 15.29 16.7485 16.3887 15.6726 17.0868V19.5855H18.9603C20.891 17.8438 22.0006 15.2717 22.0006 12.2292Z" fill="#4285F4"/>
<path d="M12.2011 21.9998C14.9528 21.9998 17.2733 21.1143 18.964 19.5857L15.6763 17.0871C14.7616 17.697 13.5807 18.0424 12.2049 18.0424C9.54322 18.0424 7.28642 16.2824 6.47667 13.916H3.08398V16.4918C4.81594 19.8686 8.34359 21.9998 12.2011 21.9998Z" fill="#34A853"/>
<path d="M6.47227 13.9163C6.04491 12.6743 6.04491 11.3295 6.47227 10.0875V7.51172H3.08333C1.63628 10.3374 1.63628 13.6664 3.08333 16.4921L6.47227 13.9163Z" fill="#FBBC04"/>
<path d="M12.2011 5.95707C13.6557 5.93503 15.0615 6.4715 16.1149 7.45625L19.0278 4.6012C17.1833 2.90361 14.7353 1.9703 12.2011 1.9997C8.34359 1.9997 4.81594 4.13088 3.08398 7.51136L6.47293 10.0871C7.27892 7.71713 9.53947 5.95707 12.2011 5.95707Z" fill="#EA4335"/>
</g>
<defs>
<clipPath id="clip0_8931_23535">
<rect width="100%" height="100%" fill="white" transform="translate(2 2)"/>
</clipPath>
</defs>
</svg>
