<svg width="20" height="21" viewBox="0 0 20 21" fill="none" xmlns="http://www.w3.org/2000/svg">
<g id="Google" clip-path="url(#clip0_4940_2744)">
<path id="Vector" d="M20.0001 10.5632C20.0001 9.88345 19.9439 9.2 19.8239 8.53125H10.2007V12.3821H15.7115C15.4828 13.624 14.748 14.7227 13.6721 15.4208V17.9195H16.9598C18.8905 16.1778 20.0001 13.6057 20.0001 10.5632Z" fill="#4285F4"/>
<path id="Vector_2" d="M10.2006 20.3338C12.9523 20.3338 15.2728 19.4482 16.9635 17.9197L13.6758 15.421C12.7611 16.031 11.5802 16.3764 10.2044 16.3764C7.54273 16.3764 5.28593 14.6163 4.47619 12.25H1.0835V14.8258C2.81545 18.2026 6.3431 20.3338 10.2006 20.3338Z" fill="#34A853"/>
<path id="Vector_3" d="M4.47227 12.2503C4.04491 11.0083 4.04491 9.66345 4.47227 8.42149V5.8457H1.08333C-0.363715 8.67135 -0.363715 12.0004 1.08333 14.826L4.47227 12.2503Z" fill="#FBBC04"/>
<path id="Vector_4" d="M10.2006 4.29203C11.6552 4.26999 13.061 4.80646 14.1144 5.79121L17.0273 2.93616C15.1828 1.23857 12.7349 0.305263 10.2006 0.334658C6.3431 0.334658 2.81545 2.46584 1.0835 5.84632L4.47244 8.42211C5.27844 6.05209 7.53898 4.29203 10.2006 4.29203Z" fill="#EA4335"/>
</g>
<defs>
<clipPath id="clip0_4940_2744">
<rect width="20" height="20" fill="white" transform="translate(0 0.333984)"/>
</clipPath>
</defs>
</svg>
