<svg width="24" height="24" viewBox="0 0 24 24" fill="none" xmlns="http://www.w3.org/2000/svg">
<path fill-rule="evenodd" clip-rule="evenodd" d="M16.1313 3.43005C17.7509 3.43005 19.2486 4.05189 20.3393 5.18023C21.4121 6.29011 22 7.79917 22 9.42429C22 11.0948 21.3502 12.6173 19.9903 14.1824L19.7681 14.4334C18.9842 15.3014 18.11 16.085 16.3234 17.5541L15.7875 17.9932L14.3025 19.2027L13.1369 20.1646C12.8209 20.4283 12.4172 20.5729 12 20.5729C11.5825 20.5729 11.1789 20.4282 10.8631 20.1645L10.4727 19.84L7.50598 17.4135L6.68645 16.7309C5.68786 15.8887 5.04319 15.2975 4.48266 14.7046L4.20815 14.4069L4.00987 14.1826C2.64984 12.6172 2 11.0947 2 9.42429C2 7.79925 2.58801 6.29016 3.66082 5.18021C4.75154 4.05185 6.24918 3.43005 7.86883 3.43005C9.08812 3.43005 10.2123 3.80021 11.1939 4.52432C11.357 4.64464 11.5148 4.77373 11.667 4.91129L11.8912 5.12392L12 5.23716L12.1091 5.12368L12.3333 4.91108L12.5657 4.71121L12.8063 4.52428C13.7878 3.80021 14.912 3.43005 16.1313 3.43005ZM16.1313 4.93005C15.3227 4.93005 14.5839 5.14659 13.9384 5.56266L13.7266 5.70872L13.5153 5.87236C13.4355 5.9376 13.3573 6.00596 13.2877 6.07043L13.1904 6.16333L11.9996 7.40178L10.8331 6.18709C10.6648 6.0196 10.488 5.86756 10.3035 5.73141C9.57954 5.19738 8.76732 4.93005 7.86883 4.93005C6.65104 4.93005 5.54401 5.39027 4.73937 6.22267C3.94291 7.0467 3.5 8.1798 3.5 9.42429C3.5 10.622 3.94056 11.7373 4.92885 12.9462L5.13385 13.1892L5.32346 13.4039C5.93846 14.0877 6.62207 14.7237 7.93337 15.8191L8.45563 16.2524L11.4293 18.6846L11.8248 19.0133C11.8692 19.0504 11.932 19.0729 12 19.0729C12.0453 19.0729 12.0885 19.0628 12.1273 19.0435L12.1822 19.0077L13.3552 18.0397L15.82 16.0244C17.4437 14.6768 18.1574 14.0049 18.858 13.1986C19.9988 11.8857 20.5 10.702 20.5 9.42429C20.5 8.17968 20.0571 7.04662 19.2608 6.22275C18.4562 5.39032 17.349 4.93005 16.1313 4.93005Z" fill="currentColor"/>
</svg>
