<svg viewBox="0 0 24 24" fill="currentColor" xmlns="http://www.w3.org/2000/svg">
<path fill-rule="evenodd" clip-rule="evenodd" d="M16.1313 3.42993C17.7509 3.42993 19.2486 4.05177 20.3393 5.18011C21.4121 6.28999 22 7.79905 22 9.42417C22 11.0946 21.3502 12.6172 19.9903 14.1823L19.7681 14.4332C18.9842 15.3012 18.11 16.0848 16.3234 17.554L15.7875 17.9931L14.3025 19.2026L13.1369 20.1645C12.8209 20.4282 12.4172 20.5728 12 20.5728C11.5825 20.5728 11.1789 20.4281 10.8631 20.1643L10.4727 19.8398L7.50598 17.4134L6.68645 16.7307C5.68786 15.8885 5.04319 15.2974 4.48266 14.7045L4.20815 14.4068L4.00987 14.1824C2.64984 12.6171 2 11.0945 2 9.42417C2 7.79913 2.58801 6.29004 3.66082 5.18008C4.75154 4.05173 6.24918 3.42993 7.86883 3.42993C9.08812 3.42993 10.2123 3.80009 11.1939 4.52419C11.357 4.64452 11.5148 4.77361 11.667 4.91116L11.8912 5.1238L12 5.23704L12.1091 5.12356L12.3333 4.91096L12.5657 4.71109L12.8063 4.52416C13.7878 3.80009 14.912 3.42993 16.1313 3.42993ZM16.1313 4.92993C15.3227 4.92993 14.5839 5.14646 13.9384 5.56254L13.7266 5.7086L13.5153 5.87224C13.4355 5.93748 13.3573 6.00584 13.2877 6.0703L13.1904 6.1632L11.9996 7.40166L10.8331 6.18697C10.6648 6.01947 10.488 5.86744 10.3035 5.73129C9.57954 5.19726 8.76732 4.92993 7.86883 4.92993C6.65104 4.92993 5.54401 5.39015 4.73937 6.22255C3.94291 7.04658 3.5 8.17968 3.5 9.42417C3.5 10.6219 3.94056 11.7372 4.92885 12.946L5.13385 13.1891L5.32346 13.4038C5.93846 14.0876 6.62207 14.7236 7.93337 15.819L8.45563 16.2523L11.4293 18.6845L11.8248 19.0132C11.8692 19.0502 11.932 19.0728 12 19.0728C12.0453 19.0728 12.0885 19.0627 12.1273 19.0434L12.1822 19.0075L13.3552 18.0395L15.82 16.0243C17.4437 14.6767 18.1574 14.0048 18.858 13.1984C19.9988 11.8856 20.5 10.7019 20.5 9.42417C20.5 8.17956 20.0571 7.0465 19.2608 6.22263C18.4562 5.39019 17.349 4.92993 16.1313 4.92993Z" fill="currentColor"/>
</svg>
