<svg width="24" height="24" viewBox="0 0 24 24" fill="none" xmlns="http://www.w3.org/2000/svg">
<path fill-rule="evenodd" clip-rule="evenodd" d="M16.1313 3.42999C17.7509 3.42999 19.2486 4.05183 20.3393 5.18017C21.4121 6.29005 22 7.79911 22 9.42423C22 11.0947 21.3502 12.6173 19.9903 14.1823L19.7681 14.4333C18.9842 15.3013 18.11 16.0849 16.3234 17.5541L15.7875 17.9931L14.3025 19.2027L13.1369 20.1645C12.8209 20.4283 12.4172 20.5728 12 20.5728C11.5825 20.5728 11.1789 20.4282 10.8631 20.1644L10.4727 19.8399L7.50598 17.4135L6.68645 16.7308C5.68786 15.8886 5.04319 15.2974 4.48266 14.7046L4.20815 14.4069L4.00987 14.1825C2.64984 12.6172 2 11.0946 2 9.42423C2 7.79919 2.58801 6.2901 3.66082 5.18015C4.75154 4.05179 6.24918 3.42999 7.86883 3.42999C9.08812 3.42999 10.2123 3.80015 11.1939 4.52426C11.357 4.64458 11.5148 4.77367 11.667 4.91122L11.8912 5.12386L12 5.2371L12.1091 5.12362L12.3333 4.91102L12.5657 4.71115L12.8063 4.52422C13.7878 3.80015 14.912 3.42999 16.1313 3.42999Z" fill="currentColor"/>
</svg>
