<svg viewBox="0 0 33 32" fill="none" xmlns="http://www.w3.org/2000/svg">
<path d="M19.2647 15.5163L15.7001 20.884C15.441 21.2741 14.8711 21.2826 14.6005 20.9004L12.3943 17.7834C12.124 17.4015 11.5546 17.4096 11.2952 17.7991L7.85653 22.9639C7.56154 23.4069 7.87917 24 8.41145 24H24.6117C25.1393 24 25.4578 23.4163 25.1724 22.9726L20.3807 15.5244C20.1205 15.12 19.5307 15.1157 19.2647 15.5163Z" fill="currentColor"/>
<path fill-rule="evenodd" clip-rule="evenodd" d="M5.7 4C5.1 4 4.5 4.6 4.5 5.2V26.8C4.5 27.4 5.1 28 5.7 28H27.3C27.9 28 28.5 27.4 28.5 26.8V5.2C28.5 4.6 27.9 4 27.3 4H5.7ZM6.17442 5.84615L26.8256 5.84615V26.1538H6.17442V5.84615Z" fill="currentColor"/>
</svg>
