<svg xmlns="http://www.w3.org/2000/svg" width="24" height="24" viewBox="0 0 24 24" fill="none">
  <path fill-rule="evenodd" clip-rule="evenodd" d="M22 12C22 6.47715 17.5228 2 12 2C6.47715 2 2 6.47715 2 12C2 17.5228 6.47715 22 12 22C17.5228 22 22 17.5228 22 12ZM3.5 12C3.5 7.30558 7.30558 3.5 12 3.5C16.6944 3.5 20.5 7.30558 20.5 12C20.5 16.6944 16.6944 20.5 12 20.5C7.30558 20.5 3.5 16.6944 3.5 12ZM12 15.25C12.3797 15.25 12.6935 15.5322 12.7432 15.8982L12.75 16V17C12.75 17.4142 12.4142 17.75 12 17.75C11.6203 17.75 11.3065 17.4678 11.2568 17.1018L11.25 17V16C11.25 15.5858 11.5858 15.25 12 15.25ZM12.7432 6.89823C12.6935 6.53215 12.3797 6.25 12 6.25C11.5858 6.25 11.25 6.58579 11.25 7V13L11.2568 13.1018C11.3065 13.4678 11.6203 13.75 12 13.75C12.4142 13.75 12.75 13.4142 12.75 13V7L12.7432 6.89823Z" fill="currentColor"/>
</svg>