<svg viewBox="0 0 24 24" fill="currentColor" xmlns="http://www.w3.org/2000/svg">
<g clip-path="url(#clip0_458_19280)">
<path d="M20.9825 8.29205C20.9403 7.33564 20.7857 6.67812 20.5641 6.10836C20.3356 5.50359 19.9839 4.96213 19.5232 4.51201C19.0731 4.05489 18.5281 3.69969 17.9303 3.4747C17.3573 3.25315 16.7032 3.09848 15.7468 3.05632C14.7832 3.01058 14.4773 3 12.0335 3C9.58966 3 9.28377 3.01058 8.32379 3.05274C7.36738 3.09491 6.70986 3.24971 6.14024 3.47113C5.53532 3.69969 4.99387 4.05132 4.54375 4.51201C4.08663 4.96213 3.73157 5.50716 3.50644 6.10493C3.28489 6.67812 3.13022 7.33207 3.08805 8.28848C3.04231 9.25203 3.03174 9.55792 3.03174 12.0018C3.03174 14.4456 3.04231 14.7515 3.08448 15.7115C3.12665 16.6679 3.28145 17.3254 3.50301 17.8951C3.73157 18.4999 4.08663 19.0414 4.54375 19.4915C4.99387 19.9486 5.5389 20.3038 6.13667 20.5288C6.70986 20.7504 7.36381 20.905 8.32035 20.9472C9.2802 20.9895 9.58623 20.9999 12.0301 20.9999C14.4739 20.9999 14.7798 20.9895 15.7398 20.9472C16.6962 20.905 17.3537 20.7504 17.9233 20.5288C19.133 20.0611 20.0894 19.1047 20.5571 17.8951C20.7785 17.322 20.9333 16.6679 20.9755 15.7115C21.0177 14.7515 21.0282 14.4456 21.0282 12.0018C21.0282 9.55792 21.0247 9.25203 20.9825 8.29205ZM19.3616 15.6411C19.3228 16.5202 19.1752 16.9949 19.0521 17.3114C18.7497 18.0956 18.1273 18.7179 17.3431 19.0204C17.0267 19.1434 16.5485 19.2911 15.6729 19.3297C14.7235 19.372 14.4387 19.3824 12.0371 19.3824C9.6354 19.3824 9.34709 19.372 8.40112 19.3297C7.52204 19.2911 7.04734 19.1434 6.73087 19.0204C6.34064 18.8761 5.98544 18.6476 5.69713 18.3487C5.39824 18.0568 5.16968 17.7052 5.02546 17.315C4.90239 16.9985 4.75473 16.5202 4.71613 15.6447C4.67383 14.6953 4.66339 14.4104 4.66339 12.0088C4.66339 9.60709 4.67383 9.31878 4.71613 8.37295C4.75473 7.49387 4.90239 7.01917 5.02546 6.7027C5.16968 6.31234 5.39824 5.95727 5.7007 5.66883C5.99245 5.36994 6.34408 5.14138 6.73444 4.99729C7.05091 4.87422 7.52918 4.72656 8.40469 4.68783C9.35409 4.64566 9.63897 4.63508 12.0405 4.63508C14.4457 4.63508 14.7305 4.64566 15.6764 4.68783C16.5555 4.72656 17.0302 4.87422 17.3467 4.99729C17.7369 5.14138 18.0921 5.36994 18.3804 5.66883C18.6793 5.96071 18.9079 6.31234 19.0521 6.7027C19.1752 7.01917 19.3228 7.49731 19.3616 8.37295C19.4037 9.32235 19.4143 9.60709 19.4143 12.0088C19.4143 14.4104 19.4037 14.6917 19.3616 15.6411Z" fill="currentColor"/>
<path d="M12.0331 7.37769C9.48037 7.37769 7.40918 9.44874 7.40918 12.0016C7.40918 14.5545 9.48037 16.6256 12.0331 16.6256C14.586 16.6256 16.6571 14.5545 16.6571 12.0016C16.6571 9.44874 14.586 7.37769 12.0331 7.37769ZM12.0331 15.0011C10.377 15.0011 9.03369 13.6579 9.03369 12.0016C9.03369 10.3454 10.377 9.00219 12.0331 9.00219C13.6894 9.00219 15.0326 10.3454 15.0326 12.0016C15.0326 13.6579 13.6894 15.0011 12.0331 15.0011Z" fill="currentColor"/>
<path d="M17.9198 7.1952C17.9198 7.79133 17.4365 8.27468 16.8402 8.27468C16.2441 8.27468 15.7607 7.79133 15.7607 7.1952C15.7607 6.59894 16.2441 6.11572 16.8402 6.11572C17.4365 6.11572 17.9198 6.59894 17.9198 7.1952Z" fill="currentColor"/>
</g>
<defs>
<clipPath id="clip0_458_19280">
<rect width="18" height="18" fill="currentColor" transform="translate(3 3)"/>
</clipPath>
</defs>
</svg>
