<svg viewBox="0 0 24 24" fill="currentColor" xmlns="http://www.w3.org/2000/svg">
<path fill-rule="evenodd" clip-rule="evenodd" d="M12 2C17.5228 2 22 6.47715 22 12C22 17.5228 17.5228 22 12 22C6.47715 22 2 17.5228 2 12C2 6.47715 6.47715 2 12 2ZM8.2871 4.35165C6.6916 5.12763 5.37526 6.38815 4.52947 7.94183C5.29094 8.06209 6.0231 8.16664 6.72591 8.2555C7.0654 6.93565 7.58615 5.63401 8.2871 4.35165ZM3.5 12C3.5 11.0794 3.64634 10.193 3.91704 9.36282C4.78782 9.50439 5.62325 9.62649 6.42341 9.7291C6.30782 10.4805 6.24993 11.2375 6.24993 12C6.24993 12.7625 6.30782 13.5195 6.42341 14.2709C5.62325 14.3735 4.78782 14.4956 3.91704 14.6372C3.64634 13.807 3.5 12.9206 3.5 12ZM4.52947 16.0582C5.37526 17.6118 6.6916 18.8724 8.28711 19.6484C7.58615 18.366 7.0654 17.0643 6.72591 15.7445C6.02311 15.8334 5.29094 15.9379 4.52947 16.0582ZM8.23243 15.5735C8.67451 17.1919 9.42101 18.7877 10.4746 20.3635C10.7293 20.4096 10.9879 20.4445 11.25 20.4674V15.3761C10.324 15.3995 9.31806 15.4653 8.23243 15.5735ZM12.75 15.3761V20.4674C13.012 20.4445 13.2707 20.4097 13.5254 20.3635C14.5789 18.7877 15.3254 17.1919 15.7675 15.5735C14.6819 15.4653 13.676 15.3995 12.75 15.3761ZM16.0853 14.098C14.8846 13.9745 13.7729 13.9003 12.75 13.8756V10.1244C13.7729 10.0997 14.8846 10.0255 16.0853 9.90199C16.1952 10.597 16.25 11.2963 16.25 12C16.25 12.7037 16.1952 13.403 16.0853 14.098ZM17.274 15.7445C16.9345 17.0644 16.4138 18.366 15.7128 19.6484C17.3084 18.8724 18.6247 17.6119 19.4705 16.0582C18.709 15.9379 17.9769 15.8333 17.274 15.7445ZM20.083 14.6372C19.2122 14.4956 18.3767 14.3735 17.5765 14.2709C17.6921 13.5195 17.75 12.7625 17.75 12C17.75 11.2375 17.6921 10.4805 17.5765 9.72912C18.3767 9.62651 19.2122 9.50441 20.083 9.36283C20.3537 10.193 20.5 11.0794 20.5 12C20.5 12.9206 20.3537 13.807 20.083 14.6372ZM11.25 13.8756C10.2271 13.9003 9.11539 13.9745 7.91466 14.098C7.80477 13.403 7.74993 12.7037 7.74993 12C7.74993 11.2963 7.80477 10.597 7.91466 9.90197C9.11539 10.0255 10.2271 10.0997 11.25 10.1244V13.8756ZM11.25 3.53263V8.62394C10.324 8.60051 9.31806 8.53473 8.23243 8.42649C8.67451 6.80808 9.42101 5.21229 10.4746 3.6365C10.7293 3.59035 10.9879 3.55555 11.25 3.53263ZM12.75 3.53263V8.62394C13.676 8.60052 14.6819 8.53474 15.7675 8.4265C15.3254 6.80808 14.5789 5.21229 13.5254 3.63649C13.2707 3.59034 13.012 3.55554 12.75 3.53263ZM15.7128 4.3516C17.3084 5.12758 18.6247 6.38813 19.4705 7.94185C18.709 8.06211 17.9769 8.16666 17.274 8.25553C16.9345 6.93565 16.4138 5.63399 15.7128 4.3516Z" fill="currentColor"/>
</svg>
