<svg viewBox="0 0 24 24" fill="currentColor" xmlns="http://www.w3.org/2000/svg">
<g clip-path="url(#clip0_458_19278)">
<path d="M20.9954 20.9997V20.9989H20.9999V14.3974C20.9999 11.1679 20.3047 8.68018 16.5292 8.68018C14.7142 8.68018 13.4962 9.67618 12.9989 10.6204H12.9464V8.98168H9.3667V20.9989H13.0942V15.0484C13.0942 13.4817 13.3912 11.9667 15.3314 11.9667C17.2432 11.9667 17.2717 13.7547 17.2717 15.1489V20.9997H20.9954Z" fill="currentColor"/>
<path d="M3.29688 8.98291H7.02888V21.0002H3.29688V8.98291Z" fill="currentColor"/>
<path d="M5.1615 3C3.96825 3 3 3.96825 3 5.1615C3 6.35475 3.96825 7.34325 5.1615 7.34325C6.35475 7.34325 7.323 6.35475 7.323 5.1615C7.32225 3.96825 6.354 3 5.1615 3V3Z" fill="currentColor"/>
</g>
<defs>
<clipPath id="clip0_458_19278">
<rect width="18" height="18" fill="currentColor" transform="translate(3 3)"/>
</clipPath>
</defs>
</svg>
