<svg viewBox="0 0 24 24" fill="currentColor" xmlns="http://www.w3.org/2000/svg">
<path d="M7.9399 10.2001C8.1139 10.3621 8.2089 10.5881 8.2089 10.8191L8.1819 11.0291C8.1049 11.3311 7.8699 11.5661 7.5689 11.6421L7.3589 11.6691C7.1269 11.6691 6.9019 11.5731 6.7399 11.4011L4.6339 9.2961C3.8339 8.4951 3.3999 7.4191 3.3999 6.3161C3.3999 5.9521 3.4469 5.5851 3.5429 5.2241C3.9329 3.7701 5.0689 2.6331 6.5239 2.2441C6.8849 2.1471 7.2509 2.1001 7.6149 2.1001C8.7179 2.1001 9.7949 2.5341 10.5959 3.3351L14.5659 7.3051C15.3819 8.1101 15.8209 9.1961 15.8209 10.3071C15.8209 10.7431 15.7529 11.1831 15.6139 11.6111C15.1189 13.1301 13.8099 14.2381 12.2299 14.4741L12.2229 14.4751H12.1009L12.0419 14.4781C11.6009 14.4781 11.2269 14.1381 11.1929 13.6911L11.1899 13.6251C11.1899 13.1851 11.5269 12.8161 11.9699 12.7781V12.7771C12.9069 12.6321 13.6829 11.9731 13.9779 11.0721C14.0619 10.8161 14.1019 10.5531 14.1019 10.2911C14.1019 9.6341 13.8439 8.9901 13.3649 8.5111L9.3949 4.5411C8.9169 4.0631 8.2729 3.8041 7.6149 3.8041C7.3979 3.8041 7.1789 3.8321 6.9639 3.8901C6.0959 4.1231 5.4169 4.8011 5.1849 5.6691C5.1269 5.8841 5.0989 6.1031 5.0989 6.3201C5.0989 6.9791 5.3569 7.6221 5.8359 8.1001L7.9409 10.1991L7.9399 10.2001Z" fill="currentColor"/>
<path d="M19.2593 14.7003C20.0393 15.4983 20.4653 16.5573 20.4653 17.6453C20.4653 18.0093 20.4183 18.3753 20.3213 18.7373C19.9323 20.1923 18.7963 21.3273 17.3413 21.7173H17.3403C16.9803 21.8143 16.6133 21.8613 16.2503 21.8613C15.1473 21.8613 14.0693 21.4273 13.2703 20.6253L9.2993 16.6573C8.4833 15.8513 8.0443 14.7653 8.0443 13.6553C8.0443 13.2183 8.1113 12.7783 8.2513 12.3503C8.7453 10.8313 10.0553 9.7233 11.6343 9.4873L11.7663 9.4773C12.0243 9.4773 12.2713 9.5933 12.4353 9.7983C12.5593 9.9533 12.6243 10.1433 12.6243 10.3353C12.6243 10.4403 12.6043 10.5463 12.5653 10.6473C12.4533 10.9333 12.1983 11.1373 11.8953 11.1843C10.9583 11.3293 10.1823 11.9873 9.8873 12.8883C9.8033 13.1453 9.7623 13.4093 9.7623 13.6703C9.7623 14.3283 10.0213 14.9703 10.5013 15.4503L14.4703 19.4203C14.9483 19.8983 15.5923 20.1573 16.2503 20.1573C16.4673 20.1573 16.6863 20.1283 16.9023 20.0713C17.7703 19.8383 18.4483 19.1603 18.6803 18.2923C18.7373 18.0773 18.7663 17.8573 18.7663 17.6403C18.7663 16.9823 18.5073 16.3393 18.0293 15.8613L15.9223 13.7533C15.7703 13.5903 15.6943 13.3813 15.6943 13.1733C15.6943 12.9573 15.7773 12.7393 15.9433 12.5733C16.1083 12.4073 16.3253 12.3243 16.5433 12.3243C16.7513 12.3243 16.9593 12.4003 17.1233 12.5523L17.1243 12.5543L19.2593 14.6893V14.7003Z" fill="currentColor"/>
</svg>
