<svg xmlns="http://www.w3.org/2000/svg" width="24" height="24" viewBox="0 0 24 24">
    <g fill="none" fill-rule="evenodd">
        <path fill="currentColor" d="M48 16.25c.414 0 .75.336.75.75 0 .38-.282.693-.648.743L48 17.75H32c-.414 0-.75-.336-.75-.75 0-.38.282-.693.648-.743L32 16.25h16zm0-5c.414 0 .75.336.75.75 0 .38-.282.693-.648.743L48 12.75H32c-.414 0-.75-.336-.75-.75 0-.38.282-.693.648-.743L32 11.25h16zm0-5c.414 0 .75.336.75.75 0 .38-.282.693-.648.743L48 7.75H32c-.414 0-.75-.336-.75-.75 0-.38.282-.693.648-.743L32 6.25h16z" transform="translate(-28)"/>
    </g>
</svg>
