<svg viewBox="0 0 24 24" fill="none" xmlns="http://www.w3.org/2000/svg">
<path fill-rule="evenodd" clip-rule="evenodd" d="M17.902 13.349L17.942 13.276C18.465 12.311 18.775 11.244 18.848 10.148C18.848 8.298 18.098 6.625 16.886 5.412C15.674 4.2 14 3.45 12.149 3.45C10.298 3.45 8.62402 4.2 7.41102 5.412C6.19902 6.625 5.44902 8.298 5.44902 10.148C5.51802 11.243 5.82302 12.309 6.34202 13.275C6.34248 13.2757 6.34457 13.279 6.34822 13.2848C6.4159 13.3925 7.02199 14.3564 7.83602 15.549C8.69702 16.814 9.78802 18.333 10.703 19.341C11.308 20.015 11.851 20.457 12.149 20.45C12.603 20.463 13.574 19.456 14.554 18.191C15.542 16.927 16.569 15.409 17.233 14.397C17.572 13.881 17.812 13.503 17.909 13.349H17.902ZM12.15 2C16.603 2.112 20.187 5.696 20.299 10.148V10.151V10.153C20.217 11.47 19.848 12.754 19.217 13.914H19.216V13.915L19.154 14.022C19.104 14.111 17.991 15.907 16.689 17.708C14.21 21.194 13.153 21.896 12.149 21.899C11.833 21.901 11.286 21.891 10.228 20.905C9.16702 19.919 7.57602 17.954 5.12702 14.028V14.027L5.12602 14.026L5.06202 13.914V13.913C4.43802 12.753 4.07402 11.468 4.00002 10.152L3.99902 10.15V10.148C4.11102 5.696 7.69502 2.112 12.147 2H12.149H12.15ZM9.94912 9.7C9.95112 10.915 10.9331 11.898 12.1491 11.9C13.3641 11.898 14.3461 10.915 14.3481 9.7C14.3461 8.485 13.3641 7.503 12.1491 7.5C10.9331 7.503 9.95112 8.485 9.94912 9.7ZM8.49912 9.7C8.49912 7.684 10.1321 6.049 12.1491 6.049C14.1651 6.049 15.7991 7.684 15.7991 9.7C15.7991 11.715 14.1651 13.349 12.1491 13.349C10.1321 13.349 8.49912 11.715 8.49912 9.7Z" fill="currentColor"/>
</svg>
