<svg width="24" height="25" viewBox="0 0 24 25" fill="none" xmlns="http://www.w3.org/2000/svg">
<path fill-rule="evenodd" clip-rule="evenodd" d="M12.149 2.77783C16.602 2.88983 20.186 6.47383 20.298 10.9258V10.9288V10.9308C20.216 12.2478 19.847 13.5318 19.216 14.6918H19.215V14.6928L19.153 14.7998C19.103 14.8888 17.99 16.6848 16.688 18.4858C14.209 21.9718 13.152 22.6738 12.148 22.6768C11.832 22.6788 11.285 22.6688 10.227 21.6828C9.16605 20.6968 7.57505 18.7318 5.12605 14.8058V14.8048L5.12505 14.8038L5.06105 14.6918V14.6908C4.43705 13.5308 4.07305 12.2458 3.99905 10.9298L3.99805 10.9278V10.9258C4.11005 6.47383 7.69405 2.88983 12.146 2.77783H12.148H12.149ZM9.94815 10.4778C9.95015 11.6928 10.9321 12.6758 12.1481 12.6778C13.3631 12.6758 14.3451 11.6928 14.3471 10.4778C14.3451 9.26283 13.3631 8.28083 12.1481 8.27783C10.9321 8.28083 9.95015 9.26283 9.94815 10.4778ZM8.49815 10.4778C8.49815 8.46183 10.1311 6.82683 12.1481 6.82683C14.1641 6.82683 15.7981 8.46183 15.7981 10.4778C15.7981 12.4928 14.1641 14.1268 12.1481 14.1268C10.1311 14.1268 8.49815 12.4928 8.49815 10.4778Z" fill="currentColor"/>
</svg>
