<svg viewBox="0 0 20 20" fill="none" xmlns="http://www.w3.org/2000/svg">
<path fill-rule="evenodd" clip-rule="evenodd" d="M9.99992 9.58325C8.84933 9.58325 7.91658 10.516 7.91658 11.6666C7.91658 12.5994 8.52969 13.3891 9.37492 13.6545V14.9999L9.38062 15.0847C9.42201 15.3898 9.68351 15.6249 9.99992 15.6249C10.3451 15.6249 10.6249 15.3451 10.6249 14.9999V13.6545C11.4701 13.3891 12.0833 12.5994 12.0833 11.6666C12.0833 10.516 11.1505 9.58325 9.99992 9.58325ZM9.99992 10.8333C10.4602 10.8333 10.8333 11.2063 10.8333 11.6666C10.8333 12.1268 10.4602 12.4999 9.99992 12.4999C9.53968 12.4999 9.16658 12.1268 9.16658 11.6666C9.16658 11.2063 9.53968 10.8333 9.99992 10.8333Z" fill="currentColor"/>
<path fill-rule="evenodd" clip-rule="evenodd" d="M4.16659 6.66658H5.8339C5.8735 4.12772 7.72353 2.08325 9.99992 2.08325C12.2763 2.08325 14.1263 4.12772 14.1659 6.66658H15.8333C16.2935 6.66658 16.6666 7.03968 16.6666 7.49992V17.4999C16.6666 17.9602 16.2935 18.3333 15.8333 18.3333H4.16659C3.70635 18.3333 3.33325 17.9602 3.33325 17.4999V7.49992C3.33325 7.03968 3.70635 6.66658 4.16659 6.66658ZM7.08714 6.5713C7.1672 4.741 8.47192 3.33325 9.99992 3.33325L10.1471 3.33761C11.6108 3.42451 12.8352 4.80004 12.9127 6.5713L12.9149 6.66575H7.08492L7.08714 6.5713ZM4.58325 7.91658V17.0833H15.4166V7.91658H4.58325Z" fill="currentColor"/>
</svg>
