<svg xmlns="http://www.w3.org/2000/svg" viewBox="0 0 60 60" fill="none" xmlns:v="https://vecta.io/nano"><style><![CDATA[.B{stroke:#fff}.C{fill-rule:evenodd}.D{stroke-width:.5}.E{stroke-width:3}]]></style><rect width="60" height="60" rx="4" fill="#e4e4e4"/><mask id="A" maskUnits="userSpaceOnUse" x="0" y="0" width="60" height="60"><rect width="60" height="60" rx="4" fill="#fff"/></mask><g mask="url(#A)"><path d="M25.5 53l-11.491-7.412s.356-2.176 4.438-1.088S29 51.764 29 51.764L25.5 53zM42.371 0s1.958 12.613-.706 16.196-3.743 8.304-3.743 8.304L39 26l6.424-.5L53-2.065 42.371 0z" fill="#d2e5ca" class="C"/><path d="M45 53.909s1.657-3.286 4.339-3.286 2.18 1.311 6.049-.56S61 47.668 61 48.192s-2.397 1.861-4.004 3.281-1.608 2.437-1.608 2.437.148-1.541-1.12-1.016-4.432 1.016-4.432 1.016.915.089-.507.594-4.329 0-4.329 0v-.594z" fill="#a8d3f0" class="C"/><path d="M40.204 48l11.813-4.419-8.353-9.333L60 32l1 16.407-15.466 5.879L40.204 48z" fill="#c2de91" class="C"/><path d="M0 45.588L14.009 60l-12.026.952L-4 49.918l4-4.33zM31.708 30L39 41.157 35.354 47 19 38.5 31.708 30z" fill="#dadada" class="C"/><path d="M23.666 7L12.209 32.898" class="B"/><path d="M6.694 8l-8 12m12.315-8L3 24" class="B D"/><path d="M10.873 12.38L2.14 14.776M14.009 15L6 28m10.009-10L8 31M60 4L48 26M45-4L33 18m24.947 4.288l-6.893-1.575m-3.953 16.362L40 47.203m-15.899 6.872L17 64.203m42.894-45.694L53 16.934m-11.106-.425L35 14.934" class="B D"/><path d="M42.894 13.509L36 11.934m26.894.575L56 10.934M68 4L56 26M39 41l-4 7" class="B D"/><path d="M31.407 30l4.07 5.623L39 41.265" class="B D"/><path d="M27.664 31l4.07 5.623 3.522 5.642m-4.854-7.496l-1.632 1.286-1.844 1.147m2.549 2.319l-1.631 1.286L26 41.954" stroke-width=".2" class="B"/><path d="M30.984 41.297l-1.397-1.538L28.314 38m1.67 6.297l-1.397-1.538L27.314 41m5.67-5.703l-1.397-1.538L30.314 32" stroke-width=".2" class="B"/><path d="M15.559 26l9.487 7.681m-5.408-17.485l7.884 6.974 9.04 2.33" stroke-width=".8" class="B"/><path d="M-7 26.278S6.222 46.012 22.255 53.704s35.178 8.205 35.178 8.205" stroke="#a8d3f0" stroke-width="7"/><path d="M42.122 0s1.573 18.59-6.818 26.586S11.009 40.497 4.371 51" class="B E"/><path d="M61 53L36 26m36.779-1.286L36 25.868" stroke-width="2" class="B"/><path d="M18.447 63.936L-7.932 38.281" class="B E"/><path d="M17.908 0L30 13.41l5.77-8.013L33 0H17.908z" fill="#c2de91" class="C"/><path d="M38 23L13-4" class="B"/><path d="M63.353 39.037L11 57.776" stroke-width="2" class="B"/><path d="M18 20L-7-7" class="B"/><path d="M-2 9s4.102 18.925 18.875 29.105S37.903 44.74 46.7 55.528 44.503 93 44.503 93" stroke="#fece5b" class="E"/></g><ellipse cx="44.823" cy="32.06" rx="5.029" ry="7.305" transform="rotate(47 44.823 32.06)" fill="url(#B)"/><path d="M32.377 26.428A7.43 7.43 0 0 1 39.804 19a7.43 7.43 0 0 1 7.427 7.428c0 4.166-3.511 6.48-4.921 7.409l-.513.359c-.618.556-1.128 1.802-1.334 2.508a.7.7 0 0 1-.659.524.7.7 0 0 1-.659-.524c-.206-.706-.716-1.952-1.334-2.508-.089-.08-.27-.199-.513-.359-1.409-.929-4.92-3.243-4.92-7.408zm5.401 0c0 1.119.907 2.026 2.025 2.026s2.025-.907 2.025-2.026-.907-2.026-2.025-2.026-2.025.907-2.025 2.026z" fill="#ff5537" class="C"/><defs><linearGradient id="B" x1="39.795" y1="24.755" x2="39.795" y2="39.365" gradientUnits="userSpaceOnUse"><stop stop-opacity=".01"/><stop offset="1" stop-opacity=".242"/></linearGradient></defs></svg>