<svg viewBox="0 0 24 24" fill="currentColor" xmlns="http://www.w3.org/2000/svg">
<path fill-rule="evenodd" clip-rule="evenodd" d="M4.62984 5.94209L8.75105 4.14154C9.18301 3.95282 9.66548 3.95282 10.0974 4.14154L14.4796 6.0561C14.5413 6.08306 14.6102 6.08306 14.6719 6.0561L18.0238 4.59168C18.2378 4.49819 18.4663 4.45014 18.697 4.45014C19.6928 4.45014 20.5 5.32643 20.5 6.40739V16.2759C20.5 17.0793 20.0477 17.8012 19.3593 18.0963L15.2381 19.8632C14.8125 20.0456 14.339 20.0456 13.9134 19.8632L9.51886 17.9791C9.45807 17.953 9.39042 17.953 9.32963 17.9791L5.96534 19.4215C5.75446 19.5119 5.52976 19.5583 5.30303 19.5583C4.30724 19.5583 3.5 18.682 3.5 17.601V7.7578C3.5 6.959 3.94719 6.24034 4.62984 5.94209ZM13.5125 7.44199L10.1 5.95108V16.4245L13.5 17.8822V7.58C13.5 7.53291 13.5043 7.48679 13.5125 7.44199ZM15.1 7.66941V18.1186L18.7916 16.536C18.8899 16.4938 18.9545 16.3907 18.9545 16.2759V6.40739C18.9545 6.25297 18.8392 6.12778 18.697 6.12778C18.664 6.12778 18.6314 6.13465 18.6008 6.148L15.249 7.61242C15.1999 7.63385 15.1502 7.65285 15.1 7.66941ZM5.20686 7.49842L8.5 6.05965V16.531L5.39765 17.8611C5.36752 17.874 5.33542 17.8806 5.30303 17.8806C5.16078 17.8806 5.04545 17.7555 5.04545 17.601V7.7578C5.04545 7.64369 5.10934 7.54102 5.20686 7.49842Z" fill="currentColor"/>
</svg>
