<svg  viewBox="0 0 20 20" fill="currentColor" xmlns="http://www.w3.org/2000/svg">
<path fill-rule="evenodd" clip-rule="evenodd" d="M9.95898 2.25C7.31262 2.25 5.16732 4.3953 5.16732 7.04167C5.16732 8.64469 5.95449 10.0639 7.16338 10.9337C4.06944 11.738 1.83398 13.8448 1.83398 16.3935C1.83398 17.1563 2.57219 17.6667 3.39648 17.6667H16.5215C16.8924 17.6667 17.255 17.5628 17.5398 17.3659C17.8749 17.1343 18.084 16.7853 18.084 16.3935C18.084 13.8448 15.8485 11.738 12.7546 10.9337C13.9635 10.0639 14.7507 8.64469 14.7507 7.04167C14.7507 5.77084 14.2458 4.55206 13.3472 3.65345C12.4486 2.75483 11.2298 2.25 9.95898 2.25ZM9.95898 10.5833C11.915 10.5833 13.5007 8.99767 13.5007 7.04167C13.5007 6.10236 13.1275 5.20152 12.4633 4.53733C11.7991 3.87314 10.8983 3.5 9.95898 3.5C8.00298 3.5 6.41732 5.08566 6.41732 7.04167C6.41732 8.99767 8.00298 10.5833 9.95898 10.5833ZM9.95898 11.8333C6.12337 11.8333 3.08398 13.9346 3.08398 16.3925L3.09021 16.38C3.10055 16.3739 3.12383 16.3791 3.16044 16.3874C3.21215 16.399 3.29047 16.4167 3.39648 16.4167H16.5215C16.6478 16.4167 16.7621 16.3839 16.8323 16.3358L16.83 16.2403C16.7096 13.8989 13.8407 11.9192 10.1977 11.8361L9.95898 11.8333Z" fill="currentColor"/>
</svg>
