<svg width="20" height="20" viewBox="0 0 20 20" fill="none" xmlns="http://www.w3.org/2000/svg">
<path fill-rule="evenodd" clip-rule="evenodd" d="M4.16732 6.74967C4.16732 4.10331 6.31262 1.95801 8.95898 1.95801C10.2298 1.95801 11.4486 2.46284 12.3472 3.36145C13.2458 4.26007 13.7506 5.47885 13.7506 6.74967C13.7506 8.3527 12.9635 9.77187 11.7546 10.6417C11.9112 10.6824 12.0656 10.7265 12.2176 10.7738C11.8801 11.0768 11.5924 11.4342 11.3681 11.8322C10.6908 11.6622 9.96121 11.5615 9.19765 11.5441L8.95898 11.5413C5.12337 11.5413 2.08398 13.6426 2.08398 16.1005L2.09021 16.0881C2.10055 16.0819 2.12383 16.0872 2.16044 16.0954C2.21215 16.107 2.29047 16.1247 2.39648 16.1247H11.4931C11.8145 16.6247 12.24 17.0516 12.7389 17.3747H2.39648C1.57219 17.3747 0.833984 16.8643 0.833984 16.1015C0.833984 13.5528 3.06944 11.446 6.16338 10.6417C4.95449 9.77187 4.16732 8.3527 4.16732 6.74967ZM11.4633 4.24534C12.1275 4.90953 12.5007 5.81037 12.5007 6.74967C12.5007 8.70568 10.915 10.2913 8.95898 10.2913C7.00298 10.2913 5.41732 8.70568 5.41732 6.74967C5.41732 4.79367 7.00298 3.20801 8.95898 3.20801C9.89829 3.20801 10.7991 3.58115 11.4633 4.24534Z" fill="currentColor"/>
<path fill-rule="evenodd" clip-rule="evenodd" d="M13.4794 12.3535C13.6733 12.1596 13.9876 12.1596 14.1815 12.3535L15.0007 13.1726L15.8198 12.3535C16.0137 12.1597 16.328 12.1597 16.5219 12.3535C16.7158 12.5474 16.7158 12.8618 16.5219 13.0556L15.7028 13.8747L16.5219 14.6938C16.7158 14.8877 16.7158 15.202 16.5219 15.3959C16.328 15.5898 16.0137 15.5898 15.8198 15.3959L15.0007 14.5768L14.1815 15.396C13.9876 15.5899 13.6733 15.5899 13.4794 15.396C13.2855 15.2021 13.2855 14.8878 13.4794 14.6939L14.2986 13.8747L13.4794 13.0556C13.2855 12.8617 13.2855 12.5473 13.4794 12.3535Z" fill="currentColor"/>
<path fill-rule="evenodd" clip-rule="evenodd" d="M15.0006 16.7914C16.6115 16.7914 17.9173 15.4855 17.9173 13.8747C17.9173 12.2639 16.6115 10.958 15.0006 10.958C13.3898 10.958 12.084 12.2639 12.084 13.8747C12.084 15.4855 13.3898 16.7914 15.0006 16.7914ZM15.0006 18.0414C17.3018 18.0414 19.1673 16.1759 19.1673 13.8747C19.1673 11.5735 17.3018 9.70805 15.0006 9.70805C12.6995 9.70805 10.834 11.5735 10.834 13.8747C10.834 16.1759 12.6995 18.0414 15.0006 18.0414Z" fill="currentColor"/>
</svg>
