<svg width="24" height="24" viewBox="0 0 24 24" fill="none" xmlns="http://www.w3.org/2000/svg"><g id="Icon&#239;&#189;&#156;System, Social"><g id="more"><path d="M20 6.25C20.4142 6.25 20.75 6.58579 20.75 7C20.75 7.3797 20.4678 7.69349 20.1018 7.74315L20 7.75H4C3.58579 7.75 3.25 7.41421 3.25 7C3.25 6.6203 3.53215 6.30651 3.89823 6.25685L4 6.25H20Z" fill="currentColor"/><path d="M20 11.25C20.4142 11.25 20.75 11.5858 20.75 12C20.75 12.3797 20.4678 12.6935 20.1018 12.7432L20 12.75H4C3.58579 12.75 3.25 12.4142 3.25 12C3.25 11.6203 3.53215 11.3065 3.89823 11.2568L4 11.25H20Z" fill="currentColor"/><path d="M20.75 17C20.75 16.5858 20.4142 16.25 20 16.25H4L3.89823 16.2568C3.53215 16.3065 3.25 16.6203 3.25 17C3.25 17.4142 3.58579 17.75 4 17.75H20L20.1018 17.7432C20.4678 17.6935 20.75 17.3797 20.75 17Z" fill="currentColor"/></g></g></svg>
