<svg width="12" height="12" viewBox="0 0 12 12" fill="none" xmlns="http://www.w3.org/2000/svg">
<path d="M3.5 11.5C3.225 11.5 2.98958 11.4021 2.79375 11.2063C2.59792 11.0104 2.5 10.775 2.5 10.5V1.5C2.5 1.225 2.59792 0.989583 2.79375 0.79375C2.98958 0.597917 3.225 0.5 3.5 0.5H8.5C8.775 0.5 9.01042 0.597917 9.20625 0.79375C9.40208 0.989583 9.5 1.225 9.5 1.5V10.5C9.5 10.775 9.40208 11.0104 9.20625 11.2063C9.01042 11.4021 8.775 11.5 8.5 11.5H3.5ZM3.5 9V10.5H8.5V9H3.5ZM6 10.25C6.14167 10.25 6.26042 10.2021 6.35625 10.1062C6.45208 10.0104 6.5 9.89167 6.5 9.75C6.5 9.60833 6.45208 9.48958 6.35625 9.39375C6.26042 9.29792 6.14167 9.25 6 9.25C5.85833 9.25 5.73958 9.29792 5.64375 9.39375C5.54792 9.48958 5.5 9.60833 5.5 9.75C5.5 9.89167 5.54792 10.0104 5.64375 10.1062C5.73958 10.2021 5.85833 10.25 6 10.25ZM3.5 8H8.5V3H3.5V8ZM3.5 2H8.5V1.5H3.5V2Z" fill="currentColor"/>
</svg>
