<svg viewBox="0 0 24 24" fill="currentColor" xmlns="http://www.w3.org/2000/svg">
<path d="M10.125 9.375C10.125 10.4089 10.9661 11.25 12 11.25C13.861 11.25 15.375 12.764 15.375 14.625C15.375 16.2282 14.251 17.5729 12.75 17.915V18.75C12.75 19.1642 12.4142 19.5 12 19.5C11.5858 19.5 11.25 19.1642 11.25 18.75V17.915C9.74897 17.5729 8.625 16.2282 8.625 14.625C8.625 14.2108 8.96077 13.875 9.375 13.875C9.78923 13.875 10.125 14.2108 10.125 14.625C10.125 15.6589 10.9661 16.5 12 16.5C13.0339 16.5 13.875 15.6589 13.875 14.625C13.875 13.5911 13.0339 12.75 12 12.75C10.139 12.75 8.625 11.236 8.625 9.375C8.625 7.77183 9.74897 6.42712 11.25 6.08503V5.25C11.25 4.83581 11.5858 4.5 12 4.5C12.4142 4.5 12.75 4.83581 12.75 5.25V6.08503C14.251 6.42712 15.375 7.77183 15.375 9.375C15.375 9.78919 15.0392 10.125 14.625 10.125C14.2108 10.125 13.875 9.78919 13.875 9.375C13.875 8.34113 13.0339 7.5 12 7.5C10.9661 7.5 10.125 8.34113 10.125 9.375Z" fill="currentColor"/>
<path fill-rule="evenodd" clip-rule="evenodd" d="M12 2C17.5228 2 22 6.47715 22 12C22 17.5228 17.5228 22 12 22C6.47715 22 2 17.5228 2 12C2 6.47715 6.47715 2 12 2ZM12 3.5C7.30558 3.5 3.5 7.30558 3.5 12C3.5 16.6944 7.30558 20.5 12 20.5C16.6944 20.5 20.5 16.6944 20.5 12C20.5 7.30558 16.6944 3.5 12 3.5Z" fill="currentColor"/>
</svg>
