<svg viewBox="0 0 24 24" fill="currentColor" xmlns="http://www.w3.org/2000/svg">
<path d="M3 4.5C2.44772 4.5 2 4.94772 2 5.5V18.5C2 19.0523 2.44772 19.5 3 19.5H21C21.5523 19.5 22 19.0523 22 18.5V12L21.9932 11.8982C21.9435 11.5322 21.6297 11.25 21.25 11.25C20.8358 11.25 20.5 11.5858 20.5 12V18H3.5V10.25H15L15.1018 10.2432C15.4678 10.1935 15.75 9.8797 15.75 9.5C15.75 9.08579 15.4142 8.75 15 8.75H3.5V6H15L15.1018 5.99315C15.4678 5.94349 15.75 5.6297 15.75 5.25C15.75 4.83579 15.4142 4.5 15 4.5H3Z" fill="currentColor"/>
<path d="M19.75 4.5C20.1642 4.5 20.5 4.83579 20.5 5.25V6.5H21.75C22.1642 6.5 22.5 6.83579 22.5 7.25C22.5 7.6297 22.2178 7.94349 21.8518 7.99315L21.75 8H20.5V9.25L20.4932 9.35177C20.4435 9.71785 20.1297 10 19.75 10C19.3358 10 19 9.66421 19 9.25V8H17.75C17.3358 8 17 7.66421 17 7.25C17 6.8703 17.2822 6.55651 17.6482 6.50685L17.75 6.5H19V5.25L19.0068 5.14823C19.0565 4.78215 19.3703 4.5 19.75 4.5Z" fill="currentColor"/>
</svg>
