<svg width="60" height="60" viewBox="0 0 60 60" fill="none" xmlns="http://www.w3.org/2000/svg">
<circle cx="30" cy="30" r="30" fill="#FFF7E6"/>
<path fill-rule="evenodd" clip-rule="evenodd" d="M38.5537 42.6184C39.028 42.644 39.502 42.5639 39.9429 42.3837C40.3839 42.2035 40.7811 41.9274 41.1071 41.5747C41.4331 41.222 41.68 40.801 41.8307 40.3411C41.9815 39.8811 42.0324 39.3932 41.98 38.9111V28.6347C41.98 21.3371 38.4646 17.3826 32.0068 17.3826C30.6684 17.3088 29.3308 17.5442 28.0937 18.0712C27.8213 18.1872 27.5554 18.3167 27.2967 18.459C26.3871 18.9596 25.5677 19.6189 24.8765 20.4091C24.8714 20.4149 24.8664 20.4207 24.8613 20.4266H24.7722C24.767 20.3957 24.7614 20.365 24.7555 20.3345C24.606 19.571 24.196 18.8851 23.5969 18.4003C23.411 18.2498 23.2107 18.1218 23.0002 18.0177C22.5052 17.7729 21.9535 17.6597 21.3968 17.6948C20.9268 17.6728 20.4577 17.7554 20.0219 17.9368C19.5862 18.1182 19.1943 18.3941 18.8732 18.7454C18.5522 19.0968 18.3098 19.5152 18.1627 19.9716C18.0157 20.4281 17.9675 20.9118 18.0215 21.3891V38.9111C17.9677 39.3891 18.0159 39.8732 18.1629 40.3303C18.3099 40.7874 18.5522 41.2065 18.8729 41.5588C19.1937 41.9112 19.5854 42.1883 20.0211 42.3712C20.4568 42.5541 20.9261 42.6385 21.3968 42.6184C21.8706 42.6443 22.3442 42.5643 22.7846 42.384C23.225 42.2037 23.6216 41.9274 23.9466 41.5744C24.2716 41.2214 24.5173 40.8001 24.6665 40.3402C24.8157 39.8802 24.8648 39.3925 24.8104 38.9111V30.1046C24.8104 26.0981 26.9502 23.7176 30.2236 23.7176C33.4971 23.7176 35.1784 25.6948 35.1784 29.4412V38.9111C35.1246 39.3891 35.1729 39.8732 35.3199 40.3303C35.4669 40.7874 35.7091 41.2065 36.0298 41.5588C36.3506 41.9112 36.7423 42.1883 37.178 42.3712C37.6137 42.5541 38.0831 42.6385 38.5537 42.6184Z" fill="#FFB005"/>
</svg>
