<svg width="4" height="4" viewBox="0 0 4 4" fill="none" xmlns="http://www.w3.org/2000/svg">
<path fill-rule="evenodd" clip-rule="evenodd" d="M3.17851 0.845199C3.82938 1.49607 3.82939 2.55135 3.17851 3.20222C2.52764 3.8531 1.47236 3.8531 0.821489 3.20222C0.170615 2.55135 0.170615 1.49607 0.821489 0.845199C1.47236 0.194325 2.52764 0.194325 3.17851 0.845199ZM0.998265 3.02545C1.51767 3.54485 2.34005 3.57662 2.89652 3.12075L0.916282 1.14057L0.903383 1.12667C0.447073 1.68315 0.4787 2.50588 0.998265 3.02545ZM3.00173 1.02198C2.47406 0.494301 1.63368 0.469914 1.0771 0.948816L1.09306 0.96379L3.07544 2.94597C3.55378 2.38939 3.52921 1.54945 3.00173 1.02198Z" fill="currentColor"/>
</svg>
