<svg xmlns="http://www.w3.org/2000/svg" width="24" height="24" viewBox="0 0 24 24">
    <g fill="none" fill-rule="evenodd">
        <path fill="currentColor" d="M5.765 16.707h11.838c.247.652.646 1.232 1.16 1.7H4.605c.514-.468.913-1.048 1.16-1.7zm5.917-13.274c.42.037.78.298.962.673-.318-.06-.64-.1-.962-.1-.322 0-.645.04-.963.1.184-.375.542-.636.963-.673zm-4.9 7.375c0-1.247.52-2.587 1.393-3.613.873-1.027 2.098-1.738 3.507-1.738 1.41 0 2.633.71 3.506 1.738.874 1.026 1.393 2.366 1.393 3.613-.002.092-.002.184-.002.276 0 1.407.174 2.808.517 4.174H6.268c.341-1.363.517-2.762.517-4.166 0-.094 0-.19-.003-.284zm4.867 9.688h-.027c-.607 0-1.186-.236-1.634-.643h3.28c-.443.403-1.016.638-1.618.643zm8.59-1.637c.045-.138.067-.28.067-.42 0-.442-.222-.868-.607-1.12v-.001c-.174-.161-1.666-1.678-1.667-6.51v-.001c-.036-1.667-.65-3.27-1.74-4.531v-.001c-.579-.692-1.294-1.255-2.099-1.657v-.093C14.193 3.13 13.063 2 11.668 2c-1.394 0-2.525 1.13-2.525 2.525v.093c-.805.403-1.52.965-2.099 1.657C5.955 7.538 5.34 9.14 5.305 10.807c0 4.824-1.489 6.337-1.663 6.498-.405.247-.643.683-.643 1.14 0 .129.02.259.058.387.183.602.737 1.012 1.364 1.012h4.345c-.09.125-.147.267-.147.413 0 .179.068.359.201.498.735.756 1.745 1.182 2.8 1.182 1.053 0 2.062-.426 2.797-1.182l.001-.001c.124-.137.187-.31.187-.483 0-.142-.053-.278-.136-.4h4.405c.626 0 1.181-.41 1.364-1.011h.001v-.001z"/>
    </g>
</svg>
