<svg width="20" height="20" viewBox="0 0 20 20" fill="currentColor" xmlns="http://www.w3.org/2000/svg">
<g id="Icon/system icon">
<path id="now" fill-rule="evenodd" clip-rule="evenodd" d="M3.50331 10.9055L8.73692 0.788242C9.11209 0.0629864 9.98653 -0.211412 10.69 0.175357C11.1605 0.433997 11.4544 0.938899 11.4544 1.48855V6.71246C11.4544 6.82988 11.5467 6.92507 11.6606 6.92507H15.2232C16.0205 6.92507 16.6668 7.59138 16.6668 8.41332C16.6668 8.65862 16.608 8.90012 16.4956 9.11633L11.246 19.2145C10.8694 19.9389 9.99436 20.2115 9.29162 19.8232C8.82262 19.5641 8.52992 19.06 8.52992 18.5115V13.3066C8.52992 13.1892 8.43758 13.094 8.32368 13.094H4.77713C3.97983 13.094 3.3335 12.4277 3.3335 11.6058C3.3335 11.3615 3.39182 11.121 3.50331 10.9055ZM10.217 1.48849C10.217 1.40997 10.175 1.33784 10.1078 1.30089L10.0559 1.28099C9.96761 1.26049 9.87341 1.3021 9.82875 1.38844L4.59514 11.5057C4.57921 11.5365 4.57088 11.5708 4.57088 11.6057C4.57088 11.7231 4.66322 11.8183 4.77712 11.8183H8.32367C9.12097 11.8183 9.7673 12.4846 9.7673 13.3066V18.5114C9.7673 18.5898 9.80912 18.6618 9.87612 18.6988C9.97651 18.7543 10.1015 18.7153 10.1553 18.6118L15.405 8.51369C15.421 8.48281 15.4294 8.44831 15.4294 8.41326C15.4294 8.29584 15.3371 8.20065 15.2232 8.20065H11.6606C10.8633 8.20065 10.217 7.53434 10.217 6.7124V1.48849Z" fill="currentColor"/>
</g>
</svg>
