<svg viewBox="0 0 24 24" fill="currentColor" xmlns="http://www.w3.org/2000/svg">
<g id="Icon/system icon">
<path id="Combined Shape" fill-rule="evenodd" clip-rule="evenodd" d="M11.9502 2.7002C8.77456 2.7002 6.2002 5.27456 6.2002 8.4502C6.2002 10.3738 7.1448 12.0768 8.59547 13.1207C4.88274 14.0858 2.2002 16.6139 2.2002 19.6724C2.2002 20.5878 3.08605 21.2002 4.0752 21.2002H19.8252C20.2703 21.2002 20.7055 21.0756 21.0472 20.8393C21.4493 20.5613 21.7002 20.1425 21.7002 19.6724C21.7002 16.6139 19.0176 14.0858 15.3049 13.1207C16.7556 12.0768 17.7002 10.3738 17.7002 8.4502C17.7002 6.9252 17.0944 5.46267 16.0161 4.38433C14.9377 3.306 13.4752 2.7002 11.9502 2.7002ZM11.9502 12.7002C14.2974 12.7002 16.2002 10.7974 16.2002 8.4502C16.2002 7.32303 15.7524 6.24202 14.9554 5.44499C14.1584 4.64796 13.0774 4.2002 11.9502 4.2002C9.60299 4.2002 7.7002 6.10299 7.7002 8.4502C7.7002 10.7974 9.60299 12.7002 11.9502 12.7002ZM11.9502 14.2002C7.34746 14.2002 3.7002 16.7218 3.7002 19.6712L3.70767 19.6563C3.72008 19.6489 3.74801 19.6552 3.79194 19.6651C3.854 19.679 3.94798 19.7002 4.0752 19.7002H19.8252C19.9768 19.7002 20.114 19.6609 20.1982 19.6032L20.1955 19.4886C20.051 16.6789 16.6083 14.3033 12.2366 14.2035L11.9502 14.2002Z" fill="currentColor"/>
</g>
</svg>
