<svg viewBox="0 0 24 24" fill="currentColor" xmlns="http://www.w3.org/2000/svg">
<path fill-rule="evenodd" clip-rule="evenodd" d="M20.515 18.2885L20.21 18.5925L17.14 15.5225L17.445 15.2195C17.529 15.1355 17.638 15.0935 17.748 15.0935C17.86 15.0935 17.968 15.1355 18.052 15.2195L20.514 17.6805C20.599 17.7645 20.64 17.8735 20.64 17.9845C20.64 18.0955 20.599 18.2045 20.515 18.2885ZM16.104 20.6465C14.839 20.6465 13.576 20.1625 12.596 19.1845L4.912 11.4965C3.938 10.5215 3.452 9.25451 3.452 7.98651C3.452 6.91351 3.811 5.84651 4.506 4.95051L7.56 8.00451C7.184 8.48051 6.988 9.05151 6.988 9.62651C6.988 10.2985 7.244 10.9715 7.757 11.4845L12.607 16.3375C13.12 16.8515 13.794 17.1085 14.466 17.1075C15.04 17.1085 15.612 16.9115 16.088 16.5355L19.142 19.5895C18.245 20.2855 17.178 20.6465 16.104 20.6465ZM5.806 3.58651L5.807 3.58551C5.891 3.50151 6 3.45951 6.111 3.45951C6.222 3.45951 6.331 3.50151 6.415 3.58651L8.877 6.03951C8.962 6.12351 9.002 6.23251 9.002 6.34351C9.002 6.45451 8.961 6.56351 8.876 6.64751L8.573 6.95151L5.505 3.88451L5.806 3.58651ZM21.547 16.6475L19.084 14.1865C18.716 13.8185 18.232 13.6335 17.748 13.6345C17.265 13.6335 16.78 13.8185 16.411 14.1865L15.292 15.3055C15.065 15.5325 14.767 15.6465 14.467 15.6465C14.167 15.6465 13.869 15.5325 13.641 15.3055L8.791 10.4525C8.562 10.2235 8.449 9.92451 8.449 9.62551C8.449 9.32651 8.562 9.02851 8.791 8.79951C8.971 8.61951 9.489 8.10151 9.91 7.68051C10.278 7.31251 10.463 6.82751 10.463 6.34251C10.463 5.86051 10.28 5.37651 9.91 5.00651L7.446 2.55051L7.448 2.55251C7.079 2.18451 6.594 1.99951 6.111 1.99951C5.627 1.99951 5.144 2.18351 4.777 2.55151C4.27 3.05351 4.107 3.21451 3.88 3.44051H3.879C2.626 4.69351 2 6.34051 2 7.98651C2 9.63051 2.626 11.2765 3.878 12.5285L11.563 20.2165C12.819 21.4725 14.463 22.1005 16.107 22.1005C17.751 22.1005 19.396 21.4725 20.652 20.2165H20.651L21.547 19.3215C21.915 18.9535 22.1 18.4685 22.1 17.9845C22.1 17.5015 21.915 17.0165 21.547 16.6475Z" fill="currentColor"/>
</svg>
