<svg viewBox="0 0 24 24" fill="currentColor" xmlns="http://www.w3.org/2000/svg">
<path fill-rule="evenodd" clip-rule="evenodd" d="M14.8714 2.56265C15.2081 2.32144 15.6766 2.39888 15.9178 2.73561L22.0323 11.2716C22.2735 11.6083 22.1961 12.0768 21.8594 12.3181C21.5226 12.5593 21.0541 12.4818 20.8129 12.1451L19.8316 10.7752L12.0451 17.9716L13.4247 19.8976C13.6659 20.2343 13.5885 20.7028 13.2518 20.944C12.915 21.1852 12.4465 21.1078 12.2053 20.7711L8.85688 16.0966L4.14153 19.4743C3.80479 19.7155 3.33628 19.6381 3.09507 19.3014C2.85386 18.9646 2.93129 18.4961 3.26803 18.2549L7.98338 14.8772L3.76146 8.9833C3.52025 8.64656 3.59769 8.17805 3.93442 7.93684C4.27116 7.69563 4.73967 7.77306 4.98089 8.1098L6.602 10.3729L15.9207 5.31543L14.6984 3.60911C14.4572 3.27238 14.5346 2.80386 14.8714 2.56265ZM16.801 6.54435L18.9513 9.54622L11.1648 16.7427L7.4823 11.6018L16.801 6.54435Z" fill="currentColor"/>
</svg>
