<svg viewBox="0 0 24 24" fill="currentColor" xmlns="http://www.w3.org/2000/svg">
<path fill-rule="evenodd" clip-rule="evenodd" d="M22 12C22 6.47715 17.5228 2 12 2C6.47715 2 2 6.47715 2 12C2 17.5228 6.47715 22 12 22C17.5228 22 22 17.5228 22 12ZM3.5 12C3.5 7.30558 7.30558 3.5 12 3.5C16.6944 3.5 20.5 7.30558 20.5 12C20.5 16.6944 16.6944 20.5 12 20.5C7.30558 20.5 3.5 16.6944 3.5 12ZM17 11.25C17.4142 11.25 17.75 11.5858 17.75 12C17.75 12.3797 17.4678 12.6935 17.1018 12.7432L17 12.75H12.75V17C12.75 17.4142 12.4142 17.75 12 17.75C11.6203 17.75 11.3065 17.4678 11.2568 17.1018L11.25 17V12.75H7C6.58579 12.75 6.25 12.4142 6.25 12C6.25 11.6203 6.53215 11.3065 6.89823 11.2568L7 11.25H11.25V7C11.25 6.58579 11.5858 6.25 12 6.25C12.3797 6.25 12.6935 6.53215 12.7432 6.89823L12.75 7V11.25H17Z" fill="currentColor"/>
</svg>
