<svg width="16" height="16" viewBox="0 0 16 16" fill="currentColor" xmlns="http://www.w3.org/2000/svg">
<g id="Icon/system icon">
<path id="Union" fill-rule="evenodd" clip-rule="evenodd" d="M7.99967 2.66675C8.23722 2.66675 8.42978 2.85931 8.42978 3.09686V3.78503C8.42978 3.79345 8.42954 3.80182 8.42906 3.81012C9.17653 3.90064 9.70541 4.22764 10.053 4.65245C10.4491 5.13664 10.5803 5.71123 10.5803 6.10761C10.5803 6.34515 10.3878 6.53772 10.1502 6.53772C9.91267 6.53772 9.7201 6.34515 9.7201 6.10761C9.7201 5.87316 9.63623 5.50152 9.38722 5.19717C9.1528 4.91066 8.74146 4.64524 7.99967 4.64524C7.25763 4.64524 6.82694 4.91133 6.5725 5.20594C6.30805 5.51215 6.20619 5.88265 6.19326 6.11755C6.19579 6.44376 6.32292 6.82666 6.60228 7.12597C6.87588 7.41911 7.31786 7.65599 7.99967 7.65599C8.90195 7.65599 9.56214 7.97962 9.99174 8.46903C10.4085 8.94385 10.5781 9.54001 10.5803 10.0546C10.5964 10.4448 10.4807 11.0025 10.0854 11.471C9.73527 11.8859 9.19659 12.1948 8.42978 12.2785V12.9033C8.42978 13.1408 8.23722 13.3334 7.99967 13.3334C7.76213 13.3334 7.56957 13.1408 7.56957 12.9033V12.2787C6.8 12.1953 6.25286 11.8876 5.88937 11.4798C5.47415 11.014 5.33301 10.456 5.33301 10.0646C5.33301 9.82706 5.52557 9.63449 5.76312 9.63449C6.00066 9.63449 6.19322 9.82706 6.19322 10.0646C6.19322 10.2753 6.27574 10.6205 6.53149 10.9074C6.77458 11.1801 7.2105 11.4409 7.99967 11.4409C8.78918 11.4409 9.20508 11.1804 9.42795 10.9163C9.66417 10.6363 9.73066 10.2966 9.72059 10.0851C9.72027 10.0782 9.7201 10.0714 9.7201 10.0646C9.7201 9.72126 9.60534 9.33281 9.34525 9.03651C9.09528 8.75173 8.6802 8.51621 7.99967 8.51621C7.09869 8.51621 6.4224 8.19396 5.97341 7.71291C5.53303 7.24107 5.33301 6.63948 5.33301 6.10761C5.33301 6.1011 5.33316 6.09458 5.33345 6.08808C5.35147 5.69156 5.50855 5.1218 5.92147 4.64369C6.28253 4.22562 6.82032 3.90011 7.57028 3.80998C7.56981 3.80172 7.56957 3.7934 7.56957 3.78503V3.09686C7.56957 2.85931 7.76213 2.66675 7.99967 2.66675Z" fill="currentColor"/>
</g>
</svg>
