<svg xmlns="http://www.w3.org/2000/svg" width="24" height="24" viewBox="0 0 24 24">
    <g fill="none" fill-rule="evenodd">
        <path fill="currentColor" d="M15.665 2c1.249 0 2.262 1.014 2.263 2.262v2.625h1.81c1.248 0 2.261 1.014 2.262 2.262v5.703c0 1.247-1.014 2.261-2.262 2.262h-1.81v2.624C17.927 20.986 16.914 22 15.665 22h-7.33c-1.249 0-2.263-1.014-2.263-2.262v-2.624h-1.81C3.014 17.114 2 16.099 2 14.852V9.149c0-1.248 1.014-2.261 2.262-2.262h1.81V4.262c0-1.248 1.014-2.261 2.263-2.262zm.996 11.855H7.339v5.883c.001.547.447.995.996.996h7.33c.549-.001.995-.449.996-.996v-5.883zm-2.625 4.616c.35 0 .634.282.634.633-.001.35-.284.632-.634.633H9.15c-.35 0-.633-.282-.633-.633 0-.35.284-.633.633-.633zm0-1.72c.35.001.633.284.634.634 0 .35-.284.633-.634.633H9.15c-.35 0-.633-.283-.633-.633 0-.35.284-.634.633-.634zm-3.258-1.72c.35 0 .634.284.634.634 0 .35-.284.634-.634.634H9.15c-.349 0-.633-.283-.633-.634 0-.35.283-.633.633-.633zm8.96-6.877H4.262c-.548 0-.994.447-.995.995v5.703c0 .547.447.993.995.994h1.81v-2.624c0-.35.285-.633.634-.633h10.588c.35 0 .633.282.634.633v2.624h1.81c.548 0 .994-.447.995-.994V9.149c0-.548-.447-.994-.995-.995zm-4.073-4.887h-7.33c-.549 0-.995.447-.996.995v2.625h9.322V4.262c-.001-.548-.447-.994-.996-.995z"/>
    </g>
</svg>
