<svg width="24" height="24" viewBox="0 0 24 24" fill="none" xmlns="http://www.w3.org/2000/svg">
<path fill-rule="evenodd" clip-rule="evenodd" d="M20 9.75H4C3.72386 9.75 3.5 9.97386 3.5 10.25V18.25C3.5 18.5261 3.72386 18.75 4 18.75H20C20.2761 18.75 20.5 18.5261 20.5 18.25V10.25C20.5 9.97386 20.2761 9.75 20 9.75ZM4 8.25C2.89543 8.25 2 9.14543 2 10.25V18.25C2 19.3546 2.89543 20.25 4 20.25H20C21.1046 20.25 22 19.3546 22 18.25V10.25C22 9.14543 21.1046 8.25 20 8.25H4Z" fill="currentColor"/>
<path fill-rule="evenodd" clip-rule="evenodd" d="M3 10C2.58579 10 2.25 9.66421 2.25 9.25V5.25C2.25 4.2835 3.0335 3.5 4 3.5H8.58579C9.04992 3.5 9.49503 3.68437 9.82322 4.01256L11.2374 5.42678C11.2843 5.47366 11.3479 5.5 11.4142 5.5H20C20.9665 5.5 21.75 6.2835 21.75 7.25V9.25C21.75 9.66421 21.4142 10 21 10C20.5858 10 20.25 9.66421 20.25 9.25V7.25C20.25 7.11193 20.1381 7 20 7H11.4142C10.9501 7 10.505 6.81563 10.1768 6.48744L8.76256 5.07322C8.71568 5.02634 8.65209 5 8.58579 5H4C3.86193 5 3.75 5.11193 3.75 5.25V9.25C3.75 9.66421 3.41421 10 3 10Z" fill="currentColor"/>
<path fill-rule="evenodd" clip-rule="evenodd" d="M9 12.5C9 12.0858 9.33579 11.75 9.75 11.75H14.25C14.6642 11.75 15 12.0858 15 12.5C15 12.9142 14.6642 13.25 14.25 13.25H9.75C9.33579 13.25 9 12.9142 9 12.5Z" fill="currentColor"/>
</svg>
