<svg viewBox="0 0 24 24" fill="currentColor" xmlns="http://www.w3.org/2000/svg">
<path d="M12 5.75C13.866 5.75 15.3786 7.26266 15.3786 9.12863C15.3786 9.77368 15.194 10.4035 14.8491 10.9447L14.7122 11.1434L12.9817 13.4731C12.862 13.6342 12.7863 13.8228 12.7608 14.0202L12.7512 14.1697C12.7512 14.5839 12.4155 14.9197 12.0012 14.9197C11.587 14.9197 11.2512 14.5839 11.2512 14.1697C11.2512 13.6682 11.3925 13.1784 11.6568 12.7556L11.7775 12.5786L13.5081 10.2489C13.7487 9.92496 13.8786 9.53214 13.8786 9.12863C13.8786 8.09109 13.0375 7.25 12 7.25C10.9561 7.25 10.21 7.74689 9.67077 8.83224C9.48648 9.2032 9.03636 9.35452 8.6654 9.17023C8.29444 8.98594 8.14312 8.53582 8.32741 8.16486C9.11205 6.58548 10.3666 5.75 12 5.75Z" fill="currentColor"/>
<path d="M12.7432 16.8982C12.6935 16.5322 12.3797 16.25 12 16.25C11.5858 16.25 11.25 16.5858 11.25 17V17.5L11.2568 17.6018C11.3065 17.9678 11.6203 18.25 12 18.25C12.4142 18.25 12.75 17.9142 12.75 17.5V17L12.7432 16.8982Z" fill="currentColor"/>
<path fill-rule="evenodd" clip-rule="evenodd" d="M22 12C22 6.47715 17.5228 2 12 2C6.47715 2 2 6.47715 2 12C2 17.5228 6.47715 22 12 22C17.5228 22 22 17.5228 22 12ZM3.5 12C3.5 7.30558 7.30558 3.5 12 3.5C16.6944 3.5 20.5 7.30558 20.5 12C20.5 16.6944 16.6944 20.5 12 20.5C7.30558 20.5 3.5 16.6944 3.5 12Z" fill="currentColor"/>
</svg>
