<svg width="24" height="24" viewBox="0 0 24 24" fill="none" xmlns="http://www.w3.org/2000/svg">
  <path fill-rule="evenodd" clip-rule="evenodd"
    d="M12 4C16.4183 4 20 7.58172 20 12C20 16.4183 16.4183 20 12 20C7.58172 20 4 16.4183 4 12C4 7.58172 7.58172 4 12 4ZM12.0001 5.20014C8.2446 5.20014 5.20014 8.2446 5.20014 12.0001C5.20014 15.7557 8.2446 18.8001 12.0001 18.8001C15.7557 18.8001 18.8001 15.7557 18.8001 12.0001C18.8001 8.2446 15.7557 5.20014 12.0001 5.20014ZM12.0001 16.8001C14.6511 16.8001 16.8001 14.6511 16.8001 12.0001C16.8001 9.34917 14.6511 7.20014 12.0001 7.20014C9.34917 7.20014 7.20014 9.34917 7.20014 12.0001C7.20014 14.6511 9.34917 16.8001 12.0001 16.8001Z"
    fill="#FF5537" />
</svg>
