<svg viewBox="0 0 24 24" fill="currentColor" xmlns="http://www.w3.org/2000/svg">
<path fill-rule="evenodd" clip-rule="evenodd" d="M0.55194 3.7192C0.706995 3.33511 1.14406 3.14943 1.52816 3.30448L5.28202 4.81986L5.42587 4.88554C6.17045 5.26676 6.548 6.13151 6.30274 6.94678L6.19649 7.29995H6.24648C6.39942 7.29995 6.52339 7.18803 6.52339 7.04995C6.52339 6.13178 7.30662 5.37876 8.3028 5.30576L8.46178 5.29995H11.1054C11.3215 5.29995 11.5183 5.37446 11.6661 5.49657C11.9593 5.12236 12.389 4.88821 12.8536 4.84465L13.0117 4.83725H14.9172C15.1423 4.83725 15.3647 4.88218 15.5719 4.96888L15.7243 5.04169L17.5239 6.01373C17.6447 5.53743 17.9638 5.12002 18.4218 4.88554L18.5656 4.81986L22.3195 3.30448C22.7036 3.14943 23.1407 3.33511 23.2957 3.7192C23.4378 4.07129 23.2937 4.46789 22.9728 4.65098L22.881 4.69542L19.1271 6.2108C19.0273 6.25111 18.9667 6.34931 18.9709 6.45253L18.9813 6.51465L21.1979 13.8826C21.232 13.9959 21.3393 14.0672 21.4525 14.0602L21.5268 14.044L22.5887 13.6368C22.9754 13.4885 23.4092 13.6818 23.5575 14.0686C23.6934 14.4231 23.5423 14.8171 23.2183 14.9945L23.1257 15.0374L22.0639 15.4446C22.0335 15.4558 22.0183 15.4614 22.003 15.4666C21.9877 15.4718 21.9723 15.4767 21.9414 15.4864C21.2087 15.7068 20.4443 15.4239 20.0195 14.8373H19.1314L19.2195 14.9202C19.8703 15.5329 19.9455 16.5414 19.4185 17.2442L19.3103 17.3748L19.2373 17.4547C18.8694 17.8573 18.3535 18.0473 17.8465 18.0084C17.8342 18.1889 17.758 18.3638 17.6241 18.4955L17.5402 18.5666L17.0912 18.8937C16.5588 19.2814 15.8615 19.3254 15.2908 19.0211C14.968 19.4808 14.654 19.782 14.3107 19.93C13.9562 20.0828 13.6744 20.1672 13.4239 20.1761C13.2994 20.1806 13.1811 20.1534 13.0763 20.1016L12.2544 21.4273C11.7491 22.242 10.6864 22.4819 9.88069 21.9632L9.58452 21.7659C9.29521 21.5729 9.08086 21.3068 8.95015 21.0075C8.63894 21.0345 8.3178 20.976 8.02286 20.8237L7.85955 20.7278L7.7649 20.6647C7.40736 20.4262 7.16431 20.0761 7.05213 19.6895C6.83873 19.6736 6.6256 19.6153 6.42511 19.5118L6.26377 19.4167C5.88892 19.1666 5.64282 18.7911 5.54523 18.3806C5.26748 18.4041 4.98103 18.3516 4.71787 18.2157L4.56702 18.1268C3.84906 17.6478 3.63678 16.676 4.08958 15.941L4.11837 15.8943L3.85052 15.7529C3.63602 15.6397 3.49919 15.4342 3.46258 15.209C3.03278 15.5319 2.46044 15.6531 1.9062 15.4864C1.84448 15.467 1.84448 15.467 1.78379 15.4446L1.78378 15.4446L0.721909 15.0374L0.629336 14.9945C0.305309 14.8171 0.154211 14.4231 0.290156 14.0686C0.43846 13.6818 0.872211 13.4885 1.25897 13.6368L2.32084 14.044L2.39512 14.0602C2.50835 14.0672 2.61566 13.9959 2.64975 13.8826L4.86633 6.51465L4.87678 6.45253C4.88092 6.34931 4.82037 6.25111 4.72051 6.2108L0.96666 4.69542L0.874851 4.65098C0.553982 4.46789 0.409807 4.07129 0.55194 3.7192ZM4.07514 14.3464C4.19437 14.3271 4.31907 14.3374 4.43814 14.3808L4.53005 14.4216L5.02169 14.6812C5.03071 14.6859 5.03959 14.6908 5.04833 14.6959C5.4887 14.4207 6.04969 14.3754 6.5426 14.6064L6.68379 14.6814C7.00033 14.8701 7.22655 15.1557 7.34701 15.4789C7.747 15.3936 8.17896 15.4543 8.55976 15.6814C8.8527 15.8561 9.07328 16.1083 9.21081 16.397C9.55224 16.3691 9.90565 16.4442 10.2238 16.6339L10.3194 16.691C10.5653 16.8376 10.7627 17.0362 10.9058 17.2648C11.3342 17.1503 11.8064 17.2035 12.2193 17.4497L12.5045 17.6198C12.9138 17.8639 13.1887 18.252 13.3028 18.6828C13.3256 18.6799 13.3488 18.6779 13.3722 18.6771L13.4334 18.6627C13.4962 18.6441 13.6009 18.6068 13.7351 18.5489C13.7914 18.5247 13.907 18.4049 14.0592 18.1927L12.7667 17.3104C12.4286 17.0796 12.3384 16.6136 12.5654 16.2697C12.7718 15.957 13.1692 15.8529 13.4938 16.0099L13.5887 16.065L15.9523 17.6785C16.0204 17.725 16.1055 17.7332 16.1794 17.7035L16.2324 17.6742L16.5945 17.4104L15.191 16.3933C14.8593 16.1529 14.782 15.6846 15.0183 15.3472C15.2332 15.0406 15.6333 14.9477 15.9535 15.114L16.0469 15.1717L17.8342 16.4669C17.9147 16.5252 18.0191 16.5277 18.1007 16.4793L18.1569 16.4335L18.2299 16.3536L18.2659 16.3017C18.3033 16.2284 18.3 16.1398 18.2571 16.0697L18.2176 16.021L13.0303 11.1376C12.9895 11.0992 12.9539 11.0572 12.9236 11.0125C12.358 11.6292 11.8294 11.9773 11.2934 12.0461C10.5357 12.1433 9.59479 11.8287 8.41038 11.1425C8.04992 10.9337 7.93491 10.4696 8.13656 10.1158L8.19362 10.0299L10.6676 6.79995H8.46178C8.30885 6.79995 8.18487 6.91188 8.18487 7.04995C8.18487 7.96813 7.40164 8.72115 6.40546 8.79415L6.24648 8.79995H5.74523L4.08616 14.3147L4.07514 14.3464ZM17.8093 7.82573L19.4674 13.3373H17.956L17.8559 13.3441C17.7733 13.3555 17.695 13.3808 17.6234 13.4176L14.0322 10.0369L13.9601 9.97828H15.0615L15.1615 9.97144C15.5215 9.92177 15.7989 9.60798 15.7989 9.22828C15.7989 8.81407 15.4688 8.47828 15.0615 8.47828H13.8673L13.7036 8.48621C13.2165 8.5335 12.769 8.79029 12.4775 9.19652C11.8401 10.0845 11.3409 10.5281 11.1087 10.5579L11.0197 10.5637C10.7676 10.5663 10.3981 10.4646 9.92531 10.249L9.90204 10.2378L12.8178 6.43362L12.8571 6.39291C12.9004 6.35725 12.9549 6.33725 13.0117 6.33725H14.9172L14.9766 6.34466L15.0325 6.36646L17.5933 7.74963L17.6849 7.79132C17.7258 7.80668 17.7674 7.8181 17.8093 7.82573ZM5.34235 16.7423L5.79407 16.0092C5.82554 15.9581 5.89144 15.9419 5.94292 15.9726C5.96984 15.9886 5.979 16.0237 5.96338 16.051L5.46442 16.8556C5.44483 16.8871 5.40364 16.8964 5.37241 16.8763L5.34495 16.8491C5.32373 16.8178 5.32163 16.776 5.34235 16.7423ZM7.51728 17.0467L7.00533 17.8776C6.9576 17.9551 6.96596 18.0525 7.02087 18.1215L7.07063 18.1672C7.15207 18.2196 7.25948 18.1954 7.31055 18.113L7.87778 17.1982C7.92277 17.1198 7.8964 17.0188 7.81888 16.9726C7.71457 16.9104 7.58105 16.9432 7.51728 17.0467ZM8.49465 19.0716L9.15065 18.0068C9.22091 17.8928 9.36801 17.8566 9.48293 17.9252L9.57856 17.9822C9.69607 18.0523 9.73604 18.2054 9.66784 18.3243L9.00144 19.3991C8.92926 19.5154 8.77744 19.5497 8.66743 19.4789L8.56937 19.4136C8.45701 19.3387 8.42379 19.1866 8.49465 19.0716ZM11.1461 18.8226L10.3143 20.1728C10.2434 20.2878 10.2766 20.4399 10.389 20.5148L10.6648 20.6988C10.7799 20.7729 10.9318 20.7386 11.004 20.6223L11.8529 19.2531C11.9211 19.1342 11.8811 18.9811 11.7636 18.911L11.4784 18.7409C11.3635 18.6724 11.2164 18.7085 11.1461 18.8226Z" fill="currentColor"/>
</svg>
