<svg viewBox="0 0 20 20" fill="none" xmlns="http://www.w3.org/2000/svg">
<g>
<path id="refresh" d="M9.58398 15.833C7.83912 15.833 6.36128 15.2277 5.15044 14.017C3.93947 12.8063 3.33398 11.3287 3.33398 9.58426C3.33398 7.83981 3.93947 6.36183 5.15044 5.1503C6.36128 3.93877 7.83912 3.33301 9.58398 3.33301C10.5583 3.33301 11.4803 3.54961 12.35 3.9828C13.2196 4.41613 13.9429 5.02752 14.5198 5.81697V3.95801C14.5198 3.78092 14.5798 3.63252 14.6996 3.5128C14.8195 3.39294 14.9679 3.33301 15.145 3.33301C15.3222 3.33301 15.4707 3.39294 15.5902 3.5128C15.71 3.63252 15.7698 3.78092 15.7698 3.95801V7.67592C15.7698 7.8894 15.6977 8.06828 15.5534 8.21259C15.4089 8.3569 15.23 8.42905 15.0167 8.42905H11.2988C11.1217 8.42905 10.9732 8.36919 10.8534 8.24947C10.7336 8.1296 10.6738 7.98106 10.6738 7.80384C10.6738 7.62676 10.7336 7.47835 10.8534 7.35863C10.9732 7.23905 11.1217 7.17926 11.2988 7.17926H13.9654C13.5263 6.37467 12.9172 5.74085 12.1384 5.2778C11.3596 4.8146 10.5082 4.58301 9.58398 4.58301C8.1951 4.58301 7.01454 5.06912 6.04232 6.04134C5.0701 7.01356 4.58398 8.19412 4.58398 9.58301C4.58398 10.9719 5.0701 12.1525 6.04232 13.1247C7.01454 14.0969 8.1951 14.583 9.58398 14.583C10.5525 14.583 11.4391 14.3287 12.2438 13.8201C13.0485 13.3116 13.6582 12.6332 14.0727 11.7849C14.1518 11.6332 14.2679 11.5272 14.4213 11.4668C14.5746 11.4065 14.7309 11.403 14.89 11.4563C15.0599 11.5098 15.1788 11.6209 15.2467 11.7897C15.3145 11.9586 15.3088 12.1188 15.2298 12.2705C14.7137 13.3495 13.9519 14.213 12.9444 14.8609C11.9369 15.509 10.8168 15.833 9.58398 15.833Z" fill="currentColor"/>
</g>
</svg>
