<svg viewBox="0 0 24 24" fill="currentColor" xmlns="http://www.w3.org/2000/svg">
<path d="M16.0659 15.0052C16.3588 15.2981 16.3588 15.773 16.0659 16.0659C15.7974 16.3343 15.376 16.3567 15.082 16.133L15.0052 16.0659L12 13.0607L8.9948 16.0659C8.7019 16.3588 8.22703 16.3588 7.93414 16.0659C7.66565 15.7974 7.64328 15.376 7.86701 15.082L7.93414 15.0052L10.9393 12L7.93414 8.9948C7.64124 8.7019 7.64124 8.22703 7.93414 7.93414C8.20262 7.66565 8.62402 7.64328 8.91799 7.86701L8.9948 7.93414L12 10.9393L15.0052 7.93414C15.2981 7.64124 15.773 7.64124 16.0659 7.93414C16.3343 8.20262 16.3567 8.62402 16.133 8.91799L16.0659 8.9948L13.0607 12L16.0659 15.0052Z" fill="currentColor"/>
<path fill-rule="evenodd" clip-rule="evenodd" d="M19.0711 19.0711C22.9763 15.1658 22.9763 8.83418 19.0711 4.92893C15.1658 1.02369 8.83418 1.02369 4.92893 4.92893C1.02369 8.83418 1.02369 15.1658 4.92893 19.0711C8.83418 22.9763 15.1658 22.9763 19.0711 19.0711ZM5.98959 5.98959C9.30905 2.67014 14.691 2.67014 18.0104 5.98959C21.3299 9.30905 21.3299 14.691 18.0104 18.0104C14.691 21.3299 9.30905 21.3299 5.98959 18.0104C2.67014 14.691 2.67014 9.30905 5.98959 5.98959Z" fill="currentColor"/>
</svg>
