<svg xmlns="http://www.w3.org/2000/svg" width="24" height="24" viewBox="0 0 24 24">
    <g fill="none" fill-rule="evenodd">
        <path fill="currentColor" d="M20.26 11c.409 0 .74.345.74.77 0 5.09-3.96 9.23-8.827 9.23-2.123 0-4.118-.777-5.694-2.175v.612c0 .425-.331.77-.74.77-.408 0-.739-.345-.739-.77v-2.54c0-.015.003-.03.004-.046.002-.028.004-.056.009-.083.003-.024.01-.048.015-.071.007-.025.013-.049.022-.073.008-.023.018-.045.03-.067.01-.022.02-.045.034-.066l.041-.06c.015-.02.03-.04.046-.058.017-.02.037-.037.057-.055.012-.011.021-.023.034-.033.005-.005.012-.007.017-.012.022-.016.045-.03.068-.043.02-.012.039-.024.06-.034.02-.01.043-.016.065-.025.024-.008.048-.017.073-.023l.062-.01c.028-.004.055-.008.084-.009l.018-.002h2.428c.408 0 .739.345.739.77 0 .426-.331.771-.74.771h-.71c1.31 1.152 2.96 1.791 4.717 1.791 4.052 0 7.348-3.449 7.348-7.689 0-.425.331-.77.74-.77zm-8.476-8c2.148 0 4.164.804 5.744 2.247v-.642c0-.425.33-.77.736-.77.406 0 .736.345.736.77v2.54c0 .425-.33.77-.736.77H15.85c-.406 0-.736-.345-.736-.77 0-.426.33-.771.736-.771h.675c-1.31-1.178-2.972-1.833-4.74-1.833-4.032 0-7.312 3.449-7.312 7.689 0 .425-.33.77-.736.77C3.33 13 3 12.655 3 12.23 3 7.14 6.94 3 11.784 3z"/>
    </g>
</svg>
