<svg width="24" height="25" viewBox="0 0 24 25" fill="none" xmlns="http://www.w3.org/2000/svg">
<path fill-rule="evenodd" clip-rule="evenodd" d="M4.0491 13.4636L6.3312 21.9805C6.40122 22.2419 6.67058 22.3967 6.93283 22.3265L20.2284 18.7639C20.4906 18.6937 20.6464 18.4249 20.5764 18.1635L18.2943 9.64661C18.2243 9.38529 17.9549 9.23041 17.6927 9.30068L4.39716 12.8632C4.13491 12.9335 3.97908 13.2023 4.0491 13.4636ZM4.90668 22.3622C5.18677 23.4075 6.26419 24.027 7.31318 23.746L20.6087 20.1834C21.6577 19.9023 22.281 18.8271 22.0009 17.7818L19.7188 9.26491C19.4387 8.21963 18.3613 7.60011 17.3123 7.88119L4.0168 11.4437C2.96782 11.7248 2.3445 12.8 2.62458 13.8453L4.90668 22.3622Z" fill="currentColor"/>
<path fill-rule="evenodd" clip-rule="evenodd" d="M18.9282 12.0125C19.4527 11.872 19.9631 12.0758 20.0681 12.4678L20.702 14.8336C20.8071 15.2256 20.467 15.6573 19.9425 15.7978C19.418 15.9384 18.9077 15.7345 18.8027 15.3425L18.1687 12.9767C18.0637 12.5848 18.4038 12.1531 18.9282 12.0125Z" fill="currentColor"/>
<path fill-rule="evenodd" clip-rule="evenodd" d="M16.6572 5.55175C11.9216 2.82881 5.87205 4.24975 2.8423 8.79663L2.44538 9.39231C2.21991 9.73069 1.76229 9.82327 1.42328 9.59908C1.08426 9.37489 0.99221 8.91885 1.21768 8.58047L1.61461 7.98479C5.07552 2.79083 11.9861 1.16767 17.3956 4.27812L16.6572 5.55175Z" fill="currentColor"/>
<path d="M13.6996 6.69364C13.9217 6.97129 14.3175 7.07331 14.6252 6.9462L14.7146 6.90114L17.4045 5.27813C17.5979 5.16145 17.7009 4.95985 17.6839 4.74379L17.6692 4.65051L16.9365 1.56274C16.8516 1.20498 16.4661 0.948374 16.0756 0.989587C15.7206 1.02705 15.4836 1.29776 15.5072 1.61546L15.5222 1.71199L16.1572 4.39081L13.8298 5.79514C13.5423 5.96861 13.468 6.31684 13.6404 6.60818L13.6996 6.69364Z" fill="currentColor"/>
</svg>
