<svg width="20" height="20" viewBox="0 0 20 20" fill="none" xmlns="http://www.w3.org/2000/svg">
<g id="Icon/system icon">
<g id="Group 7056">
<path id="Rectangle 136 (Stroke)" fill-rule="evenodd" clip-rule="evenodd" d="M13.4006 9.08099L13.4006 15.4271C13.4006 15.6219 13.2348 15.7797 13.0302 15.7797L2.65987 15.7797C2.45532 15.7797 2.2895 15.6219 2.2895 15.4271L2.2895 9.08099C2.2895 8.88628 2.45532 8.72843 2.65987 8.72843L13.0302 8.72843C13.2348 8.72843 13.4006 8.88628 13.4006 9.08099ZM14.5117 15.4271C14.5117 16.206 13.8484 16.8374 13.0302 16.8374L2.65987 16.8374C1.84167 16.8374 1.17838 16.206 1.17838 15.4271L1.17838 9.08099C1.17838 8.30213 1.84167 7.67074 2.65987 7.67074L13.0302 7.67074C13.8484 7.67074 14.5117 8.30213 14.5117 9.08099L14.5117 15.4271Z" fill="#252729"/>
<g id="Vector">
<path fill-rule="evenodd" clip-rule="evenodd" d="M7.6342 4.20985C11.8286 3.11908 16.1598 5.47459 17.5248 9.58892L17.7037 10.1279C17.8053 10.4341 18.136 10.6009 18.4424 10.5004C18.7488 10.4 18.9149 10.0703 18.8133 9.7641L18.6344 9.22509C17.0751 4.52524 12.1276 1.83451 7.33624 3.08051L7.6342 4.20985Z" fill="#252729"/>
<path d="M9.65815 5.7037C9.42997 5.86959 9.10575 5.86468 8.89693 5.7029L8.83796 5.64968L7.11996 3.84388C6.99645 3.71406 6.95987 3.5382 7.01818 3.37644L7.049 3.30815L8.25699 1.09906C8.39695 0.843114 8.74565 0.727557 9.03584 0.840963C9.29964 0.944059 9.42426 1.20089 9.33959 1.43903L9.30784 1.50974L8.26042 3.42642L9.74688 4.98888C9.9305 5.18189 9.91436 5.46393 9.72134 5.65071L9.65815 5.7037Z" fill="#252729"/>
</g>
</g>
</g>
</svg>
