<svg width="20" height="20" viewBox="0 0 20 20" fill="none" xmlns="http://www.w3.org/2000/svg">
<g id="Icon/system icon">
<g id="Group 7056">
<path id="Rectangle 136 (Stroke)" fill-rule="evenodd" clip-rule="evenodd" d="M6.59939 9.08099L6.59939 15.4271C6.59939 15.6219 6.76521 15.7797 6.96976 15.7797L17.3401 15.7797C17.5447 15.7797 17.7105 15.6219 17.7105 15.4271L17.7105 9.08099C17.7105 8.88628 17.5447 8.72843 17.3401 8.72843L6.96976 8.72843C6.76521 8.72843 6.59939 8.88628 6.59939 9.08099ZM5.48828 15.4271C5.48828 16.206 6.15156 16.8374 6.96976 16.8374L17.3401 16.8374C18.1583 16.8374 18.8216 16.206 18.8216 15.4271L18.8216 9.08099C18.8216 8.30213 18.1583 7.67074 17.3401 7.67074L6.96976 7.67074C6.15156 7.67074 5.48828 8.30213 5.48828 9.08099L5.48828 15.4271Z" fill="currentColor"/>
<g id="Vector">
<path fill-rule="evenodd" clip-rule="evenodd" d="M12.3658 4.20985C8.17139 3.11908 3.84025 5.47459 2.47515 9.58892L2.29631 10.1279C2.19472 10.4341 1.86398 10.6009 1.55757 10.5004C1.25116 10.4 1.08512 10.0703 1.18671 9.7641L1.36555 9.22509C2.92491 4.52524 7.87243 1.83451 12.6638 3.08051L12.3658 4.20985Z" fill="currentColor"/>
<path d="M10.3419 5.7037C10.57 5.86959 10.8943 5.86468 11.1031 5.7029L11.162 5.64968L12.88 3.84388C13.0035 3.71406 13.0401 3.5382 12.9818 3.37644L12.951 3.30815L11.743 1.09906C11.603 0.843114 11.2543 0.727557 10.9642 0.840963C10.7004 0.944059 10.5757 1.20089 10.6604 1.43903L10.6922 1.50974L11.7396 3.42642L10.2531 4.98888C10.0695 5.18189 10.0856 5.46393 10.2787 5.65071L10.3419 5.7037Z" fill="currentColor"/>
</g>
</g>
</g>
</svg>
