<svg width="60" height="60" viewBox="0 0 60 60" fill="none" xmlns="http://www.w3.org/2000/svg">
<circle cx="30" cy="30" r="29.5" fill="white" stroke="#C1C1C2"/>
<path d="M47.1599 26.5726H45.7502V26.5H30.0002V33.5H39.8904C38.4475 37.5749 34.5704 40.5 30.0002 40.5C24.2016 40.5 19.5002 35.7986 19.5002 30C19.5002 24.2014 24.2016 19.5 30.0002 19.5C32.6769 19.5 35.112 20.5098 36.9661 22.1591L41.916 17.2093C38.7905 14.2964 34.6097 12.5 30.0002 12.5C20.3359 12.5 12.5002 20.3356 12.5002 30C12.5002 39.6644 20.3359 47.5 30.0002 47.5C39.6646 47.5 47.5002 39.6644 47.5002 30C47.5002 28.8266 47.3795 27.6813 47.1599 26.5726Z" fill="#FFC107"/>
<path d="M14.5176 21.8546L20.2672 26.0712C21.823 22.2195 25.5907 19.5 29.9998 19.5C32.6765 19.5 35.1116 20.5097 36.9657 22.1591L41.9156 17.2092C38.7901 14.2964 34.6093 12.5 29.9998 12.5C23.2781 12.5 17.4488 16.2949 14.5176 21.8546Z" fill="#FF3D00"/>
<path d="M29.9998 47.5C34.52 47.5 38.6273 45.7701 41.7327 42.957L36.3164 38.3737C34.5594 39.7046 32.3754 40.5 29.9998 40.5C25.448 40.5 21.5832 37.5976 20.1272 33.5472L14.4204 37.9441C17.3167 43.6115 23.1984 47.5 29.9998 47.5Z" fill="#4CAF50"/>
<path d="M47.1596 26.5L45.75 26.5H30V33.5H39.8901C39.1971 35.4574 37.938 37.1453 36.314 38.3746L36.3166 38.3729L41.7329 42.9561C41.3496 43.3044 47.5 38.75 47.5 30C47.5 28.8266 47.3793 27.6086 47.1596 26.5Z" fill="#1976D2"/>
</svg>
