<svg viewBox="0 0 24 24" fill="currentColor" xmlns="http://www.w3.org/2000/svg">
<path fill-rule="evenodd" clip-rule="evenodd" d="M3.3609 2.69077L8.97549 1.26328C9.3173 1.17637 9.67962 1.27595 9.92901 1.52534L21.8628 13.4592C22.2534 13.8497 22.2534 14.4829 21.8628 14.8734L14.7918 21.9445C14.4013 22.335 13.7681 22.335 13.3776 21.9445L1.44526 10.0122C1.19505 9.76194 1.0957 9.39812 1.18401 9.05547L2.63896 3.41036C2.73012 3.05664 3.00689 2.78077 3.3609 2.69077ZM4.01745 4.07162L2.70718 9.1536L14.0838 20.5302L20.4478 14.1663L9.06831 2.78681L4.01745 4.07162ZM6.99991 9.00038C8.10448 9.00038 8.99991 8.10495 8.99991 7.00038C8.99991 5.89581 8.10448 5.00038 6.99991 5.00038C5.89534 5.00038 4.99991 5.89581 4.99991 7.00038C4.99991 8.10495 5.89534 9.00038 6.99991 9.00038Z" fill="#252729"/>
</svg>
