<svg width="25" height="24" viewBox="0 0 25 24" fill="none" xmlns="http://www.w3.org/2000/svg">
<path fill-rule="evenodd" clip-rule="evenodd" d="M9.5 2.25C9.91421 2.25 10.25 2.58579 10.25 3C10.25 3.3797 9.96785 3.69349 9.60177 3.74315L9.5 3.75H4.25V9C4.25 9.3797 3.96785 9.69349 3.60177 9.74315L3.5 9.75C3.1203 9.75 2.80651 9.46785 2.75685 9.10177L2.75 9V3C2.75 2.6203 3.03215 2.30651 3.39823 2.25685L3.5 2.25H9.5ZM15.5 2.25C15.0858 2.25 14.75 2.58579 14.75 3C14.75 3.3797 15.0322 3.69349 15.3982 3.74315L15.5 3.75H20.75V9C20.75 9.3797 21.0322 9.69349 21.3982 9.74315L21.5 9.75C21.8797 9.75 22.1935 9.46785 22.2432 9.10177L22.25 9V3C22.25 2.6203 21.9678 2.30651 21.6018 2.25685L21.5 2.25H15.5ZM10.25 21C10.25 21.4142 9.91421 21.75 9.5 21.75H3.5L3.39823 21.7432C3.03215 21.6935 2.75 21.3797 2.75 21V15L2.75685 14.8982C2.80651 14.5322 3.1203 14.25 3.5 14.25L3.60177 14.2568C3.96785 14.3065 4.25 14.6203 4.25 15V20.25H9.5L9.60177 20.2568C9.96785 20.3065 10.25 20.6203 10.25 21ZM15.5 21.75C15.0858 21.75 14.75 21.4142 14.75 21C14.75 20.6203 15.0322 20.3065 15.3982 20.2568L15.5 20.25H20.75V15C20.75 14.6203 21.0322 14.3065 21.3982 14.2568L21.5 14.25C21.8797 14.25 22.1935 14.5322 22.2432 14.8982L22.25 15V21C22.25 21.3797 21.9678 21.6935 21.6018 21.7432L21.5 21.75H15.5ZM19.5 12.25C19.5 11.8358 19.1642 11.5 18.75 11.5H6.75L6.64823 11.5068C6.28215 11.5565 6 11.8703 6 12.25C6 12.6642 6.33579 13 6.75 13H18.75L18.8518 12.9932C19.2178 12.9435 19.5 12.6297 19.5 12.25Z" fill="currentColor"/>
</svg>
