<svg viewBox="0 0 24 24" fill="currentColor" xmlns="http://www.w3.org/2000/svg">
<path fill-rule="evenodd" clip-rule="evenodd" d="M10.4 3C15.0392 3 18.8 6.76081 18.8 11.4C18.8 13.2912 18.175 15.0364 17.1204 16.4403L20.9709 19.7875C21.2991 20.0729 21.3339 20.5703 21.0486 20.8985C20.7632 21.2268 20.2658 21.2615 19.9376 20.9762L16.0608 17.6062C14.5676 18.9689 12.5809 19.8 10.4 19.8C5.76081 19.8 2 16.0392 2 11.4C2 6.76081 5.76081 3 10.4 3ZM10.4 4.575C6.63066 4.575 3.575 7.63066 3.575 11.4C3.575 15.1693 6.63066 18.225 10.4 18.225C14.1693 18.225 17.225 15.1693 17.225 11.4C17.225 7.63066 14.1693 4.575 10.4 4.575Z" fill="currentColor"/>
</svg>
