<svg viewBox="0 0 24 24" fill="none" xmlns="http://www.w3.org/2000/svg">
<path fill-rule="evenodd" clip-rule="evenodd" d="M8.36363 12C8.36363 9.99169 9.99169 8.36364 12 8.36364C14.0083 8.36364 15.6364 9.99169 15.6364 12C15.6364 14.0083 14.0083 15.6364 12 15.6364C9.99169 15.6364 8.36363 14.0083 8.36363 12ZM9.72727 12C9.72727 13.2552 10.7448 14.2727 12 14.2727C13.2552 14.2727 14.2727 13.2552 14.2727 12C14.2727 10.7448 13.2552 9.72727 12 9.72727C10.7448 9.72727 9.72727 10.7448 9.72727 12Z" fill="currentColor"/>
<path fill-rule="evenodd" clip-rule="evenodd" d="M20.1818 9.27273H20.6364C20.9988 9.27273 21.3463 9.41702 21.6022 9.67373C21.8581 9.93045 22.0012 10.2785 22 10.6409V13.3682C22 14.1213 21.3895 14.7318 20.6364 14.7318H20.1818C20.058 15.1226 19.9061 15.5039 19.7273 15.8727L20.0409 16.1864C20.5726 16.7188 20.5726 17.5812 20.0409 18.1136L18.1136 20.0409C17.5812 20.5726 16.7188 20.5726 16.1864 20.0409L15.8727 19.7273C15.5039 19.9061 15.1226 20.058 14.7318 20.1818V20.6364C14.7318 21.3895 14.1213 22 13.3682 22H10.6409C9.88779 22 9.27727 21.3895 9.27727 20.6364V20.1818C8.88651 20.058 8.50521 19.9061 8.13636 19.7273L7.81363 20.0318C7.28124 20.5636 6.41876 20.5636 5.88636 20.0318L3.95909 18.1045C3.42736 17.5722 3.42736 16.7097 3.95909 16.1773L4.27273 15.8636C4.0939 15.4948 3.94199 15.1135 3.81818 14.7227H3.36364C2.61052 14.7227 2 14.1122 2 13.3591V10.6318C2 9.8787 2.61052 9.26818 3.36364 9.26818H3.81818C3.94199 8.87742 4.0939 8.49612 4.27273 8.12727L3.95909 7.81364C3.42736 7.28124 3.42736 6.41876 3.95909 5.88636L5.88636 3.95909C6.41876 3.42736 7.28124 3.42736 7.81363 3.95909L8.12727 4.27273C8.49612 4.09391 8.87742 3.942 9.26818 3.81818V3.36364C9.26818 2.61052 9.8787 2 10.6318 2H13.3591C14.1122 2 14.7227 2.61052 14.7227 3.36364V3.81818C15.1135 3.942 15.4948 4.09391 15.8636 4.27273L16.1864 3.96364C16.7188 3.4319 17.5812 3.4319 18.1136 3.96364L20.0409 5.89091C20.5726 6.4233 20.5726 7.28579 20.0409 7.81818L19.7273 8.13182C19.9061 8.50066 20.058 8.88196 20.1818 9.27273ZM19.1409 13.3636H20.6364V10.6364H19.1409C18.9566 9.65945 18.5728 8.73104 18.0136 7.90909L19.0773 6.85909L17.15 4.93182L16.0954 5.98636C15.2735 5.42714 14.3451 5.0434 13.3682 4.85909V3.36364H10.6409V4.85C9.664 5.03431 8.73558 5.41805 7.91363 5.97727L6.85909 4.92273L4.93182 6.85L5.98636 7.90455C5.42714 8.72649 5.0434 9.65491 4.85909 10.6318H3.36364V13.3591H4.85C5.03431 14.336 5.41805 15.2644 5.97727 16.0864L4.92273 17.1409L6.85 19.0682L7.90454 18.0136C8.72643 18.573 9.65487 18.9567 10.6318 19.1409V20.6364H13.3591V19.1455C14.336 18.9613 15.2645 18.5775 16.0864 18.0182L17.1409 19.0727L19.0682 17.1455L18.0136 16.0909C18.5728 15.269 18.9566 14.3405 19.1409 13.3636Z" fill="currentColor"/>
</svg>
