<svg viewBox="0 0 24 24" fill="currentColor" xmlns="http://www.w3.org/2000/svg">
<rect opacity="0.01" fill="currentColor"/>
<path fill-rule="evenodd" clip-rule="evenodd" d="M12.2946 4.06981C12.0592 3.96036 11.7804 3.97965 11.5605 4.12735L8.58191 6.12735L8.49443 6.19588C8.22404 6.44196 8.16743 6.85547 8.37735 7.16809L8.44588 7.25557C8.69196 7.52596 9.10547 7.58257 9.41809 7.37265L11.25 6.14206V15.25L11.2568 15.3518C11.3065 15.7178 11.6203 16 12 16C12.4142 16 12.75 15.6642 12.75 15.25V6.16004L14.586 7.3754L14.6829 7.42979C15.0141 7.58475 15.4176 7.47797 15.6254 7.16397C15.854 6.81857 15.7594 6.35323 15.414 6.1246L12.3925 4.1246L12.2946 4.06981ZM19 12C19.3797 12 19.6935 12.2822 19.7432 12.6482L19.75 12.75V18.25C19.75 19.1682 19.0429 19.9212 18.1435 19.9942L18 20H6C5.08183 20 4.32881 19.2929 4.2558 18.3935L4.25 18.25V12.75C4.25 12.3358 4.58579 12 5 12C5.3797 12 5.69349 12.2822 5.74315 12.6482L5.75 12.75V18.25C5.75 18.3683 5.83223 18.4675 5.94268 18.4934L6 18.5H18C18.1183 18.5 18.2175 18.4178 18.2434 18.3073L18.25 18.25V12.75C18.25 12.3358 18.5858 12 19 12Z" fill="currentColor"/>
</svg>
