<svg viewBox="0 0 24 24" fill="currentColor" xmlns="http://www.w3.org/2000/svg">
<path fill-rule="evenodd" clip-rule="evenodd" d="M19.9129 16.2199C20.1889 15.9802 20.2551 15.5681 20.0525 15.2507L19.986 15.1616C19.7463 14.8856 19.3342 14.8195 19.0168 15.0221L17.2007 16.1808L17.2007 5.5499L17.1939 5.44813C17.1442 5.08206 16.8304 4.7999 16.4507 4.7999C16.0365 4.7999 15.7007 5.13569 15.7007 5.5499L15.7007 16.1956L13.8174 15.0184L13.7191 14.9665C13.384 14.8201 12.9835 14.9373 12.7838 15.2566C12.5641 15.6077 12.6708 16.0705 13.022 16.2901L16.0432 18.1797C16.1605 18.2557 16.3005 18.2999 16.4507 18.2999C16.6033 18.2999 16.7453 18.2543 16.8637 18.1761L19.8239 16.2864L19.9129 16.2199ZM10.9433 6.87978C11.2193 7.11953 11.2855 7.53162 11.0829 7.84902L11.0164 7.93806C10.7767 8.21408 10.3646 8.28025 10.0472 8.07764L8.23112 6.91839L8.23112 17.5499L8.22427 17.6517C8.17461 18.0178 7.86082 18.2999 7.48112 18.2999C7.06691 18.2999 6.73112 17.9641 6.73112 17.5499L6.73112 6.90413L4.84775 8.08135L4.74948 8.13322C4.41444 8.27957 4.01385 8.16241 3.81419 7.84315C3.59455 7.49197 3.70119 7.02922 4.05238 6.80958L7.07992 4.91612C7.16381 4.86291 7.25898 4.82589 7.36104 4.80947C7.44026 4.79663 7.52107 4.79659 7.60028 4.80932C7.70469 4.82599 7.80191 4.86421 7.88724 4.91927L10.8543 6.81329L10.9433 6.87978Z" fill="currentColor"/>
</svg>
