<svg xmlns="http://www.w3.org/2000/svg" width="24" height="24" viewBox="0 0 24 24">
    <g fill="none" fill-rule="evenodd">
        <path fill="currentColor" d="M11.136 7.751l-.053.098-.067.09c-.215.248-.57.326-.871.192l-.098-.053-1.815-1.16V17.55l-.008.102c-.05.366-.363.648-.743.648s-.693-.282-.743-.648l-.007-.102V6.903L4.849 8.081l-.098.052c-.336.147-.736.03-.936-.29-.2-.319-.13-.73.149-.968l.09-.065 3.03-1.896.04-.023.055-.027.004-.002c.092-.04.193-.062.3-.062.07 0 .139.01.204.028l.032.01.068.026c.033.015.067.033.099.054l2.97 1.895.088.067c.249.216.327.571.193.871zm8.777 8.469l-.09.067-2.969 1.895-.013.009-.012.007-.07.035c-.026.012-.048.021-.071.029l-.033.01c-.065.018-.133.028-.204.028-.107 0-.208-.022-.3-.062l-.003-.002-.019-.008c-.024-.012-.047-.024-.07-.038l-.006-.004-3.031-1.896c-.351-.22-.458-.682-.238-1.033.2-.32.6-.437.935-.29l.098.051 1.884 1.178V5.55c0-.414.336-.75.75-.75.38 0 .693.282.743.648l.007.102v10.631l1.816-1.159c.317-.202.73-.136.969.14l.067.089c.202.317.136.73-.14.969z"/>
    </g>
</svg>
