<svg width="24" height="24" viewBox="0 0 24 24" fill="currentColor" xmlns="http://www.w3.org/2000/svg">
<g id="Icon/system icon">
<path id="Star" fill-rule="evenodd" clip-rule="evenodd" d="M10.431 3.48469L8.62147 7.15118C8.58505 7.22496 8.51466 7.2761 8.43323 7.28794L4.38703 7.87589C4.00616 7.93123 3.65416 8.11058 3.38552 8.38618C2.71089 9.07827 2.72506 10.1862 3.41715 10.8608L6.34502 13.7148C6.40394 13.7722 6.43083 13.855 6.41692 13.9361L5.72574 17.966C5.66068 18.3453 5.72248 18.7355 5.90158 19.0761C6.35133 19.9316 7.40942 20.2605 8.2649 19.8108L11.8839 17.9081C11.9568 17.8698 12.0438 17.8698 12.1166 17.9081L15.7357 19.8108C16.0763 19.9899 16.4665 20.0517 16.8458 19.9866C17.7984 19.8232 18.4382 18.9185 18.2748 17.966L17.5836 13.9361C17.5697 13.855 17.5966 13.7722 17.6555 13.7148L20.5834 10.8608C20.859 10.5922 21.0383 10.2402 21.0937 9.85934C21.2327 8.90289 20.57 8.01487 19.6135 7.87589L15.5673 7.28794C15.4859 7.2761 15.4155 7.22496 15.3791 7.15118L13.5696 3.48469C13.3992 3.13957 13.1199 2.86022 12.7748 2.68989C11.9081 2.26215 10.8587 2.618 10.431 3.48469ZM12.1109 4.035C12.1602 4.05933 12.2001 4.09923 12.2245 4.14854L14.034 7.81503C14.2889 8.33153 14.7816 8.68952 15.3516 8.77235L19.3978 9.3603C19.5345 9.38015 19.6291 9.50701 19.6093 9.64365C19.6014 9.69806 19.5758 9.74834 19.5364 9.78672L16.6085 12.6407C16.1961 13.0427 16.0079 13.622 16.1052 14.1897L16.7964 18.2195C16.8197 18.3556 16.7283 18.4848 16.5923 18.5082C16.5381 18.5175 16.4823 18.5086 16.4337 18.4831L12.8146 16.5804C12.3048 16.3124 11.6957 16.3124 11.1859 16.5804L7.56689 18.4831C7.44468 18.5473 7.29352 18.5003 7.22927 18.3781C7.20369 18.3295 7.19486 18.2737 7.20415 18.2195L7.89533 14.1897C7.99269 13.622 7.80448 13.0427 7.39203 12.6407L4.46417 9.78672C4.3653 9.69034 4.36328 9.53207 4.45965 9.4332C4.49803 9.39382 4.54831 9.3682 4.60272 9.3603L8.64893 8.77235C9.21892 8.68952 9.71166 8.33153 9.96657 7.81503L11.7761 4.14854C11.827 4.04536 11.9396 3.99286 12.0474 4.01359L12.1109 4.035Z" fill="currentColor"/>
</g>
</svg>
