<svg viewBox="0 0 24 24" fill="none" xmlns="http://www.w3.org/2000/svg">
<path fill-rule="evenodd" clip-rule="evenodd" d="M12.4652 17.2446C12.1739 17.0915 11.8259 17.0915 11.5346 17.2446L7.91552 19.1473C7.1819 19.5329 6.32446 18.91 6.46457 18.0931L7.15575 14.0632C7.21139 13.7388 7.10384 13.4078 6.86815 13.1781L3.94029 10.3241C3.34677 9.74559 3.67428 8.73762 4.4945 8.61843L8.54071 8.03048C8.86642 7.98316 9.14799 7.77859 9.29365 7.48344L11.1032 3.81696C11.47 3.07371 12.5298 3.07371 12.8966 3.81696L14.7062 7.48344C14.8518 7.77859 15.1334 7.98316 15.4591 8.03048L19.5053 8.61843C20.3255 8.73762 20.653 9.74559 20.0595 10.3241L17.1317 13.1781C16.896 13.4078 16.7884 13.7388 16.8441 14.0632L17.5352 18.0931C17.6753 18.91 16.8179 19.5329 16.0843 19.1473L12.4652 17.2446Z" fill="currentColor"/>
</svg>
