<svg width="24" height="24" viewBox="0 0 24 24" xmlns="http://www.w3.org/2000/svg">
  <path fill-rule="evenodd" clip-rule="evenodd"
    d="M6.88501 5.5C7.16115 5.5 7.38501 5.27614 7.38501 5C7.38501 4.72386 7.16115 4.5 6.88501 4.5C6.60887 4.5 6.38501 4.72386 6.38501 5C6.38501 5.27614 6.60887 5.5 6.88501 5.5ZM6.88501 7C7.98958 7 8.88501 6.10457 8.88501 5C8.88501 3.89543 7.98958 3 6.88501 3C5.78044 3 4.88501 3.89543 4.88501 5C4.88501 6.10457 5.78044 7 6.88501 7Z"
    fill="currentColor" />
  <path fill-rule="evenodd" clip-rule="evenodd"
    d="M11.885 8.5C12.1612 8.5 12.385 8.27614 12.385 8C12.385 7.72386 12.1612 7.5 11.885 7.5C11.6089 7.5 11.385 7.72386 11.385 8C11.385 8.27614 11.6089 8.5 11.885 8.5ZM11.885 10C12.9896 10 13.885 9.10457 13.885 8C13.885 6.89543 12.9896 6 11.885 6C10.7804 6 9.88501 6.89543 9.88501 8C9.88501 9.10457 10.7804 10 11.885 10Z"
    fill="currentColor" />
  <path fill-rule="evenodd" clip-rule="evenodd"
    d="M18.885 3.5C19.1612 3.5 19.385 3.27614 19.385 3C19.385 2.72386 19.1612 2.5 18.885 2.5C18.6089 2.5 18.385 2.72386 18.385 3C18.385 3.27614 18.6089 3.5 18.885 3.5ZM18.885 5C19.9896 5 20.885 4.10457 20.885 3C20.885 1.89543 19.9896 1 18.885 1C17.7804 1 16.885 1.89543 16.885 3C16.885 4.10457 17.7804 5 18.885 5Z"
    fill="currentColor" />
  <path fill-rule="evenodd" clip-rule="evenodd"
    d="M11.2397 8.17856L7.88501 6L8.70197 4.74199L12.0567 6.92055L11.2397 8.17856Z" fill="currentColor" />
  <path fill-rule="evenodd" clip-rule="evenodd"
    d="M18.4813 4.35714L13.885 8.21387L12.9208 7.0648L17.5171 3.20808L18.4813 4.35714Z"
    fill="currentColor" />
  <path fill-rule="evenodd" clip-rule="evenodd"
    d="M19.3671 3.42547C19.6334 3.10816 20.1064 3.06677 20.4237 3.33302L23.1049 5.58278C23.4222 5.84903 23.4636 6.3221 23.1973 6.6394C22.9311 6.95671 22.458 6.9981 22.1407 6.73185L19.4595 4.48209C19.1422 4.21584 19.1009 3.74277 19.3671 3.42547Z"
    fill="currentColor" />
  <path fill-rule="evenodd" clip-rule="evenodd"
    d="M1.30005 5.25C1.30005 4.83579 1.63584 4.5 2.05005 4.5H5.55005C5.96426 4.5 6.30005 4.83579 6.30005 5.25C6.30005 5.66421 5.96426 6 5.55005 6H2.05005C1.63584 6 1.30005 5.66421 1.30005 5.25Z"
    fill="currentColor" />
  <path fill-rule="evenodd" clip-rule="evenodd"
    d="M8.30005 14.5V21.5H11.3V14.5H8.30005ZM7.80005 13C7.24776 13 6.80005 13.4477 6.80005 14V22C6.80005 22.5523 7.24776 23 7.80005 23H11.8C12.3523 23 12.8 22.5523 12.8 22V14C12.8 13.4477 12.3523 13 11.8 13H7.80005Z"
    fill="currentColor" />
  <path fill-rule="evenodd" clip-rule="evenodd"
    d="M17.3 11.5V21.5H20.3V11.5H17.3ZM16.8 10C16.2478 10 15.8 10.4477 15.8 11V22C15.8 22.5523 16.2478 23 16.8 23H20.8C21.3523 23 21.8 22.5523 21.8 22V11C21.8 10.4477 21.3523 10 20.8 10H16.8Z"
    fill="currentColor" />
  <path fill-rule="evenodd" clip-rule="evenodd"
    d="M12.8 16.5V21.5H15.8V16.5H12.8ZM12.3 15C11.7478 15 11.3 15.4477 11.3 16V22C11.3 22.5523 11.7478 23 12.3 23H16.3C16.8523 23 17.3 22.5523 17.3 22V16C17.3 15.4477 16.8523 15 16.3 15H12.3Z"
    fill="currentColor" />
  <path fill-rule="evenodd" clip-rule="evenodd"
    d="M3.80005 18.5V21.5H6.80005V18.5H3.80005ZM3.30005 17C2.74776 17 2.30005 17.4477 2.30005 18V22C2.30005 22.5523 2.74776 23 3.30005 23H7.30005C7.85233 23 8.30005 22.5523 8.30005 22V18C8.30005 17.4477 7.85233 17 7.30005 17H3.30005Z"
    fill="currentColor" />
</svg>
