<svg xmlns="http://www.w3.org/2000/svg" width="24" height="24" viewBox="0 0 24 24">
    <g fill="none" fill-rule="evenodd">
        <path fill="currentColor" d="M12 2c5.523 0 10 4.477 10 10s-4.477 10-10 10S2 17.523 2 12 6.477 2 12 2zm0 1.5c-4.694 0-8.5 3.806-8.5 8.5s3.806 8.5 8.5 8.5 8.5-3.806 8.5-8.5-3.806-8.5-8.5-8.5zm2 2.75c.38 0 .693.282.743.648L14.75 7v10c0 .414-.336.75-.75.75-.38 0-.693-.282-.743-.648L13.25 17V7c0-.414.336-.75.75-.75zm-4 0c.38 0 .693.282.743.648L10.75 7v10c0 .414-.336.75-.75.75-.38 0-.693-.282-.743-.648L9.25 17V7c0-.414.336-.75.75-.75z"/>
    </g>
</svg>
