<svg width="24" height="24" viewBox="0 0 24 24" fill="none" xmlns="http://www.w3.org/2000/svg">
  <path fill-rule="evenodd" clip-rule="evenodd"
    d="M15.5001 14.2H15.0001C14.0336 14.2 13.2501 14.9835 13.2501 15.95V16.45C13.2501 17.4164 14.0336 18.2 15.0001 18.2H15.5001C16.4666 18.2 17.2501 17.4164 17.2501 16.45V15.95C17.2501 14.9835 16.4666 14.2 15.5001 14.2ZM15.0001 15.7H15.5001C15.6382 15.7 15.7501 15.8119 15.7501 15.95V16.45C15.7501 16.588 15.6382 16.7 15.5001 16.7H15.0001C14.862 16.7 14.7501 16.588 14.7501 16.45V15.95C14.7501 15.8119 14.862 15.7 15.0001 15.7Z"
    fill="currentColor" />
  <path fill-rule="evenodd" clip-rule="evenodd"
    d="M17.4134 3.19995H6.59405C5.93052 3.19995 5.32406 3.57522 5.02796 4.16902L2.64269 8.95246C2.3062 9.62727 2.43981 10.4418 2.97424 10.9737C3.06728 11.0663 3.15922 11.1553 3.25011 11.2406V21.0033L3.25696 21.1051C3.30662 21.4712 3.62042 21.7533 4.00011 21.7533H20.0001L20.1019 21.7465C20.468 21.6968 20.7501 21.383 20.7501 21.0033V11.2122C20.8311 11.1376 20.9132 11.0602 20.9964 10.9801C21.5463 10.4503 21.6892 9.62526 21.3496 8.94142L18.9807 4.17155C18.6851 3.57636 18.0779 3.19995 17.4134 3.19995ZM4.75011 20.253V12.3606C5.17856 12.5831 5.58458 12.6965 5.97527 12.6965C6.81573 12.6965 7.73531 12.1708 8.80787 11.1678C8.9056 11.0764 9.05795 11.0781 9.15355 11.1717L9.34912 11.3587C10.2913 12.2359 11.127 12.6965 11.9175 12.6965C12.7708 12.6965 13.6981 12.1585 14.7729 11.1329C14.8669 11.0431 15.0141 11.0404 15.1114 11.1267L15.3227 11.3107C16.4031 12.2326 17.2775 12.7063 18.0429 12.6964C18.4204 12.6916 18.8197 12.5711 19.2501 12.3385V20.253H10.7501V16L10.7443 15.8564C10.6713 14.9571 9.91829 14.25 9.00011 14.25H8.00011L7.85659 14.2558C6.95722 14.3288 6.25011 15.0818 6.25011 16V20.253H4.75011ZM7.75011 20.253H9.25011V16C9.25011 15.8816 9.16788 15.7825 9.05744 15.7566L9.00011 15.75H8.00011C7.88177 15.75 7.78263 15.8322 7.75671 15.9426L7.75011 16V20.253ZM6.59405 4.69995H17.4134C17.5083 4.69995 17.5951 4.75372 17.6373 4.83875L20.0062 9.60859C20.0547 9.70627 20.0342 9.82414 19.9557 9.89982C19.0491 10.7733 18.37 11.1921 18.0236 11.1966C17.725 11.2004 17.1207 10.873 16.3019 10.1744L16.1015 9.9999C15.4259 9.40063 14.3958 9.41939 13.7374 10.0477C12.9171 10.8303 12.286 11.1965 11.9175 11.1965C11.5929 11.1965 11.0617 10.9037 10.3783 10.2675L10.1964 10.0936C9.5338 9.44474 8.46738 9.4325 7.78333 10.0722C6.96454 10.8379 6.33724 11.1965 5.97527 11.1965C5.58703 11.1965 4.91133 10.7853 4.0324 9.91057C3.95608 9.8346 3.93699 9.71823 3.98506 9.62183L6.37033 4.83839C6.41263 4.75356 6.49926 4.69995 6.59405 4.69995Z"
    fill="currentColor" />
</svg>
