<svg viewBox="0 0 24 24" fill="currentColor" xmlns="http://www.w3.org/2000/svg">
<path fill-rule="evenodd" clip-rule="evenodd" d="M16.4201 4.2575C16.1804 3.98148 15.7683 3.9153 15.4509 4.11792L15.3618 4.18441C15.0858 4.42416 15.0197 4.83625 15.2223 5.15365L16.381 6.96969H5.7501L5.64833 6.97654C5.28225 7.0262 5.0001 7.34 5.0001 7.71969C5.0001 8.13391 5.33589 8.46969 5.7501 8.46969H16.3958L15.2186 10.3531L15.1667 10.4513C15.0203 10.7864 15.1375 11.187 15.4568 11.3866C15.8079 11.6063 16.2707 11.4996 16.4903 11.1484L18.3798 8.12719C18.4559 8.00986 18.5001 7.86994 18.5001 7.71969C18.5001 7.5671 18.4545 7.42516 18.3763 7.30672L16.4866 4.34654L16.4201 4.2575ZM7.07997 13.2271C7.31973 12.9511 7.73181 12.8849 8.04921 13.0875L8.13826 13.154C8.41428 13.3938 8.48045 13.8058 8.27783 14.1232L7.11858 15.9393H17.7501L17.8519 15.9461C18.2179 15.9958 18.5001 16.3096 18.5001 16.6893C18.5001 17.1035 18.1643 17.4393 17.7501 17.4393H7.10433L8.28154 19.3227L8.33341 19.4209C8.47977 19.756 8.36261 20.1566 8.04335 20.3562C7.69216 20.5759 7.22942 20.4692 7.00978 20.118L5.11631 17.0905C5.0631 17.0066 5.02608 16.9114 5.00966 16.8094C4.99683 16.7301 4.99678 16.6493 5.00951 16.5701C5.02618 16.4657 5.0644 16.3685 5.11947 16.2832L7.01348 13.3161L7.07997 13.2271Z" fill="currentColor"/>
</svg>
