<svg viewBox="0 0 12 12" fill="none" xmlns="http://www.w3.org/2000/svg">
<path fill-rule="evenodd" clip-rule="evenodd" d="M1.68045 1.34514L4.48775 0.631394C4.65865 0.587942 4.83981 0.637731 4.9645 0.762424L10.9314 6.72934C11.1267 6.9246 11.1267 7.24119 10.9314 7.43645L7.39589 10.972C7.20063 11.1672 6.88404 11.1672 6.68878 10.972L0.722629 5.00583C0.597523 4.88073 0.547848 4.69882 0.592006 4.52749L1.31948 1.70493C1.36506 1.52808 1.50345 1.39014 1.68045 1.34514ZM2.00872 2.03557L1.35359 4.57656L7.04191 10.2649L10.2239 7.0829L4.53415 1.39316L2.00872 2.03557ZM3.49995 4.49995C4.05224 4.49995 4.49995 4.05223 4.49995 3.49995C4.49995 2.94766 4.05224 2.49995 3.49995 2.49995C2.94767 2.49995 2.49995 2.94766 2.49995 3.49995C2.49995 4.05223 2.94767 4.49995 3.49995 4.49995Z" fill="currentColor"/>
</svg>
