<svg width="20" height="20" viewBox="0 0 20 20" fill="none" xmlns="http://www.w3.org/2000/svg">
<path fill-rule="evenodd" clip-rule="evenodd" d="M15.5 0C15.8797 0 16.1935 0.282154 16.2432 0.648229L16.25 0.75V2H19C19.5523 2 20 2.44772 20 3V19C20 19.5523 19.5523 20 19 20H1C0.447715 20 0 19.5523 0 19V3C0 2.44772 0.447715 2 1 2H3.75V0.642857C3.75 0.287817 4.08579 0 4.5 0C4.8797 0 5.19349 0.241846 5.24315 0.555625L5.25 0.642857V2H14.75V0.75C14.75 0.335786 15.0858 0 15.5 0ZM18.5 6.5H1.5V18.5H18.5V6.5ZM7.29908 8.50092C7.4099 8.50041 7.5 8.5901 7.5 8.70092V12.3C7.5 12.4105 7.41046 12.5 7.3 12.5H3.7C3.58954 12.5 3.5 12.4105 3.5 12.3V8.71743C3.5 8.60733 3.58899 8.51793 3.69908 8.51743L7.29908 8.50092ZM18.5 3.5H1.5V5H18.5V3.5Z" fill="currentColor"/>
</svg>
