<svg width="20" height="20" viewBox="0 0 20 20" fill="none" xmlns="http://www.w3.org/2000/svg">
<g id="Icon/system icon">
<path id="Combined Shape" fill-rule="evenodd" clip-rule="evenodd" d="M12.8337 9.92092C12.5003 9.92092 12.2287 10.1909 12.2287 10.5251L12.2287 16.8576L10.437 16.8576L10.437 8.27425C10.4362 7.94092 10.167 7.67175 9.83282 7.67092C9.49949 7.67175 9.22949 7.94092 9.22949 8.27425L9.22949 16.8576L7.43699 16.8576L7.43699 10.5251C7.43616 10.1909 7.16699 9.92175 6.83366 9.92092C6.49949 9.92175 6.22949 10.1909 6.22949 10.5251L6.22949 16.8576L4.81199 16.8576L4.81199 5.31675L14.8545 5.31675L14.8545 16.8576L13.4378 16.8576L13.4378 10.5251C13.4378 10.1909 13.1662 9.92092 12.8337 9.92092ZM10.0212 2.87925C11.012 2.88008 11.8603 3.23425 12.3003 4.10758L7.74116 4.10758C8.18116 3.23092 9.03033 2.88008 10.0212 2.87925ZM16.7712 4.10758L13.5795 4.10758C13.0112 2.63842 11.5995 1.66675 10.0212 1.66675C8.44283 1.66675 7.03033 2.63842 6.46199 4.10758L3.27033 4.10758C2.93699 4.10758 2.66699 4.37841 2.66699 4.71258C2.66699 5.04508 2.93699 5.31675 3.27033 5.31675L3.60449 5.31675L3.60449 16.8992C3.60449 17.5434 4.12699 18.0659 4.77032 18.0659L14.8962 18.0659C15.5395 18.0659 16.062 17.5434 16.062 16.8992L16.062 5.31675L16.7712 5.31675C17.1045 5.31675 17.3745 5.04508 17.3745 4.71258C17.3745 4.37842 17.1045 4.10758 16.7712 4.10758Z" fill="currentColor"/>
</g>
</svg>
