<svg viewBox="0 0 24 24" fill="currentColor" xmlns="http://www.w3.org/2000/svg">
<path d="M19.96 8.4575C19.96 8.27667 19.9533 8.10083 19.945 7.9275C20.7583 7.35 21.4425 6.62917 22 5.79917V5.79833C21.2558 6.12417 20.4642 6.34083 19.6375 6.44583C20.4875 5.93833 21.1367 5.14083 21.4417 4.18C20.6492 4.6525 19.7742 4.98583 18.8417 5.1725C18.0892 4.37083 17.0167 3.875 15.8467 3.875C13.5767 3.875 11.7492 5.7175 11.7492 7.97583C11.7492 8.30083 11.7767 8.61333 11.8442 8.91083C8.43583 8.74417 5.41917 7.11083 3.3925 4.62167C3.03917 5.23583 2.83083 5.93833 2.83083 6.69417C2.83083 8.11417 3.56167 9.3725 4.6525 10.1017C3.99333 10.0892 3.3475 9.8975 2.8 9.59667V9.64167C2.8 11.6342 4.22083 13.2892 6.085 13.6708C5.45833 13.8425 4.68667 13.8358 4.23417 13.7358C4.765 15.3592 6.27333 16.5533 8.065 16.5925C6.67 17.6833 4.89833 18.3408 2.98083 18.3408C2.645 18.3408 2.3225 18.3258 2 18.285C3.81667 19.4558 5.96833 20.125 8.29 20.125C15.835 20.125 19.96 13.875 19.96 8.4575Z" fill="currentColor"/>
</svg>
