<svg width="24" height="24" viewBox="0 0 24 24" fill="none" xmlns="http://www.w3.org/2000/svg">
  <path fill-rule="evenodd" clip-rule="evenodd"
    d="M12 17.5C15.0376 17.5 17.5 15.0376 17.5 12C17.5 8.96243 15.0376 6.5 12 6.5C8.96243 6.5 6.5 8.96243 6.5 12C6.5 15.0376 8.96243 17.5 12 17.5ZM12 19C15.866 19 19 15.866 19 12C19 8.13401 15.866 5 12 5C8.13401 5 5 8.13401 5 12C5 15.866 8.13401 19 12 19Z"
    fill="currentColor" />
  <path fill-rule="evenodd" clip-rule="evenodd"
    d="M9 2.75C9 2.33579 9.40294 2 9.9 2H14.1C14.5971 2 15 2.33579 15 2.75C15 3.16421 14.5971 3.5 14.1 3.5H9.9C9.40294 3.5 9 3.16421 9 2.75Z"
    fill="currentColor" />
  <path fill-rule="evenodd" clip-rule="evenodd"
    d="M21.25 15C20.8358 15 20.5 14.5971 20.5 14.1V9.9C20.5 9.40294 20.8358 9 21.25 9C21.6642 9 22 9.40294 22 9.9V14.1C22 14.5971 21.6642 15 21.25 15Z"
    fill="currentColor" />
  <path fill-rule="evenodd" clip-rule="evenodd"
    d="M2.75 15C2.33579 15 2 14.5971 2 14.1L2 9.9C2 9.40294 2.33579 9 2.75 9C3.16421 9 3.5 9.40294 3.5 9.9V14.1C3.5 14.5971 3.16421 15 2.75 15Z"
    fill="currentColor" />
  <path fill-rule="evenodd" clip-rule="evenodd"
    d="M9 21.25C9 20.8358 9.40294 20.5 9.9 20.5H14.1C14.5971 20.5 15 20.8358 15 21.25C15 21.6642 14.5971 22 14.1 22H9.9C9.40294 22 9 21.6642 9 21.25Z"
    fill="currentColor" />
</svg>
